<svg width="68" height="67" viewBox="0 0 68 67" fill="none" xmlns="http://www.w3.org/2000/svg">
<g id="Group 2611327">
<g id="Clip path group">
<mask id="mask0_308_4963" style="mask-type:luminance" maskUnits="userSpaceOnUse" x="31" y="-1" width="26" height="18">
<g id="55b7c99a75">
<path id="Vector" d="M31.1873 -0.000244141H56.439V16.8319H31.1873V-0.000244141Z" fill="white"/>
</g>
</mask>
<g mask="url(#mask0_308_4963)">
<g id="Group">
<path id="Vector_2" d="M56.3316 16.7497H53.5394V4.18723C53.5394 4.09517 53.5309 4.00443 53.5131 3.91499C53.4947 3.82491 53.4684 3.73745 53.4335 3.65328C53.3987 3.56845 53.3553 3.48757 53.3046 3.41194C53.2533 3.33566 53.1955 3.26465 53.131 3.2002C53.0659 3.1351 52.9956 3.07724 52.9193 3.0266C52.843 2.97531 52.7628 2.93257 52.678 2.89772C52.5931 2.86221 52.5063 2.8359 52.4162 2.81815C52.3261 2.80039 52.2354 2.79119 52.144 2.79119H31.2061V-0.000244141H52.144C52.2808 -0.000244141 52.4175 0.00633171 52.5543 0.0201409C52.6911 0.0332927 52.8266 0.0536775 52.9607 0.0799808C53.0955 0.106942 53.2284 0.140478 53.3592 0.179933C53.4907 0.220045 53.6196 0.266076 53.7465 0.318683C53.8728 0.370632 53.9971 0.429156 54.1181 0.494257C54.2391 0.5587 54.3561 0.629061 54.4706 0.70534C54.5843 0.78162 54.6941 0.86316 54.8007 0.949961C54.9066 1.03742 55.0078 1.12948 55.1051 1.22614C55.2018 1.32281 55.2939 1.42473 55.3807 1.5306C55.4681 1.63648 55.5497 1.74695 55.626 1.86071C55.7016 1.97447 55.7726 2.09218 55.8371 2.21317C55.9015 2.33417 55.96 2.45779 56.0126 2.58471C56.0652 2.71162 56.1113 2.84051 56.1514 2.97136C56.1908 3.10288 56.2244 3.23571 56.2507 3.37052C56.2776 3.50466 56.298 3.64013 56.3112 3.7769C56.325 3.91302 56.3316 4.0498 56.3316 4.18723V16.7497Z" fill="#E08F34"/>
</g>
</g>
</g>
<g id="Clip path group_2">
<mask id="mask1_308_4963" style="mask-type:luminance" maskUnits="userSpaceOnUse" x="11" y="34" width="46" height="34">
<g id="2acbf97818">
<path id="Vector_3" d="M11.6575 34.8452H56.4373V67.0003H11.6575V34.8452Z" fill="white"/>
</g>
</mask>
<g mask="url(#mask1_308_4963)">
<g id="Group_2">
<path id="Vector_4" d="M52.1409 67.0002H15.8487C15.7113 67.0002 15.5745 66.9929 15.4377 66.9798C15.3016 66.9666 15.1661 66.9463 15.0313 66.9193C14.8972 66.893 14.7643 66.8595 14.6328 66.8193C14.5013 66.7799 14.3724 66.7339 14.2462 66.6812C14.1192 66.6286 13.9956 66.5701 13.8746 66.5057C13.7536 66.4406 13.6359 66.3702 13.5221 66.2939C13.4077 66.2183 13.2979 66.1368 13.192 66.0493C13.0861 65.9625 12.9842 65.8705 12.8876 65.7738C12.7902 65.6765 12.6982 65.5752 12.6114 65.4687C12.5246 65.3628 12.443 65.253 12.3667 65.1392C12.2905 65.0248 12.2201 64.9071 12.1556 64.7868C12.0905 64.6658 12.032 64.5415 11.9794 64.4152C11.9275 64.2883 11.8808 64.1594 11.8413 64.0279C11.8012 63.8971 11.7683 63.7642 11.7414 63.6294C11.7144 63.4946 11.6947 63.3591 11.6809 63.223C11.6677 63.0863 11.6611 62.9495 11.6611 62.8127V34.8958H14.4526V62.8127C14.4526 62.9041 14.4618 62.9949 14.4796 63.0849C14.4974 63.1744 14.5237 63.2618 14.5592 63.3467C14.594 63.4315 14.6368 63.5117 14.6881 63.588C14.7387 63.6643 14.7966 63.7346 14.8617 63.7997C14.9261 63.8642 14.9965 63.922 15.0728 63.9733C15.149 64.024 15.2299 64.0667 15.3141 64.1022C15.3989 64.1371 15.4864 64.1634 15.5758 64.1818C15.6659 64.1995 15.7567 64.2081 15.8487 64.2081H52.1409C52.2323 64.2081 52.3231 64.1995 52.4132 64.1818C52.5032 64.1634 52.59 64.1371 52.6749 64.1022C52.7597 64.0667 52.8399 64.024 52.9162 63.9733C52.9925 63.922 53.0629 63.8642 53.128 63.7997C53.1924 63.7346 53.2503 63.6643 53.3016 63.588C53.3522 63.5117 53.3956 63.4315 53.4305 63.3467C53.4653 63.2618 53.4916 63.1744 53.51 63.0849C53.5278 62.9949 53.5363 62.9041 53.5363 62.8127V50.2503H56.3285V62.8127C56.3285 62.9495 56.3219 63.0863 56.3081 63.223C56.295 63.3591 56.2746 63.4946 56.2476 63.6294C56.2213 63.7642 56.1878 63.8971 56.1483 64.0279C56.1082 64.1594 56.0622 64.2883 56.0096 64.4152C55.9569 64.5415 55.8984 64.6658 55.834 64.7868C55.7695 64.9071 55.6985 65.0248 55.6229 65.1392C55.5466 65.253 55.4651 65.3628 55.3776 65.4687C55.2908 65.5752 55.1987 65.6765 55.1021 65.7738C55.0047 65.8705 54.9035 65.9625 54.7976 66.0493C54.6911 66.1368 54.5813 66.2183 54.4675 66.2939C54.3531 66.3702 54.236 66.4406 54.115 66.5057C53.994 66.5701 53.8697 66.6286 53.7435 66.6812C53.6166 66.7339 53.4877 66.7799 53.3561 66.8193C53.2253 66.8595 53.0924 66.893 52.9576 66.9193C52.8235 66.9463 52.688 66.9666 52.5512 66.9798C52.4145 66.9929 52.2777 67.0002 52.1409 67.0002Z" fill="#E08F34"/>
</g>
</g>
</g>
<path id="Vector_5" d="M31.208 11.166H50.7499V13.9574H31.208V11.166Z" fill="#E08F34"/>
<path id="Vector_6" d="M13.0623 53.0413H50.7505V55.8327H13.0623V53.0413Z" fill="#E08F34"/>
<path id="Vector_7" d="M31.208 5.58325H38.1871V8.37468H31.208V5.58325Z" fill="#E08F34"/>
<path id="Vector_8" d="M31.208 58.6243H39.5832V61.4157H31.208V58.6243Z" fill="#E08F34"/>
<path id="Vector_9" d="M15.8513 16.7497H10.2677C10.1302 16.7497 9.99344 16.7431 9.85732 16.7293C9.72054 16.7162 9.58508 16.6958 9.45093 16.6688C9.31612 16.6425 9.18328 16.609 9.05176 16.5695C8.9209 16.5294 8.79201 16.4834 8.6651 16.4308C8.53818 16.3782 8.41455 16.3197 8.29355 16.2552C8.17256 16.1908 8.05485 16.1197 7.94108 16.0441C7.82732 15.9678 7.71684 15.8863 7.61097 15.7988C7.50509 15.712 7.40382 15.62 7.3065 15.5233C7.20983 15.426 7.11777 15.3247 7.03031 15.2189C6.9435 15.1123 6.86196 15.0025 6.78568 14.8888C6.7094 14.7743 6.63904 14.6573 6.57459 14.5363C6.51015 14.4153 6.45096 14.291 6.39901 14.1648C6.34641 14.0378 6.30037 13.909 6.26026 13.7774C6.2208 13.6466 6.18727 13.5138 6.16031 13.3789C6.134 13.2448 6.11362 13.1093 6.10046 12.9726C6.08665 12.8358 6.08008 12.699 6.08008 12.5622C6.08008 12.4248 6.08665 12.288 6.10046 12.1519C6.11362 12.0151 6.134 11.8797 6.16031 11.7455C6.18727 11.6107 6.2208 11.4779 6.26026 11.3464C6.30037 11.2155 6.34641 11.0866 6.39901 10.9597C6.45096 10.8328 6.51015 10.7092 6.57459 10.5882C6.63904 10.4672 6.7094 10.3495 6.78568 10.2357C6.86196 10.1219 6.9435 10.0115 7.03031 9.9056C7.11777 9.79973 7.20983 9.69781 7.3065 9.60114C7.40382 9.50448 7.50509 9.41242 7.61097 9.32496C7.71684 9.23816 7.82732 9.15662 7.94108 9.08034C8.05485 9.00406 8.17256 8.9337 8.29355 8.86926C8.41455 8.80416 8.53818 8.74563 8.6651 8.69368C8.79201 8.64108 8.9209 8.59505 9.05176 8.55493C9.18328 8.51548 9.31612 8.48194 9.45093 8.45498C9.58508 8.42868 9.72054 8.40829 9.85732 8.39514C9.99344 8.38133 10.1302 8.37476 10.2677 8.37476H15.8513C15.9427 8.37476 16.0335 8.3833 16.1236 8.40172C16.213 8.41947 16.3005 8.44577 16.3853 8.48063C16.4701 8.51614 16.5504 8.55888 16.6266 8.61017C16.7029 8.6608 16.7733 8.71867 16.8384 8.78377C16.9028 8.84821 16.9607 8.91858 17.012 8.99485C17.0626 9.07113 17.1054 9.15136 17.1409 9.23619C17.1757 9.32102 17.202 9.40847 17.2198 9.4979C17.2382 9.58799 17.2468 9.67874 17.2468 9.7708V15.3537C17.2468 15.4457 17.2382 15.5365 17.2198 15.6259C17.202 15.716 17.1757 15.8035 17.1409 15.8876C17.1054 15.9724 17.0626 16.0533 17.012 16.129C16.9607 16.2052 16.9028 16.2763 16.8384 16.3407C16.7733 16.4058 16.7029 16.4637 16.6266 16.5143C16.5504 16.5656 16.4701 16.6083 16.3853 16.6432C16.3005 16.6787 16.213 16.705 16.1236 16.7227C16.0335 16.7405 15.9427 16.7497 15.8513 16.7497ZM10.2677 11.1662C10.1763 11.1662 10.0855 11.1754 9.99542 11.1931C9.90533 11.2109 9.81787 11.2372 9.73369 11.2727C9.64886 11.3076 9.56864 11.3503 9.49236 11.4016C9.41607 11.4522 9.34571 11.5101 9.28061 11.5752C9.21551 11.6396 9.15764 11.7107 9.107 11.7869C9.05637 11.8626 9.01297 11.9434 8.97811 12.0283C8.94326 12.1124 8.9163 12.1999 8.89854 12.29C8.88079 12.3794 8.87158 12.4702 8.87158 12.5622C8.87158 12.6536 8.88079 12.7444 8.89854 12.8345C8.9163 12.9246 8.94326 13.0114 8.97811 13.0962C9.01297 13.181 9.05637 13.2612 9.107 13.3375C9.15764 13.4138 9.21551 13.4842 9.28061 13.5493C9.34571 13.6137 9.41607 13.6716 9.49236 13.7229C9.56864 13.7735 9.64886 13.8169 9.73369 13.8517C9.81787 13.8866 9.90533 13.9136 9.99542 13.9313C10.0855 13.9491 10.1763 13.9576 10.2677 13.9576H14.4552V11.1662H10.2677Z" fill="#E08F34"/>
<path id="Vector_10" d="M21.4378 19.5412C21.2182 19.5412 21.0104 19.4925 20.8138 19.3945L15.2308 16.6031C15.1144 16.5452 15.0085 16.4722 14.9131 16.3848C14.8171 16.2973 14.7349 16.1987 14.6672 16.0882C14.5988 15.9777 14.5469 15.86 14.512 15.7358C14.4765 15.6108 14.4587 15.4832 14.4587 15.3537V9.77084C14.4587 9.64064 14.4765 9.51373 14.512 9.38879C14.5469 9.26385 14.5988 9.1468 14.6672 9.03632C14.7349 8.92585 14.8171 8.82721 14.9131 8.73975C15.0085 8.65164 15.1144 8.5793 15.2308 8.52144L20.8138 5.72935C20.867 5.70304 20.9216 5.68003 20.9775 5.6603C21.0334 5.64123 21.0906 5.62479 21.1485 5.61296C21.2064 5.60046 21.2649 5.59191 21.3241 5.58731C21.3826 5.58205 21.4418 5.58139 21.501 5.58402C21.5601 5.58665 21.6193 5.59323 21.6772 5.60309C21.7357 5.61296 21.7936 5.62677 21.8501 5.64452C21.9067 5.66227 21.9619 5.68332 22.0159 5.70765C22.0698 5.73198 22.1217 5.76025 22.1724 5.79116C22.2223 5.82207 22.271 5.85626 22.317 5.89374C22.3631 5.93123 22.4065 5.97134 22.4472 6.01408C22.488 6.05682 22.5262 6.1022 22.5617 6.14954C22.5965 6.19755 22.6287 6.24752 22.6577 6.29881C22.686 6.35076 22.7116 6.40403 22.734 6.45926C22.7557 6.51384 22.7741 6.57039 22.7892 6.6276C22.8037 6.68481 22.8155 6.74334 22.8227 6.80186C22.83 6.86039 22.8339 6.91957 22.8339 6.97875V18.1451C22.8339 18.2372 22.8247 18.3279 22.8069 18.418C22.7892 18.5075 22.7629 18.5949 22.7274 18.6797C22.6925 18.7646 22.6498 18.8448 22.5985 18.9211C22.5479 18.9974 22.49 19.0677 22.4249 19.1322C22.3604 19.1973 22.2894 19.2551 22.2138 19.3058C22.1375 19.3571 22.0566 19.3998 21.9725 19.4353C21.8876 19.4702 21.8002 19.4965 21.7101 19.5142C21.6206 19.5326 21.5299 19.5412 21.4378 19.5412ZM17.2502 14.491L20.0424 15.887V9.23754L17.2502 10.6329V14.491Z" fill="#E08F34"/>
<path id="Vector_11" d="M10.2693 15.3538H13.0608V20.9373H10.2693V15.3538Z" fill="#E08F34"/>
<g id="Clip path group_3">
<mask id="mask2_308_4963" style="mask-type:luminance" maskUnits="userSpaceOnUse" x="0" y="-1" width="29" height="34">
<g id="0b19ce2e70">
<path id="Vector_12" d="M0.498291 -0.000244141H28.4955V32.1509H0.498291V-0.000244141Z" fill="white"/>
</g>
</mask>
<g mask="url(#mask2_308_4963)">
<g id="Group_3">
<path id="Vector_13" d="M13.061 32.1035C12.8763 32.1035 12.6981 32.068 12.5271 31.997C12.3561 31.9266 12.2055 31.8254 12.0746 31.6945L6.90001 26.52H4.68588C4.5491 26.52 4.41232 26.5134 4.27554 26.5003C4.13941 26.4865 4.00395 26.4667 3.86914 26.4398C3.73433 26.4128 3.6015 26.3799 3.47063 26.3398C3.33912 26.3004 3.21023 26.2543 3.08331 26.2017C2.95705 26.1491 2.83276 26.0906 2.71177 26.0262C2.59143 25.9611 2.47372 25.8907 2.35929 25.8144C2.24553 25.7381 2.13571 25.6566 2.02918 25.5698C1.92331 25.483 1.82204 25.3909 1.72471 25.2936C1.62804 25.1969 1.53598 25.0957 1.44918 24.9892C1.36172 24.8833 1.28018 24.7735 1.20455 24.659C1.12827 24.5453 1.05791 24.4276 0.992805 24.3066C0.92836 24.1856 0.869834 24.062 0.817226 23.935C0.764618 23.8088 0.718586 23.6799 0.679131 23.5484C0.639017 23.4169 0.60548 23.284 0.579176 23.1499C0.552214 23.0151 0.531829 22.8796 0.518677 22.7435C0.505525 22.6067 0.498291 22.47 0.498291 22.3325V4.18723C0.498291 4.0498 0.505525 3.91302 0.518677 3.7769C0.531829 3.64012 0.552214 3.50466 0.579176 3.37052C0.60548 3.23571 0.639017 3.10288 0.679131 2.97136C0.718586 2.84051 0.764618 2.71162 0.817226 2.58471C0.869834 2.45779 0.92836 2.33417 0.992805 2.21317C1.05791 2.09218 1.12827 1.97447 1.20455 1.86071C1.28018 1.74695 1.36172 1.63648 1.44918 1.5306C1.53598 1.42473 1.62804 1.32281 1.72471 1.22614C1.82204 1.12948 1.92331 1.03742 2.02918 0.949961C2.13571 0.86316 2.24553 0.78162 2.35929 0.70534C2.47372 0.629061 2.59143 0.5587 2.71177 0.494257C2.83276 0.429156 2.95705 0.370632 3.08331 0.318683C3.21023 0.266076 3.33912 0.220045 3.47063 0.179933C3.6015 0.140478 3.73433 0.106942 3.86914 0.0799808C4.00395 0.0536775 4.13941 0.0332927 4.27554 0.0201409C4.41232 0.00633171 4.5491 -0.000244141 4.68588 -0.000244141H24.2284C24.3652 -0.000244141 24.5019 0.00633171 24.6387 0.0201409C24.7748 0.0332927 24.9103 0.0536775 25.0451 0.0799808C25.1793 0.106942 25.3128 0.140478 25.4436 0.179933C25.5751 0.220045 25.704 0.266076 25.8303 0.318683C25.9572 0.370632 26.0808 0.429156 26.2018 0.494257C26.3228 0.5587 26.4405 0.629061 26.5543 0.70534C26.6687 0.78162 26.7785 0.86316 26.8844 0.949961C26.9909 1.03742 27.0922 1.12948 27.1889 1.22614C27.2862 1.32281 27.3783 1.42473 27.4651 1.5306C27.5519 1.63648 27.6334 1.74695 27.7097 1.86071C27.786 1.97447 27.8563 2.09218 27.9215 2.21317C27.9859 2.33417 28.0444 2.45779 28.097 2.58471C28.1496 2.71162 28.1957 2.84051 28.2351 2.97136C28.2752 3.10288 28.3088 3.23571 28.3351 3.37052C28.362 3.50466 28.3818 3.64012 28.3956 3.7769C28.4087 3.91302 28.416 4.0498 28.416 4.18723V22.3325C28.416 22.47 28.4087 22.6067 28.3956 22.7435C28.3818 22.8796 28.362 23.0151 28.3351 23.1499C28.3088 23.284 28.2752 23.4169 28.2351 23.5484C28.1957 23.6799 28.1496 23.8088 28.097 23.935C28.0444 24.062 27.9859 24.1856 27.9215 24.3066C27.8563 24.4276 27.786 24.5453 27.7097 24.659C27.6334 24.7735 27.5519 24.8833 27.4651 24.9892C27.3783 25.0957 27.2862 25.1969 27.1889 25.2936C27.0922 25.3909 26.9909 25.483 26.8844 25.5698C26.7785 25.6566 26.6687 25.7381 26.5543 25.8144C26.4405 25.8907 26.3228 25.9611 26.2018 26.0262C26.0808 26.0906 25.9572 26.1491 25.8303 26.2017C25.704 26.2543 25.5751 26.3004 25.4436 26.3398C25.3128 26.3799 25.1793 26.4128 25.0451 26.4398C24.9103 26.4667 24.7748 26.4865 24.6387 26.5003C24.5019 26.5134 24.3652 26.52 24.2284 26.52H14.4571V30.7075C14.4571 30.8456 14.4374 30.981 14.3973 31.1132C14.3572 31.2447 14.2986 31.3683 14.2224 31.4834C14.1454 31.5978 14.054 31.6991 13.9468 31.7866C13.8403 31.8747 13.7232 31.9444 13.5957 31.9977C13.4247 32.0687 13.2465 32.1042 13.061 32.1035ZM4.68588 2.79119C4.59447 2.79119 4.50372 2.80039 4.41363 2.81815C4.32354 2.8359 4.23674 2.86221 4.15191 2.89772C4.06708 2.93257 3.98685 2.97531 3.91057 3.0266C3.83429 3.07724 3.76392 3.1351 3.69882 3.2002C3.63438 3.26465 3.57651 3.33566 3.52522 3.41194C3.47458 3.48757 3.43184 3.56845 3.39633 3.65328C3.36147 3.73745 3.33517 3.82491 3.31676 3.91499C3.299 4.00442 3.29045 4.09517 3.29045 4.18723V22.3325C3.29045 22.4246 3.299 22.5153 3.31676 22.6054C3.33517 22.6949 3.36147 22.7823 3.39633 22.8671C3.43184 22.952 3.47458 23.0322 3.52522 23.1085C3.57651 23.1847 3.63438 23.2551 3.69882 23.3196C3.76392 23.3847 3.83429 23.4425 3.91057 23.4932C3.98685 23.5444 4.06708 23.5872 4.15191 23.6227C4.23674 23.6576 4.32354 23.6839 4.41363 23.7016C4.50372 23.72 4.59447 23.7286 4.68588 23.7286H7.47804C7.66282 23.7286 7.84103 23.7641 8.01201 23.8351C8.18298 23.9061 8.33357 24.0067 8.46444 24.1376L11.6656 27.338V25.1246C11.6656 25.0326 11.6742 24.9418 11.6919 24.8524C11.7103 24.7623 11.7366 24.6748 11.7715 24.59C11.807 24.5058 11.8498 24.4249 11.9004 24.3493C11.9517 24.273 12.0095 24.202 12.074 24.1376C12.1391 24.0725 12.2095 24.0146 12.2857 23.964C12.362 23.9127 12.4422 23.8699 12.5271 23.8351C12.6119 23.7996 12.6987 23.7733 12.7888 23.7555C12.8789 23.7378 12.9696 23.7286 13.061 23.7286H24.2284C24.3198 23.7286 24.4105 23.72 24.5006 23.7016C24.5901 23.6839 24.6775 23.6576 24.7624 23.6227C24.8472 23.5872 24.9274 23.5444 25.0037 23.4932C25.08 23.4425 25.1503 23.3847 25.2154 23.3196C25.2799 23.2551 25.3377 23.1847 25.3884 23.1085C25.4397 23.0322 25.4824 22.952 25.5179 22.8671C25.5528 22.7823 25.5791 22.6949 25.5968 22.6054C25.6153 22.5153 25.6238 22.4246 25.6238 22.3325V4.18723C25.6238 4.09517 25.6153 4.00442 25.5968 3.91499C25.5791 3.82491 25.5528 3.73745 25.5179 3.65328C25.4824 3.56845 25.4397 3.48757 25.3884 3.41194C25.3377 3.33566 25.2799 3.26465 25.2154 3.2002C25.1503 3.1351 25.08 3.07724 25.0037 3.0266C24.9274 2.97531 24.8472 2.93257 24.7624 2.89772C24.6775 2.86221 24.5901 2.8359 24.5006 2.81815C24.4105 2.80039 24.3198 2.79119 24.2284 2.79119H4.68588Z" fill="#E08F34"/>
</g>
</g>
</g>
<path id="Vector_14" d="M54.9364 34.895H52.1449C52.0074 34.895 51.8706 34.8884 51.7345 34.8752C51.5977 34.8614 51.4623 34.8417 51.3275 34.8147C51.1933 34.7878 51.0605 34.7549 50.929 34.7148C50.7981 34.6753 50.6692 34.6293 50.5423 34.5767C50.4154 34.5241 50.2917 34.4656 50.1708 34.4011C50.0498 34.336 49.932 34.2657 49.8183 34.1894C49.7045 34.1131 49.594 34.0316 49.4882 33.9448C49.3823 33.858 49.2804 33.7659 49.1837 33.6686C49.0864 33.5719 48.995 33.47 48.9075 33.3641C48.8207 33.2583 48.7392 33.1484 48.6629 33.034C48.5866 32.9203 48.5162 32.8025 48.4518 32.6816C48.3867 32.5606 48.3282 32.4369 48.2762 32.31C48.2236 32.1838 48.1776 32.0549 48.1375 31.9234C48.0973 31.7918 48.0645 31.659 48.0375 31.5249C48.0105 31.3901 47.9908 31.2546 47.977 31.1185C47.9639 30.9817 47.9573 30.8449 47.9573 30.7075C47.9573 30.5707 47.9639 30.4339 47.977 30.2972C47.9908 30.161 48.0105 30.0256 48.0375 29.8908C48.0645 29.7566 48.0973 29.6231 48.1375 29.4923C48.1776 29.3608 48.2236 29.2319 48.2762 29.1056C48.3282 28.9787 48.3867 28.8551 48.4518 28.7341C48.5162 28.6131 48.5866 28.4954 48.6629 28.3816C48.7392 28.2672 48.8207 28.1574 48.9075 28.0515C48.995 27.945 49.0864 27.8437 49.1837 27.7471C49.2804 27.6497 49.3823 27.5577 49.4882 27.4709C49.594 27.3841 49.7045 27.3025 49.8183 27.2263C49.932 27.15 50.0498 27.0796 50.1708 27.0145C50.2917 26.9501 50.4154 26.8916 50.5423 26.8389C50.6692 26.7863 50.7981 26.7403 50.929 26.7009C51.0605 26.6607 51.1933 26.6279 51.3275 26.6009C51.4623 26.5739 51.5977 26.5542 51.7345 26.5404C51.8706 26.5273 52.0074 26.52 52.1449 26.52H54.9364C55.0738 26.52 55.2106 26.5273 55.3467 26.5404C55.4835 26.5542 55.619 26.5739 55.7531 26.6009C55.8879 26.6279 56.0207 26.6607 56.1523 26.7009C56.2831 26.7403 56.412 26.7863 56.5389 26.8389C56.6658 26.8916 56.7895 26.9501 56.9105 27.0145C57.0315 27.0796 57.1492 27.15 57.2629 27.2263C57.3767 27.3025 57.4872 27.3841 57.5931 27.4709C57.6989 27.5577 57.8009 27.6497 57.8975 27.7471C57.9942 27.8437 58.0863 27.945 58.1737 28.0515C58.2605 28.1574 58.3421 28.2672 58.4183 28.3816C58.4946 28.4954 58.565 28.6131 58.6294 28.7341C58.6945 28.8551 58.7531 28.9787 58.805 29.1056C58.8576 29.2319 58.9037 29.3608 58.9438 29.4923C58.9832 29.6231 59.0168 29.7566 59.0437 29.8908C59.07 30.0256 59.0904 30.161 59.1036 30.2972C59.1174 30.4339 59.124 30.5707 59.124 30.7075H56.3324C56.3324 30.6161 56.3232 30.5253 56.3055 30.4353C56.2877 30.3458 56.2614 30.2584 56.2259 30.1735C56.1911 30.0887 56.1477 30.0085 56.097 29.9322C56.0464 29.8559 55.9885 29.7856 55.9234 29.7205C55.859 29.656 55.788 29.5982 55.7117 29.5475C55.636 29.4962 55.5552 29.4535 55.4703 29.418C55.3862 29.3831 55.2987 29.3568 55.2086 29.3391C55.1192 29.3207 55.0284 29.3121 54.9364 29.3121H52.1449C52.0528 29.3121 51.962 29.3207 51.8726 29.3391C51.7825 29.3568 51.6951 29.3831 51.6102 29.418C51.5261 29.4535 51.4452 29.4962 51.3696 29.5475C51.2933 29.5982 51.2223 29.656 51.1578 29.7205C51.0927 29.7856 51.0348 29.8559 50.9842 29.9322C50.9329 30.0085 50.8902 30.0887 50.8553 30.1735C50.8198 30.2584 50.7935 30.3458 50.7757 30.4353C50.758 30.5253 50.7488 30.6161 50.7488 30.7075C50.7488 30.7996 50.758 30.8903 50.7757 30.9804C50.7935 31.0698 50.8198 31.1573 50.8553 31.2421C50.8902 31.3269 50.9329 31.4072 50.9842 31.4834C51.0348 31.5597 51.0927 31.6301 51.1578 31.6945C51.2223 31.7596 51.2933 31.8175 51.3696 31.8681C51.4452 31.9194 51.5261 31.9622 51.6102 31.9977C51.6951 32.0325 51.7825 32.0588 51.8726 32.0766C51.962 32.095 52.0528 32.1035 52.1449 32.1035H54.9364V34.895Z" fill="#E08F34"/>
<path id="Vector_15" d="M54.9364 40.4785H52.1449C52.0074 40.4785 51.8706 40.4719 51.7345 40.4581C51.5977 40.4449 51.4623 40.4245 51.3275 40.3982C51.1933 40.3713 51.0605 40.3377 50.929 40.2983C50.7981 40.2582 50.6692 40.2121 50.5423 40.1595C50.4154 40.1076 50.2917 40.0484 50.1708 39.984C50.0498 39.9195 49.932 39.8492 49.8183 39.7729C49.7045 39.6966 49.594 39.6151 49.4882 39.5283C49.3823 39.4408 49.2804 39.3487 49.1837 39.2521C49.0864 39.1548 48.995 39.0535 48.9075 38.9476C48.8207 38.8417 48.7392 38.7313 48.6629 38.6175C48.5866 38.5038 48.5162 38.386 48.4518 38.2651C48.3867 38.1441 48.3282 38.0204 48.2762 37.8935C48.2236 37.7666 48.1776 37.6377 48.1375 37.5069C48.0973 37.3753 48.0645 37.2425 48.0375 37.1077C48.0105 36.9736 47.9908 36.8381 47.977 36.7013C47.9639 36.5652 47.9573 36.4284 47.9573 36.291H50.7488C50.7488 36.3824 50.758 36.4738 50.7757 36.5632C50.7935 36.6533 50.8198 36.7408 50.8553 36.8249C50.8902 36.9098 50.9329 36.99 50.9842 37.0663C51.0348 37.1426 51.0927 37.2129 51.1578 37.278C51.2223 37.3431 51.2933 37.401 51.3696 37.4516C51.4452 37.5023 51.5261 37.5457 51.6102 37.5805C51.6951 37.616 51.7825 37.6423 51.8726 37.6601C51.962 37.6778 52.0528 37.687 52.1449 37.687H54.9364C55.0284 37.687 55.1192 37.6778 55.2086 37.6601C55.2987 37.6423 55.3862 37.616 55.4703 37.5805C55.5552 37.5457 55.636 37.5023 55.7117 37.4516C55.788 37.401 55.859 37.3431 55.9234 37.278C55.9885 37.2129 56.0464 37.1426 56.097 37.0663C56.1477 36.99 56.1911 36.9098 56.2259 36.8249C56.2614 36.7408 56.2877 36.6533 56.3055 36.5632C56.3232 36.4738 56.3324 36.3824 56.3324 36.291C56.3324 36.1996 56.3232 36.1088 56.3055 36.0188C56.2877 35.9287 56.2614 35.8419 56.2259 35.757C56.1911 35.6722 56.1477 35.592 56.097 35.5157C56.0464 35.4394 55.9885 35.3691 55.9234 35.304C55.859 35.2395 55.788 35.1817 55.7117 35.1304C55.636 35.0797 55.5552 35.0363 55.4703 35.0015C55.3862 34.9666 55.2987 34.9397 55.2086 34.9219C55.1192 34.9042 55.0284 34.8949 54.9364 34.8949H52.1449V32.1035H54.9364C55.0738 32.1035 55.2106 32.1101 55.3467 32.1239C55.4835 32.1371 55.619 32.1574 55.7531 32.1837C55.8879 32.2107 56.0207 32.2442 56.1523 32.2837C56.2831 32.3238 56.412 32.3698 56.5389 32.4224C56.6658 32.475 56.7895 32.5336 56.9105 32.598C57.0315 32.6625 57.1492 32.7328 57.2629 32.8091C57.3767 32.8854 57.4872 32.9669 57.5931 33.0544C57.6989 33.1412 57.8009 33.2332 57.8975 33.3299C57.9942 33.4272 58.0863 33.5285 58.1737 33.6344C58.2605 33.7409 58.3421 33.8507 58.4183 33.9645C58.4946 34.0789 58.565 34.1959 58.6294 34.3169C58.6945 34.4379 58.7531 34.5616 58.805 34.6885C58.8576 34.8154 58.9037 34.9443 58.9438 35.0758C58.9832 35.2066 59.0168 35.3395 59.0437 35.4743C59.07 35.6084 59.0904 35.7439 59.1036 35.8807C59.1174 36.0168 59.124 36.1542 59.124 36.291C59.124 36.4284 59.1174 36.5652 59.1036 36.7013C59.0904 36.8381 59.07 36.9736 59.0437 37.1077C59.0168 37.2425 58.9832 37.3753 58.9438 37.5069C58.9037 37.6377 58.8576 37.7666 58.805 37.8935C58.7531 38.0204 58.6945 38.1441 58.6294 38.2651C58.565 38.386 58.4946 38.5038 58.4183 38.6175C58.3421 38.7313 58.2605 38.8417 58.1737 38.9476C58.0863 39.0535 57.9942 39.1548 57.8975 39.2521C57.8009 39.3487 57.6989 39.4408 57.5931 39.5283C57.4872 39.6151 57.3767 39.6966 57.2629 39.7729C57.1492 39.8492 57.0315 39.9195 56.9105 39.984C56.7895 40.0484 56.6658 40.1076 56.5389 40.1595C56.412 40.2121 56.2831 40.2582 56.1523 40.2983C56.0207 40.3377 55.8879 40.3713 55.7531 40.3982C55.619 40.4245 55.4835 40.4449 55.3467 40.4581C55.2106 40.4719 55.0738 40.4785 54.9364 40.4785Z" fill="#E08F34"/>
<path id="Vector_16" d="M52.1465 25.1245H54.938V27.9159H52.1465V25.1245Z" fill="#E08F34"/>
<path id="Vector_17" d="M52.1465 39.0825H54.938V41.8746H52.1465V39.0825Z" fill="#E08F34"/>
<g id="Clip path group_4">
<mask id="mask3_308_4963" style="mask-type:luminance" maskUnits="userSpaceOnUse" x="39" y="19" width="29" height="29">
<g id="2abf1988e3">
<path id="Vector_18" d="M39.4402 19.5256H67.5019V47.4702H39.4402V19.5256Z" fill="white"/>
</g>
</mask>
<g mask="url(#mask3_308_4963)">
<g id="Group_4">
<path id="Vector_19" d="M53.5407 47.4578C53.3125 47.4578 53.0843 47.4525 52.8561 47.4414C52.628 47.4302 52.4004 47.4131 52.1729 47.3907C51.9454 47.3684 51.7192 47.3407 51.4929 47.3072C51.2667 47.2737 51.0418 47.2342 50.8176 47.1902C50.594 47.1454 50.3711 47.0955 50.1495 47.0396C49.9279 46.9843 49.7076 46.9232 49.4892 46.8568C49.2703 46.791 49.0539 46.7193 48.8382 46.6424C48.6232 46.5655 48.4101 46.4833 48.199 46.3958C47.9879 46.3083 47.7795 46.2156 47.573 46.1176C47.3665 46.0203 47.1627 45.9177 46.9608 45.8099C46.7595 45.7021 46.561 45.5896 46.365 45.4719C46.169 45.3548 45.9757 45.2325 45.7863 45.1056C45.5963 44.9787 45.4095 44.8472 45.226 44.7111C45.0426 44.575 44.8624 44.4349 44.6855 44.2896C44.5092 44.1449 44.3363 43.9956 44.1673 43.8424C43.9976 43.6885 43.8326 43.5314 43.6708 43.3696C43.509 43.2085 43.3519 43.0428 43.1987 42.8738C43.0448 42.7041 42.8955 42.5312 42.7508 42.355C42.6062 42.1781 42.4654 41.9979 42.3293 41.8144C42.1932 41.631 42.0617 41.4442 41.9347 41.2548C41.8078 41.0648 41.6855 40.8715 41.5685 40.6755C41.4508 40.4795 41.3383 40.281 41.2305 40.0797C41.1226 39.8785 41.02 39.674 40.9227 39.4675C40.8247 39.261 40.7327 39.0526 40.6452 38.8415C40.5577 38.6304 40.4755 38.4174 40.3986 38.2023C40.3217 37.9873 40.25 37.7703 40.1836 37.552C40.1171 37.333 40.056 37.1127 40.0008 36.8911C39.9455 36.6695 39.8949 36.4473 39.8508 36.223C39.8061 35.9988 39.7673 35.7739 39.7338 35.5477C39.7002 35.3221 39.672 35.0953 39.6496 34.8677C39.6272 34.6409 39.6101 34.4127 39.599 34.1845C39.5878 33.9563 39.5825 33.7282 39.5825 33.5C39.5825 33.2711 39.5878 33.043 39.599 32.8148C39.6101 32.5866 39.6272 32.3591 39.6496 32.1316C39.672 31.904 39.7002 31.6778 39.7338 31.4516C39.7673 31.2261 39.8061 31.0005 39.8508 30.7769C39.8949 30.5527 39.9455 30.3298 40.0008 30.1082C40.056 29.8866 40.1171 29.6663 40.1836 29.448C40.25 29.2296 40.3217 29.0126 40.3986 28.7976C40.4755 28.5826 40.5577 28.3695 40.6452 28.1584C40.7327 27.9474 40.8247 27.7383 40.9227 27.5318C41.02 27.3253 41.1226 27.1214 41.2305 26.9202C41.3383 26.7183 41.4508 26.5198 41.5685 26.3238C41.6855 26.1278 41.8078 25.9352 41.9347 25.7451C42.0617 25.5551 42.1932 25.3683 42.3293 25.1849C42.4654 25.0014 42.6062 24.8212 42.7508 24.645C42.8955 24.4681 43.0448 24.2952 43.1987 24.1262C43.3519 23.9565 43.509 23.7915 43.6708 23.6297C43.8326 23.4686 43.9976 23.3108 44.1673 23.1575C44.3363 23.0043 44.5092 22.8551 44.6855 22.7097C44.8624 22.5651 45.0426 22.4243 45.226 22.2882C45.4095 22.1521 45.5963 22.0206 45.7863 21.8937C45.9757 21.7668 46.169 21.6451 46.365 21.5274C46.561 21.4097 46.7595 21.2972 46.9608 21.1901C47.1627 21.0822 47.3665 20.9796 47.573 20.8817C47.7795 20.7843 47.9879 20.6916 48.199 20.6042C48.4101 20.5167 48.6232 20.4345 48.8382 20.3576C49.0539 20.2806 49.2703 20.2089 49.4892 20.1425C49.7076 20.0761 49.9279 20.0156 50.1495 19.9597C50.3711 19.9045 50.594 19.8545 50.8176 19.8098C51.0418 19.7651 51.2667 19.7263 51.4929 19.6927C51.7192 19.6592 51.9454 19.6309 52.1729 19.6086C52.4004 19.5862 52.628 19.5698 52.8561 19.5586C53.0843 19.5474 53.3125 19.5415 53.5407 19.5415C53.7695 19.5415 53.9977 19.5474 54.2259 19.5586C54.4541 19.5698 54.6816 19.5862 54.9092 19.6086C55.1367 19.6309 55.3629 19.6592 55.5891 19.6927C55.8153 19.7263 56.0402 19.7651 56.2645 19.8098C56.4881 19.8545 56.711 19.9045 56.9326 19.9597C57.1542 20.0156 57.3745 20.0761 57.5928 20.1425C57.8118 20.2089 58.0281 20.2806 58.2432 20.3576C58.4589 20.4345 58.6719 20.5167 58.883 20.6042C59.0935 20.6916 59.3026 20.7843 59.5091 20.8817C59.7155 20.9796 59.9194 21.0822 60.1213 21.1901C60.3225 21.2972 60.5211 21.4097 60.7171 21.5274C60.913 21.6451 61.1064 21.7668 61.2958 21.8937C61.4858 22.0206 61.6726 22.1521 61.856 22.2882C62.0395 22.4243 62.2197 22.5651 62.3959 22.7097C62.5728 22.8551 62.7458 23.0043 62.9148 23.1575C63.0844 23.3108 63.2495 23.4686 63.4112 23.6297C63.573 23.7915 63.7302 23.9565 63.8834 24.1262C64.0373 24.2952 64.1859 24.4681 64.3312 24.645C64.4759 24.8212 64.6166 25.0014 64.7527 25.1849C64.8889 25.3683 65.0204 25.5551 65.1473 25.7451C65.2742 25.9352 65.3965 26.1278 65.5136 26.3238C65.6313 26.5198 65.7437 26.7183 65.8516 26.9202C65.9588 27.1214 66.062 27.3253 66.1594 27.5318C66.2573 27.7383 66.3494 27.9474 66.4369 28.1584C66.5243 28.3695 66.6065 28.5826 66.6835 28.7976C66.7604 29.0126 66.8321 29.2296 66.8985 29.448C66.9649 29.6663 67.0261 29.8866 67.0813 30.1082C67.1365 30.3298 67.1865 30.5527 67.2312 30.7769C67.276 31.0005 67.3148 31.2261 67.3483 31.4516C67.3818 31.6778 67.4101 31.904 67.4325 32.1316C67.4548 32.3591 67.4713 32.5866 67.4831 32.8148C67.4943 33.043 67.4995 33.2711 67.4995 33.5C67.4995 33.7282 67.4936 33.9563 67.4818 34.1845C67.4706 34.4127 67.4535 34.6402 67.4311 34.8677C67.4081 35.0946 67.3805 35.3215 67.3463 35.547C67.3128 35.7732 67.2733 35.9981 67.2286 36.2217C67.1839 36.4459 67.1339 36.6689 67.078 36.8898C67.0228 37.1114 66.9616 37.3317 66.8952 37.55C66.8288 37.7683 66.7571 37.9853 66.6795 38.2004C66.6026 38.4154 66.5204 38.6278 66.4329 38.8389C66.3455 39.05 66.2527 39.2584 66.1554 39.4649C66.0574 39.6714 65.9548 39.8752 65.847 40.0764C65.7391 40.2783 65.6267 40.4769 65.509 40.6722C65.3913 40.8682 65.2696 41.0608 65.1427 41.2509C65.0158 41.4409 64.8843 41.6277 64.7481 41.8111C64.612 41.994 64.4713 42.1741 64.3266 42.351C64.1813 42.5273 64.0327 42.7002 63.8788 42.8692C63.7256 43.0382 63.5684 43.2039 63.4066 43.365C63.2455 43.5268 63.0798 43.6839 62.9108 43.8378C62.7418 43.991 62.5689 44.1403 62.392 44.285C62.2157 44.4296 62.0356 44.5704 61.8521 44.7065C61.6686 44.8426 61.4825 44.9741 61.2925 45.101C61.1024 45.2279 60.9097 45.3502 60.7138 45.4673C60.5178 45.585 60.3192 45.6974 60.118 45.8053C59.9168 45.9131 59.7129 46.0157 59.5064 46.1137C59.2999 46.211 59.0915 46.3037 58.8804 46.3912C58.6693 46.4787 58.4562 46.5615 58.2412 46.6384C58.0262 46.7154 57.8098 46.7871 57.5915 46.8535C57.3725 46.9199 57.1529 46.981 56.9313 47.0369C56.7097 47.0922 56.4874 47.1428 56.2632 47.1875C56.0389 47.2322 55.814 47.271 55.5885 47.3052C55.3622 47.3388 55.136 47.367 54.9085 47.3894C54.6816 47.4118 54.4541 47.4289 54.2259 47.4407C53.9977 47.4519 53.7695 47.4578 53.5407 47.4578ZM53.5407 22.3329C53.3585 22.3329 53.1757 22.3375 52.9929 22.3467C52.8108 22.356 52.6286 22.3691 52.4465 22.3869C52.2643 22.4046 52.0835 22.427 51.9026 22.4539C51.7218 22.4809 51.5416 22.5125 51.3627 22.548C51.1832 22.5835 51.005 22.6236 50.8274 22.6676C50.6506 22.7124 50.4743 22.761 50.2994 22.8143C50.1245 22.8669 49.9509 22.9248 49.7792 22.9859C49.6069 23.0477 49.4366 23.1135 49.2676 23.1832C49.0986 23.2529 48.9316 23.3272 48.7665 23.4055C48.6015 23.4837 48.4384 23.5659 48.2773 23.652C48.1155 23.7382 47.957 23.8283 47.7999 23.9217C47.6434 24.0157 47.4888 24.1137 47.3369 24.2149C47.185 24.3169 47.0357 24.4221 46.8891 24.5306C46.7424 24.6397 46.5978 24.7522 46.4571 24.8679C46.3157 24.9836 46.1769 25.1033 46.0421 25.2256C45.9066 25.3486 45.7738 25.4749 45.6449 25.6037C45.5154 25.7333 45.3898 25.8655 45.2668 26.0009C45.1445 26.1364 45.0248 26.2745 44.9091 26.4159C44.7927 26.5572 44.6809 26.7012 44.5717 26.8479C44.4626 26.9945 44.3573 27.1438 44.2561 27.2957C44.1548 27.4483 44.0568 27.6021 43.9628 27.7593C43.8687 27.9158 43.7787 28.0749 43.6925 28.236C43.6064 28.3971 43.5242 28.5602 43.4466 28.7253C43.3683 28.891 43.294 29.058 43.2243 29.2264C43.1539 29.3954 43.0882 29.5657 43.027 29.738C42.9652 29.9102 42.908 30.0832 42.8547 30.2581C42.8021 30.433 42.7535 30.6093 42.7087 30.7868C42.6647 30.9637 42.6246 31.1419 42.5884 31.3214C42.5529 31.5003 42.522 31.6805 42.495 31.8613C42.4681 32.0421 42.4457 32.2236 42.4279 32.4051C42.4102 32.5873 42.3964 32.7694 42.3878 32.9522C42.3786 33.1344 42.374 33.3172 42.374 33.5C42.374 33.6828 42.3786 33.8649 42.3878 34.0477C42.3964 34.2305 42.4102 34.4127 42.4279 34.5942C42.4457 34.7763 42.4681 34.9578 42.495 35.138C42.522 35.3188 42.5529 35.499 42.5884 35.6785C42.6246 35.8574 42.6647 36.0356 42.7087 36.2132C42.7535 36.39 42.8021 36.5663 42.8547 36.7412C42.908 36.9161 42.9652 37.0897 43.027 37.262C43.0882 37.4336 43.1539 37.6039 43.2243 37.7729C43.294 37.9419 43.3683 38.109 43.4466 38.274C43.5242 38.4391 43.6064 38.6028 43.6925 38.7639C43.7787 38.925 43.8687 39.0842 43.9628 39.2407C44.0568 39.3972 44.1548 39.5517 44.2561 39.7036C44.3573 39.8555 44.4626 40.0048 44.5717 40.1521C44.6809 40.2987 44.7927 40.4427 44.9091 40.5841C45.0248 40.7248 45.1445 40.8636 45.2668 40.999C45.3898 41.1345 45.5154 41.2667 45.6449 41.3956C45.7738 41.5251 45.9066 41.6507 46.0421 41.7737C46.1769 41.8966 46.3157 42.0157 46.4571 42.1314C46.5978 42.2478 46.7424 42.3602 46.8891 42.4687C47.0357 42.5779 47.185 42.6831 47.3369 42.7844C47.4888 42.8863 47.6434 42.9836 47.7999 43.0776C47.957 43.1717 48.1155 43.2618 48.2773 43.3479C48.4384 43.4341 48.6015 43.5163 48.7665 43.5945C48.9316 43.6728 49.0986 43.7464 49.2676 43.8161C49.4366 43.8865 49.6069 43.9522 49.7792 44.0134C49.9509 44.0752 50.1245 44.1324 50.2994 44.1857C50.4743 44.2389 50.6506 44.2876 50.8274 44.3317C51.005 44.3764 51.1832 44.4165 51.3627 44.452C51.5416 44.4875 51.7218 44.5184 51.9026 44.5454C52.0835 44.5723 52.2643 44.5947 52.4465 44.6124C52.6286 44.6309 52.8108 44.644 52.9929 44.6532C53.1757 44.6618 53.3585 44.6664 53.5407 44.6664C53.7235 44.6664 53.9063 44.6618 54.0891 44.6532C54.2713 44.644 54.4534 44.6309 54.6356 44.6124C54.8178 44.5947 54.9986 44.5723 55.1794 44.5454C55.3603 44.5184 55.5405 44.4875 55.7193 44.452C55.8988 44.4165 56.0771 44.3764 56.2546 44.3317C56.4315 44.2876 56.6077 44.2389 56.7827 44.1857C56.9576 44.1324 57.1312 44.0752 57.3028 44.0134C57.4751 43.9522 57.6454 43.8865 57.8144 43.8161C57.9834 43.7464 58.1505 43.6721 58.3155 43.5945C58.4806 43.5163 58.6437 43.4341 58.8048 43.3479C58.9659 43.2618 59.125 43.1717 59.2822 43.0776C59.4387 42.9836 59.5932 42.8863 59.7451 42.7844C59.897 42.6831 60.0463 42.5779 60.193 42.4687C60.3396 42.3602 60.4836 42.2478 60.625 42.1314C60.7664 42.0157 60.9045 41.8966 61.0399 41.7737C61.1754 41.6507 61.3082 41.5251 61.4371 41.3956C61.5667 41.2667 61.6923 41.1345 61.8153 40.999C61.9376 40.8636 62.0573 40.7248 62.173 40.5841C62.2887 40.4427 62.4012 40.2987 62.5103 40.1521C62.6195 40.0048 62.7241 39.8555 62.826 39.7036C62.9273 39.5517 63.0252 39.3972 63.1193 39.2407C63.2133 39.0842 63.3034 38.925 63.3895 38.7639C63.4757 38.6028 63.5579 38.4391 63.6355 38.274C63.7137 38.109 63.7881 37.9419 63.8578 37.7729C63.9275 37.6039 63.9932 37.4336 64.055 37.262C64.1168 37.0897 64.1741 36.9161 64.2273 36.7412C64.2799 36.5663 64.3286 36.39 64.3733 36.2132C64.4174 36.0356 64.4575 35.8574 64.493 35.6785C64.5292 35.499 64.5601 35.3188 64.587 35.138C64.614 34.9578 64.6364 34.7763 64.6541 34.5942C64.6719 34.4127 64.6857 34.2305 64.6942 34.0477C64.7034 33.8649 64.708 33.6828 64.708 33.5C64.7074 33.3172 64.7028 33.1344 64.6936 32.9522C64.6844 32.7694 64.6712 32.5873 64.6528 32.4058C64.635 32.2236 64.612 32.0428 64.5851 31.8619C64.5581 31.6811 64.5272 31.5016 64.491 31.3221C64.4555 31.1432 64.4154 30.965 64.3707 30.7875C64.326 30.6106 64.2773 30.4343 64.224 30.2594C64.1708 30.0852 64.1136 29.9116 64.0517 29.7393C63.9906 29.5676 63.9248 29.3973 63.8545 29.2283C63.7848 29.06 63.7105 28.893 63.6322 28.7279C63.5539 28.5629 63.4717 28.3998 63.3856 28.2387C63.2995 28.0776 63.2094 27.9184 63.1153 27.7619C63.0213 27.6054 62.9233 27.4509 62.822 27.299C62.7208 27.1471 62.6156 26.9978 62.5064 26.8512C62.3979 26.7045 62.2854 26.5605 62.169 26.4191C62.0533 26.2778 61.9343 26.1397 61.8113 26.0042C61.6883 25.8687 61.5627 25.7366 61.4332 25.6077C61.3043 25.4781 61.1721 25.3525 61.0367 25.2296C60.9012 25.1073 60.7631 24.9876 60.6217 24.8719C60.4803 24.7561 60.3363 24.6437 60.1897 24.5345C60.043 24.426 59.8938 24.3208 59.7418 24.2189C59.5899 24.1176 59.4361 24.0196 59.2789 23.9256C59.1224 23.8316 58.9639 23.7415 58.8028 23.6553C58.6417 23.5692 58.4786 23.487 58.3135 23.4087C58.1478 23.3305 57.9815 23.2568 57.8125 23.1865C57.6435 23.1168 57.4731 23.051 57.3015 22.9892C57.1292 22.9274 56.9563 22.8702 56.7813 22.8169C56.6064 22.7637 56.4302 22.715 56.2533 22.6703C56.0757 22.6256 55.8975 22.5854 55.7187 22.5499C55.5398 22.5138 55.3596 22.4829 55.1788 22.4559C54.9979 22.4289 54.8171 22.4059 54.6349 22.3882C54.4534 22.3698 54.2713 22.3566 54.0885 22.3474C53.9063 22.3382 53.7235 22.3336 53.5407 22.3329Z" fill="#E08F34"/>
</g>
</g>
</g>
<path id="Vector_20" d="M24.2297 33.4995H36.7925V36.2909H24.2297V33.4995Z" fill="#E08F34"/>
<path id="Vector_21" d="M18.644 33.4995H21.4355V36.2909H18.644V33.4995Z" fill="#E08F34"/>
<path id="Vector_22" d="M27.0188 40.4785H36.79V43.2699H27.0188V40.4785Z" fill="#E08F34"/>
<path id="Vector_23" d="M21.4368 40.4785H24.2289V43.2699H21.4368V40.4785Z" fill="#E08F34"/>
</g>
</svg>
