<svg width="74" height="67" viewBox="0 0 74 67" fill="none" xmlns="http://www.w3.org/2000/svg">
<g id="Group 2611326">
<path id="Vector" d="M73.7331 58.16C72.5417 56.7171 70.6305 56.4194 68.1238 56.4194H42.121C40.9527 56.4194 40.722 55.9253 40.722 55.1292C40.722 54.2454 41.7258 54.0071 41.9684 53.959H67.1382C68.1951 53.959 69.2158 53.1578 69.4628 52.1352L73.6362 34.9307C73.77 34.3653 73.6568 33.7924 73.3172 33.3633C72.9808 32.9318 72.4517 32.6872 71.87 32.6872H37.8226L37.1602 29.9816C36.9107 28.959 35.8882 28.1584 34.8381 28.1584H28.225C27.7353 28.1584 27.3381 28.5556 27.3381 29.0447C27.3381 29.5338 27.7353 29.9309 28.225 29.9309H34.8381C35.0782 29.9309 35.3828 30.1686 35.4385 30.4019L40.8283 52.4704C39.9233 52.8626 38.9514 53.6706 38.9514 55.1292C38.9514 57.0449 40.1403 58.1901 42.1229 58.1901H68.1282C70.5317 58.1901 71.7224 58.4965 72.3685 59.2864C72.5417 59.4985 72.7981 59.6092 73.0546 59.6092C73.2528 59.6092 73.4536 59.5448 73.6156 59.4084C73.9889 59.0969 74.0446 58.5384 73.7331 58.16ZM61.4344 40.7404L60.7671 45.9102H49.4315L48.7223 40.7404H61.4344ZM48.4827 38.9698L47.8729 34.4804L62.2399 34.5035L61.6627 38.9723H48.4827V38.9698ZM69.1489 45.9127H62.5539L63.2212 40.7422H70.3972L69.1489 45.9127ZM60.5388 47.6833L59.959 52.1884H50.2827L49.6691 47.6833H60.5388ZM47.6397 45.9127H41.0497L39.787 40.7422H46.9361L47.6397 45.9127ZM47.8798 47.6833L48.4984 52.1884H42.5845L41.4812 47.6833H47.8798ZM67.1382 52.1884H61.7484L62.3275 47.6833H68.7173L67.7386 51.7174C67.6854 51.9532 67.3783 52.1884 67.1382 52.1884ZM71.9119 34.5148L70.8293 38.9698H63.4495L64.0217 34.5035L71.9119 34.5148ZM46.0818 34.4779L46.6934 38.9672H39.3554L38.2541 34.4641L46.0818 34.4779Z" fill="#E08F34"/>
<path id="Vector_2" d="M42.5649 58.9355C40.3397 58.9355 38.5322 60.7424 38.5322 62.9652C38.5322 65.188 40.3397 66.9999 42.5649 66.9999C44.7851 66.9999 46.595 65.188 46.595 62.9652C46.595 60.7424 44.7851 58.9355 42.5649 58.9355ZM42.5649 64.3987C41.7731 64.3987 41.1314 63.757 41.1314 62.9652C41.1314 62.1759 41.7731 61.5317 42.5649 61.5317C43.3542 61.5317 43.9983 62.1759 43.9983 62.9652C43.9983 63.757 43.3542 64.3987 42.5649 64.3987Z" fill="#E08F34"/>
<path id="Vector_3" d="M67.7656 58.9355C65.5423 58.9355 63.7349 60.7424 63.7349 62.9652C63.7349 65.188 65.5423 66.9999 67.7656 66.9999C69.9909 66.9999 71.7983 65.188 71.7983 62.9652C71.7983 60.7424 69.9909 58.9355 67.7656 58.9355ZM67.7656 64.3987C66.9758 64.3987 66.3366 63.757 66.3366 62.9652C66.3366 62.1759 66.9758 61.5317 67.7656 61.5317C68.5574 61.5317 69.1991 62.1759 69.1991 62.9652C69.1991 63.757 68.5574 64.3987 67.7656 64.3987Z" fill="#E08F34"/>
<path id="Vector_4" d="M32.8651 42.0354C33.922 41.0035 34.6238 39.9352 35.1735 38.8826L33.5412 32.198H28.2208C27.7173 32.198 27.2489 32.0685 26.8286 31.8608C26.9374 32.1148 27.0807 32.3806 27.272 32.6595C30.5498 37.3478 28.5691 46.2453 32.8651 42.0354Z" fill="#E08F34"/>
<path id="Vector_5" d="M36.7139 55.5238C33.2841 56.4607 29.6186 56.7403 25.8861 56.2093C23.8986 53.8064 22.4257 51.8306 26.7236 48.8023C31.922 45.1372 27.0725 42.7712 23.1018 42.1964C19.1367 41.6335 17.1929 33.1344 14.9677 29.1392C12.7425 25.1464 10.9119 31.766 9.34897 34.0026C8.26888 35.5561 4.99359 34.3947 3.07295 33.5297C2.68957 30.9373 2.68019 28.2435 3.09859 25.5204C4.99109 13.1993 15.0302 4.13731 26.8874 2.89582C26.3177 5.66276 25.918 10.2403 28.9882 11.8164C33.503 14.1337 31.4536 13.5245 25.0362 14.7153C18.6238 15.9043 21.4332 21.2086 26.6917 24.0431C27.9356 24.7148 28.446 25.3146 28.5567 25.8963H34.8352C36.9197 25.8963 38.8635 27.4223 39.3569 29.4487L39.5971 30.4276H43.2539C45.2596 27.9671 45.7186 22.2862 40.1468 23.7266C33.383 25.4785 40.0655 16.3358 43.7223 16.3014C46.8062 16.2714 48.7193 14.3257 49.7907 11.7914C54.2205 16.7999 56.7503 23.4127 56.5307 30.4276H59.2457C59.6609 15.731 49.0752 2.63689 34.1772 0.347166C18.0378 -2.13644 2.89283 8.97319 0.411191 25.107C-2.06982 41.2407 9.04001 56.3851 25.175 58.8662C29.4266 59.5191 33.5981 59.2052 37.4988 58.1319C37.0398 57.3983 36.7721 56.5139 36.7139 55.5238Z" fill="#E08F34"/>
<path id="Vector_6" d="M13.3156 20.5003C15.3425 18.7829 16.988 18.6328 17.893 15.3874C18.7979 12.147 13.9297 13.8413 11.7989 15.4036C9.92269 16.7815 9.33418 20.0225 10.1441 21.7718C10.9634 23.5193 11.2936 22.2178 13.3156 20.5003Z" fill="#E08F34"/>
</g>
</svg>
