<svg width="38" height="39" viewBox="0 0 38 39" fill="none" xmlns="http://www.w3.org/2000/svg">
<g clip-path="url(#clip0_338_622)">
<path d="M29.9944 14.9941L20.176 26.417V37.6467H20.3131V26.4676L30.0983 15.0833L29.9944 14.9941Z" fill="#E08F34"/>
<path d="M30.684 20.1221H28.7001L20.884 27.9382V37.6468H21.0207V27.9946L28.7575 20.2592H30.684V20.1221Z" fill="#E08F34"/>
<path d="M28.8661 22.084H27.7751L21.6719 28.1872V37.6463H21.7749V28.2298L27.8177 22.1866H28.8661V22.084Z" fill="#E08F34"/>
<path d="M27.5325 25.3555H25.7869L22.5063 28.636V37.647H22.5749V28.6647L25.8156 25.424H27.5325V25.3555Z" fill="#E08F34"/>
<path d="M24.0669 29.3662H23.3173L22.5171 30.1252L22.5637 30.1745L23.3433 29.4348H24.0669V29.3662Z" fill="#E08F34"/>
<path d="M28.9072 18.3584L28.3382 18.6805L20.1946 27.6338L20.2958 27.7256L28.4327 18.7818L28.974 18.4776L28.9072 18.3584Z" fill="#E08F34"/>
<path d="M27.2627 14.6436L26.8505 16.7485L19.3879 25.9458L19.6017 26.1188L27.1068 16.869L27.5315 14.696L27.2627 14.6436Z" fill="#E08F34"/>
<path d="M20.2346 8.26465L19.9877 8.38383L20.9062 10.2692V15.2805L19.356 17.018V17.07L19.3864 37.6463H19.6602L19.6302 17.122L21.1799 15.3845V10.206L20.2346 8.26465Z" fill="#E08F34"/>
<path d="M23.3576 11.8574H23.0834V15.409L19.3853 21.0011L19.6124 21.152L23.3576 15.4915V11.8574Z" fill="#E08F34"/>
<path d="M26.0145 10.7158L25.2255 15.5148L19.3826 23.6445L19.6043 23.8049L25.4858 15.6214L26.286 10.7611L26.0145 10.7158Z" fill="#E08F34"/>
<path d="M27.2184 29.4C27.2184 29.5035 27.2081 29.6061 27.1879 29.7078C27.1677 29.809 27.1377 29.9076 27.0983 30.003C27.0584 30.0989 27.01 30.1894 26.9527 30.2755C26.8953 30.3615 26.8299 30.4412 26.7564 30.5143C26.6834 30.5877 26.6037 30.6532 26.5176 30.7105C26.4316 30.7679 26.3411 30.8162 26.2452 30.8561C26.1498 30.8955 26.0512 30.9256 25.95 30.9457C25.8483 30.9659 25.7457 30.9762 25.6422 30.9762C25.5387 30.9762 25.4365 30.9659 25.3348 30.9457C25.2336 30.9256 25.135 30.8955 25.0391 30.8561C24.9437 30.8162 24.8527 30.7679 24.7667 30.7105C24.6807 30.6532 24.6014 30.5877 24.5279 30.5143C24.4549 30.4412 24.3894 30.3615 24.3321 30.2755C24.2747 30.1894 24.2259 30.0989 24.1865 30.003C24.1471 29.9076 24.117 29.809 24.0969 29.7078C24.0767 29.6061 24.0664 29.5035 24.0664 29.4C24.0664 29.2965 24.0767 29.1943 24.0969 29.0926C24.117 28.9914 24.1471 28.8928 24.1865 28.7969C24.2259 28.7015 24.2747 28.6105 24.3321 28.5245C24.3894 28.4385 24.4549 28.3592 24.5279 28.2857C24.6014 28.2127 24.6807 28.1473 24.7667 28.0899C24.8527 28.0326 24.9437 27.9837 25.0391 27.9443C25.135 27.9049 25.2336 27.8748 25.3348 27.8547C25.4365 27.8345 25.5387 27.8242 25.6422 27.8242C25.7457 27.8242 25.8483 27.8345 25.95 27.8547C26.0512 27.8748 26.1498 27.9049 26.2452 27.9443C26.3411 27.9837 26.4316 28.0326 26.5176 28.0899C26.6037 28.1473 26.6834 28.2127 26.7564 28.2857C26.8299 28.3592 26.8953 28.4385 26.9527 28.5245C27.01 28.6105 27.0584 28.7015 27.0983 28.7969C27.1377 28.8928 27.1677 28.9914 27.1879 29.0926C27.2081 29.1943 27.2184 29.2965 27.2184 29.4Z" fill="#E08F34"/>
<path d="M31.9939 25.8696C31.9939 25.9471 31.9903 26.0246 31.9827 26.1021C31.975 26.1792 31.9634 26.2558 31.9482 26.332C31.9334 26.4082 31.9146 26.4834 31.8917 26.5578C31.8693 26.6322 31.8433 26.7052 31.8133 26.7769C31.7837 26.8486 31.7506 26.9185 31.7138 26.987C31.6775 27.0556 31.6377 27.1219 31.5942 27.1864C31.5512 27.2514 31.505 27.3136 31.4558 27.3737C31.4065 27.4333 31.3545 27.4911 31.2994 27.5457C31.2447 27.6008 31.1874 27.6528 31.1273 27.7021C31.0673 27.7514 31.005 27.7975 30.9405 27.8405C30.876 27.884 30.8092 27.9239 30.7407 27.9602C30.6721 27.9969 30.6022 28.0301 30.5306 28.0596C30.4589 28.0897 30.3858 28.1156 30.3115 28.138C30.2371 28.1604 30.1618 28.1793 30.0857 28.1945C30.0095 28.2097 29.9329 28.2214 29.8558 28.2285C29.7783 28.2362 29.7008 28.2402 29.6233 28.2402C29.5458 28.2402 29.4683 28.2362 29.3907 28.2285C29.3137 28.2214 29.2371 28.2097 29.1609 28.1945C29.0847 28.1793 29.0095 28.1604 28.9351 28.138C28.8607 28.1156 28.7877 28.0897 28.716 28.0596C28.6443 28.0301 28.5744 27.9969 28.5059 27.9602C28.4373 27.9239 28.371 27.884 28.3065 27.8405C28.2415 27.7975 28.1792 27.7514 28.1192 27.7021C28.0596 27.6528 28.0018 27.6008 27.9471 27.5457C27.892 27.4911 27.8401 27.4333 27.7908 27.3737C27.7415 27.3136 27.6954 27.2514 27.6523 27.1864C27.6089 27.1219 27.569 27.0556 27.5327 26.987C27.496 26.9185 27.4628 26.8486 27.4332 26.7769C27.4032 26.7052 27.3772 26.6322 27.3548 26.5578C27.3324 26.4834 27.3132 26.4082 27.2984 26.332C27.2832 26.2558 27.2715 26.1792 27.2643 26.1021C27.2567 26.0246 27.2527 25.9471 27.2527 25.8696C27.2527 25.7921 27.2567 25.7146 27.2643 25.6371C27.2715 25.56 27.2832 25.4834 27.2984 25.4072C27.3132 25.3311 27.3324 25.2558 27.3548 25.1814C27.3772 25.107 27.4032 25.034 27.4332 24.9623C27.4628 24.8906 27.496 24.8207 27.5327 24.7522C27.569 24.6836 27.6089 24.6169 27.6523 24.5524C27.6954 24.4879 27.7415 24.4256 27.7908 24.3655C27.8401 24.3055 27.892 24.2481 27.9471 24.1935C28.0018 24.1384 28.0596 24.0864 28.1192 24.0371C28.1792 23.9878 28.2415 23.9417 28.3065 23.8987C28.371 23.8552 28.4373 23.8153 28.5059 23.779C28.5744 23.7423 28.6443 23.7092 28.716 23.6796C28.7877 23.6496 28.8607 23.6236 28.9351 23.6012C29.0095 23.5783 29.0847 23.5595 29.1609 23.5447C29.2371 23.5295 29.3137 23.5178 29.3907 23.5102C29.4683 23.5026 29.5458 23.499 29.6233 23.499C29.7008 23.499 29.7783 23.5026 29.8558 23.5102C29.9329 23.5178 30.0095 23.5295 30.0857 23.5447C30.1618 23.5595 30.2371 23.5783 30.3115 23.6012C30.3858 23.6236 30.4589 23.6496 30.5306 23.6796C30.6022 23.7092 30.6721 23.7423 30.7407 23.779C30.8092 23.8153 30.876 23.8552 30.9405 23.8987C31.005 23.9417 31.0673 23.9878 31.1273 24.0371C31.1874 24.0864 31.2447 24.1384 31.2994 24.1935C31.3545 24.2481 31.4065 24.3055 31.4558 24.3655C31.505 24.4256 31.5512 24.4879 31.5942 24.5524C31.6377 24.6169 31.6775 24.6836 31.7138 24.7522C31.7506 24.8207 31.7837 24.8906 31.8133 24.9623C31.8433 25.034 31.8693 25.107 31.8917 25.1814C31.9146 25.2558 31.9334 25.3311 31.9482 25.4072C31.9634 25.4834 31.975 25.56 31.9827 25.6371C31.9903 25.7146 31.9939 25.7921 31.9939 25.8696Z" fill="#E08F34"/>
<path d="M36.7873 19.9979C36.7873 20.0978 36.7824 20.1973 36.773 20.2967C36.7631 20.3962 36.7483 20.4952 36.7291 20.5929C36.7093 20.691 36.6851 20.7878 36.656 20.8837C36.6269 20.9791 36.5933 21.0732 36.5552 21.1655C36.5171 21.2578 36.4741 21.3483 36.4271 21.4361C36.38 21.5244 36.3285 21.61 36.2734 21.6933C36.2178 21.7762 36.1583 21.8564 36.0946 21.9339C36.0315 22.0109 35.9643 22.0849 35.8939 22.1557C35.8231 22.2265 35.7492 22.2932 35.6717 22.3568C35.5946 22.42 35.5144 22.4796 35.4311 22.5352C35.3482 22.5907 35.2626 22.6418 35.1744 22.6888C35.0861 22.7363 34.996 22.7789 34.9037 22.817C34.8114 22.8555 34.7174 22.8891 34.6219 22.9178C34.526 22.9469 34.4293 22.9711 34.3311 22.9908C34.233 23.0101 34.1344 23.0249 34.035 23.0347C33.9355 23.0446 33.8356 23.0495 33.7357 23.0495C33.6358 23.0495 33.5363 23.0446 33.4368 23.0347C33.3374 23.0249 33.2384 23.0101 33.1407 22.9908C33.0426 22.9711 32.9458 22.9469 32.8499 22.9178C32.7545 22.8891 32.6604 22.8555 32.5681 22.817C32.4758 22.7789 32.3853 22.7363 32.2975 22.6888C32.2092 22.6418 32.1236 22.5907 32.0403 22.5352C31.9574 22.4796 31.8772 22.42 31.7997 22.3568C31.7226 22.2932 31.6487 22.2265 31.5779 22.1557C31.5071 22.0849 31.4404 22.0109 31.3768 21.9339C31.3136 21.8564 31.254 21.7762 31.1984 21.6933C31.1429 21.61 31.0918 21.5244 31.0448 21.4361C30.9973 21.3483 30.9547 21.2578 30.9166 21.1655C30.8781 21.0732 30.8445 20.9791 30.8158 20.8837C30.7867 20.7878 30.7625 20.691 30.7428 20.5929C30.7235 20.4952 30.7087 20.3962 30.6989 20.2967C30.689 20.1973 30.6841 20.0978 30.6841 19.9979C30.6841 19.898 30.689 19.7981 30.6989 19.6986C30.7087 19.5991 30.7235 19.5006 30.7428 19.4025C30.7625 19.3043 30.7867 19.2076 30.8158 19.1117C30.8445 19.0162 30.8781 18.9222 30.9166 18.8299C30.9547 18.7376 30.9973 18.6475 31.0448 18.5592C31.0918 18.471 31.1429 18.3854 31.1984 18.3025C31.254 18.2192 31.3136 18.139 31.3768 18.0619C31.4404 17.9844 31.5071 17.9105 31.5779 17.8397C31.6487 17.7693 31.7226 17.7021 31.7997 17.639C31.8772 17.5753 31.9574 17.5157 32.0403 17.4602C32.1236 17.4051 32.2092 17.3536 32.2975 17.3065C32.3853 17.2595 32.4758 17.2165 32.5681 17.1784C32.6604 17.1403 32.7545 17.1067 32.8499 17.0776C32.9458 17.0484 33.0426 17.0242 33.1407 17.0045C33.2384 16.9853 33.3374 16.9705 33.4368 16.9606C33.5363 16.9512 33.6358 16.9463 33.7357 16.9463C33.8356 16.9463 33.9355 16.9512 34.035 16.9606C34.1344 16.9705 34.233 16.9853 34.3311 17.0045C34.4293 17.0242 34.526 17.0484 34.6215 17.0776C34.7174 17.1067 34.8114 17.1403 34.9037 17.1784C34.996 17.2165 35.0861 17.2595 35.1744 17.3065C35.2626 17.3536 35.3482 17.4051 35.4311 17.4602C35.5144 17.5157 35.5946 17.5753 35.6717 17.639C35.7492 17.7021 35.8231 17.7693 35.8939 17.8397C35.9643 17.9105 36.0315 17.9844 36.0946 18.0619C36.1583 18.139 36.2178 18.2192 36.2734 18.3025C36.3285 18.3854 36.38 18.471 36.4271 18.5592C36.4741 18.6475 36.5171 18.7376 36.5552 18.8299C36.5933 18.9222 36.6269 19.0162 36.656 19.1117C36.6851 19.2076 36.7093 19.3043 36.7291 19.4025C36.7483 19.5006 36.7631 19.5991 36.773 19.6986C36.7824 19.7981 36.7873 19.898 36.7873 19.9979Z" fill="#E08F34"/>
<path d="M34.9106 12.9587C34.9106 13.0541 34.9061 13.1495 34.8967 13.2445C34.8873 13.3395 34.8734 13.434 34.8546 13.5277C34.8362 13.6213 34.8129 13.7141 34.7851 13.8055C34.7573 13.8969 34.7251 13.9865 34.6888 14.0747C34.652 14.163 34.6113 14.2495 34.5665 14.3337C34.5212 14.4179 34.4724 14.4999 34.4191 14.5792C34.3662 14.6585 34.3093 14.7356 34.2484 14.8091C34.1879 14.883 34.1238 14.9538 34.0562 15.0214C33.9889 15.0891 33.9182 15.1532 33.8442 15.2137C33.7703 15.2741 33.6937 15.331 33.6144 15.3844C33.5346 15.4372 33.4531 15.4865 33.3689 15.5313C33.2842 15.5766 33.1982 15.6173 33.1099 15.6536C33.0216 15.6904 32.9316 15.7226 32.8402 15.7504C32.7488 15.7777 32.6565 15.801 32.5624 15.8199C32.4687 15.8382 32.3747 15.8526 32.2792 15.862C32.1842 15.8714 32.0888 15.8759 31.9934 15.8759C31.8979 15.8759 31.8025 15.8714 31.7075 15.862C31.6125 15.8526 31.518 15.8382 31.4244 15.8199C31.3307 15.801 31.238 15.7777 31.1466 15.7504C31.0552 15.7226 30.9651 15.6904 30.8769 15.6536C30.7886 15.6173 30.7026 15.5766 30.6183 15.5313C30.5341 15.4865 30.4521 15.4372 30.3728 15.3844C30.2931 15.331 30.2164 15.2741 30.1425 15.2137C30.069 15.1532 29.9982 15.0891 29.9306 15.0214C29.8629 14.9538 29.7989 14.883 29.7384 14.8091C29.6774 14.7356 29.621 14.6585 29.5677 14.5792C29.5148 14.4999 29.4655 14.4179 29.4207 14.3337C29.3755 14.2495 29.3347 14.163 29.298 14.0747C29.2617 13.9865 29.2294 13.8969 29.2016 13.8055C29.1738 13.7141 29.1505 13.6213 29.1322 13.5277C29.1134 13.434 29.0995 13.3395 29.0901 13.2445C29.0807 13.1495 29.0762 13.0541 29.0762 12.9587C29.0762 12.8628 29.0807 12.7678 29.0901 12.6724C29.0995 12.5774 29.1134 12.4828 29.1322 12.3892C29.1505 12.2956 29.1738 12.2033 29.2016 12.1114C29.2294 12.02 29.2617 11.9304 29.298 11.8421C29.3347 11.7539 29.3755 11.6674 29.4207 11.5832C29.4655 11.4989 29.5148 11.417 29.5677 11.3376C29.621 11.2583 29.6774 11.1817 29.7384 11.1078C29.7989 11.0339 29.8629 10.9631 29.9306 10.8954C29.9982 10.8282 30.069 10.7642 30.1425 10.7032C30.2164 10.6427 30.2931 10.5858 30.3728 10.533C30.4521 10.4796 30.5341 10.4308 30.6183 10.3856C30.7026 10.3408 30.7886 10.3 30.8769 10.2632C30.9651 10.2265 31.0552 10.1947 31.1466 10.1669C31.238 10.1391 31.3307 10.1158 31.4244 10.097C31.518 10.0787 31.6125 10.0648 31.7075 10.0554C31.8025 10.0459 31.8979 10.041 31.9934 10.041C32.0888 10.041 32.1842 10.0459 32.2792 10.0554C32.3747 10.0648 32.4687 10.0787 32.5624 10.097C32.6565 10.1158 32.7488 10.1391 32.8402 10.1669C32.9316 10.1947 33.0216 10.2265 33.1099 10.2632C33.1982 10.3 33.2842 10.3408 33.3689 10.3856C33.4531 10.4308 33.5346 10.4796 33.6144 10.533C33.6937 10.5858 33.7703 10.6427 33.8442 10.7032C33.9182 10.7642 33.9889 10.8282 34.0562 10.8954C34.1238 10.9631 34.1879 11.0339 34.2484 11.1078C34.3093 11.1817 34.3662 11.2583 34.4191 11.3376C34.4724 11.417 34.5212 11.4989 34.5665 11.5832C34.6113 11.6674 34.652 11.7539 34.6888 11.8421C34.7251 11.9304 34.7573 12.02 34.7851 12.1114C34.8129 12.2033 34.8362 12.2956 34.8546 12.3892C34.8734 12.4828 34.8873 12.5774 34.8967 12.6724C34.9061 12.7678 34.9106 12.8628 34.9106 12.9587Z" fill="#E08F34"/>
<path d="M30.682 7.24126C30.682 7.36492 30.6762 7.48813 30.6641 7.61089C30.652 7.7341 30.6336 7.85597 30.6094 7.97739C30.5857 8.09836 30.5557 8.21799 30.5198 8.33627C30.484 8.45456 30.4423 8.5706 30.3948 8.68485C30.3478 8.7991 30.2949 8.91066 30.2367 9.01954C30.1784 9.12841 30.1148 9.23415 30.0462 9.3372C29.9777 9.4398 29.9042 9.53882 29.8258 9.63425C29.7474 9.73013 29.6645 9.82153 29.5771 9.9089C29.4898 9.99627 29.3984 10.0792 29.3029 10.1576C29.2075 10.2355 29.1081 10.3094 29.0054 10.378C28.9028 10.4465 28.7971 10.5102 28.6878 10.5684C28.5789 10.6267 28.4674 10.6791 28.3535 10.7266C28.2393 10.7736 28.1228 10.8153 28.005 10.8511C27.8867 10.887 27.7671 10.917 27.6456 10.9412C27.5247 10.9654 27.4024 10.9833 27.2796 10.9954C27.1564 11.0075 27.0332 11.0138 26.9095 11.0138C26.7863 11.0138 26.6631 11.0075 26.5399 10.9954C26.4171 10.9833 26.2948 10.9654 26.1738 10.9412C26.0524 10.917 25.9328 10.887 25.8145 10.8511C25.6962 10.8153 25.5802 10.7736 25.4659 10.7266C25.3521 10.6791 25.2406 10.6267 25.1312 10.5684C25.0224 10.5102 24.9166 10.4465 24.814 10.378C24.711 10.3094 24.612 10.2355 24.5165 10.1576C24.4211 10.0792 24.3297 9.99627 24.2423 9.9089C24.155 9.82153 24.0721 9.73013 23.9937 9.63425C23.9153 9.53882 23.8418 9.4398 23.7732 9.3372C23.7042 9.23415 23.641 9.12841 23.5828 9.01954C23.5246 8.91066 23.4717 8.7991 23.4246 8.68485C23.3772 8.5706 23.3355 8.45456 23.2996 8.33627C23.2638 8.21799 23.2338 8.09836 23.2096 7.97739C23.1858 7.85597 23.1675 7.7341 23.1554 7.61089C23.1433 7.48813 23.1375 7.36492 23.1375 7.24126C23.1375 7.1176 23.1433 6.99439 23.1554 6.87162C23.1675 6.74841 23.1858 6.62655 23.2096 6.50513C23.2338 6.38416 23.2638 6.26453 23.2996 6.14625C23.3355 6.02796 23.3772 5.91192 23.4246 5.79767C23.4717 5.68342 23.5246 5.57186 23.5828 5.46298C23.641 5.35411 23.7042 5.24792 23.7732 5.14532C23.8418 5.04272 23.9153 4.9437 23.9937 4.84782C24.0721 4.75239 24.155 4.66099 24.2423 4.57362C24.3297 4.48625 24.4211 4.40336 24.5165 4.32496C24.612 4.24655 24.711 4.17307 24.814 4.10452C24.9166 4.03597 25.0224 3.97235 25.1312 3.9141C25.2406 3.85586 25.3521 3.80344 25.4659 3.75594C25.5802 3.7089 25.6962 3.66723 25.8145 3.63139C25.9328 3.59555 26.0524 3.56553 26.1738 3.54133C26.2948 3.51714 26.4171 3.49922 26.5399 3.48712C26.6631 3.47502 26.7863 3.46875 26.9095 3.46875C27.0332 3.46875 27.1564 3.47502 27.2796 3.48712C27.4024 3.49922 27.5247 3.51714 27.6456 3.54133C27.7671 3.56553 27.8867 3.59555 28.005 3.63139C28.1228 3.66723 28.2393 3.7089 28.3535 3.75594C28.4674 3.80344 28.5789 3.85586 28.6878 3.9141C28.7971 3.97235 28.9028 4.03597 29.0054 4.10452C29.1081 4.17307 29.2075 4.24655 29.3029 4.32496C29.3984 4.40336 29.4898 4.48625 29.5771 4.57362C29.6645 4.66099 29.7474 4.75239 29.8258 4.84782C29.9042 4.9437 29.9777 5.04272 30.0462 5.14532C30.1148 5.24792 30.1784 5.35411 30.2367 5.46298C30.2949 5.57186 30.3478 5.68342 30.3948 5.79767C30.4423 5.91192 30.484 6.02796 30.5198 6.14625C30.5557 6.26453 30.5857 6.38416 30.6094 6.50513C30.6336 6.62655 30.652 6.74841 30.6641 6.87162C30.6762 6.99439 30.682 7.1176 30.682 7.24126Z" fill="#E08F34"/>
<path d="M24.0102 11.612C24.0102 11.6694 24.0044 11.7263 23.9932 11.7823C23.982 11.8388 23.9654 11.8934 23.9439 11.9463C23.9219 11.9992 23.895 12.0493 23.8628 12.0973C23.831 12.1448 23.7951 12.1887 23.7543 12.2294C23.714 12.2698 23.6697 12.3061 23.6222 12.3379C23.5747 12.3697 23.5241 12.3966 23.4712 12.4185C23.4183 12.4405 23.3637 12.457 23.3076 12.4682C23.2512 12.4795 23.1947 12.4848 23.1374 12.4848C23.08 12.4848 23.0231 12.4795 22.9671 12.4682C22.9107 12.457 22.856 12.4405 22.8032 12.4185C22.7503 12.3966 22.7001 12.3697 22.6522 12.3379C22.6047 12.3061 22.5603 12.2698 22.52 12.2294C22.4797 12.1887 22.4434 12.1448 22.4116 12.0973C22.3798 12.0493 22.3529 11.9992 22.3309 11.9463C22.309 11.8934 22.2924 11.8388 22.2812 11.7823C22.27 11.7263 22.2642 11.6694 22.2642 11.612C22.2642 11.5547 22.27 11.4982 22.2812 11.4418C22.2924 11.3858 22.309 11.3311 22.3309 11.2783C22.3529 11.2254 22.3798 11.1748 22.4116 11.1273C22.4434 11.0798 22.4797 11.0354 22.52 10.9951C22.5603 10.9543 22.6047 10.918 22.6522 10.8862C22.7001 10.8544 22.7503 10.8275 22.8032 10.8056C22.856 10.7836 22.9107 10.767 22.9671 10.7558C23.0231 10.7451 23.08 10.7393 23.1374 10.7393C23.1947 10.7393 23.2512 10.7451 23.3076 10.7558C23.3637 10.767 23.4183 10.7836 23.4712 10.8056C23.5241 10.8275 23.5747 10.8544 23.6222 10.8862C23.6697 10.918 23.714 10.9543 23.7543 10.9951C23.7951 11.0354 23.831 11.0798 23.8628 11.1273C23.895 11.1748 23.9219 11.2254 23.9439 11.2783C23.9654 11.3311 23.982 11.3858 23.9932 11.4418C24.0044 11.4982 24.0102 11.5547 24.0102 11.612Z" fill="#E08F34"/>
<path d="M28.269 14.1658C28.269 14.2231 28.2636 14.28 28.2524 14.336C28.2412 14.3925 28.2247 14.4467 28.2027 14.5C28.1807 14.5529 28.1539 14.603 28.122 14.6505C28.0902 14.6985 28.0539 14.7424 28.0136 14.7832C27.9729 14.8235 27.9289 14.8598 27.8815 14.8916C27.8335 14.9234 27.7833 14.9503 27.7305 14.9722C27.6771 14.9942 27.6229 15.0108 27.5665 15.022C27.5105 15.0332 27.4536 15.0385 27.3962 15.0385C27.3389 15.0385 27.2824 15.0332 27.226 15.022C27.17 15.0108 27.1153 14.9942 27.0624 14.9722C27.0091 14.9503 26.9589 14.9234 26.9114 14.8916C26.8635 14.8598 26.8196 14.8235 26.7793 14.7832C26.7385 14.7424 26.7022 14.6985 26.6704 14.6505C26.6386 14.603 26.6117 14.5529 26.5897 14.5C26.5678 14.4467 26.5512 14.3925 26.54 14.336C26.5288 14.28 26.5234 14.2231 26.5234 14.1658C26.5234 14.1084 26.5288 14.0515 26.54 13.9955C26.5512 13.9395 26.5678 13.8848 26.5897 13.832C26.6117 13.7786 26.6386 13.7285 26.6704 13.681C26.7022 13.633 26.7385 13.5891 26.7793 13.5484C26.8196 13.508 26.8635 13.4717 26.9114 13.4399C26.9589 13.4081 27.0091 13.3812 27.0624 13.3593C27.1153 13.3373 27.17 13.3207 27.226 13.3095C27.2824 13.2983 27.3389 13.293 27.3962 13.293C27.4536 13.293 27.5105 13.2983 27.5665 13.3095C27.6229 13.3207 27.6771 13.3373 27.7305 13.3593C27.7833 13.3812 27.8335 13.4081 27.8815 13.4399C27.9289 13.4717 27.9729 13.508 28.0136 13.5484C28.0539 13.5891 28.0902 13.633 28.122 13.681C28.1539 13.7285 28.1807 13.7786 28.2027 13.832C28.2247 13.8848 28.2412 13.9395 28.2524 13.9955C28.2636 14.0515 28.269 14.1084 28.269 14.1658Z" fill="#E08F34"/>
<path d="M30.3332 18.0076C30.3332 18.0649 30.3278 18.1214 30.3166 18.1778C30.3054 18.2338 30.2889 18.2885 30.2669 18.3413C30.245 18.3947 30.2181 18.4448 30.1863 18.4923C30.1544 18.5403 30.1182 18.5842 30.0778 18.6245C30.0371 18.6653 29.9932 18.7016 29.9457 18.7334C29.8977 18.7652 29.8475 18.7921 29.7947 18.814C29.7418 18.836 29.6871 18.8526 29.6307 18.8638C29.5747 18.875 29.5178 18.8803 29.4604 18.8803C29.4031 18.8803 29.3466 18.875 29.2902 18.8638C29.2342 18.8526 29.1795 18.836 29.1266 18.814C29.0733 18.7921 29.0231 18.7652 28.9757 18.7334C28.9277 18.7016 28.8838 18.6653 28.8435 18.6245C28.8027 18.5842 28.7664 18.5403 28.7346 18.4923C28.7028 18.4448 28.6759 18.3947 28.654 18.3413C28.632 18.2885 28.6154 18.2338 28.6042 18.1778C28.593 18.1214 28.5876 18.0649 28.5876 18.0076C28.5876 17.9502 28.593 17.8933 28.6042 17.8373C28.6154 17.7808 28.632 17.7262 28.654 17.6733C28.6759 17.6204 28.7028 17.5703 28.7346 17.5223C28.7664 17.4748 28.8027 17.4309 28.8435 17.3901C28.8838 17.3498 28.9277 17.3135 28.9757 17.2817C29.0231 17.2499 29.0733 17.223 29.1266 17.2011C29.1795 17.1791 29.2342 17.1625 29.2902 17.1513C29.3466 17.1401 29.4031 17.1348 29.4604 17.1348C29.5178 17.1348 29.5747 17.1401 29.6307 17.1513C29.6871 17.1625 29.7418 17.1791 29.7947 17.2011C29.8475 17.223 29.8977 17.2499 29.9457 17.2817C29.9932 17.3135 30.0371 17.3498 30.0778 17.3901C30.1182 17.4309 30.1544 17.4748 30.1863 17.5223C30.2181 17.5703 30.245 17.6204 30.2669 17.6733C30.2889 17.7262 30.3054 17.7808 30.3166 17.8373C30.3278 17.8933 30.3332 17.9502 30.3332 18.0076Z" fill="#E08F34"/>
<path d="M30.3332 22.1355C30.3332 22.1928 30.3278 22.2493 30.3166 22.3057C30.3054 22.3617 30.2889 22.4164 30.2669 22.4693C30.245 22.5221 30.2181 22.5728 30.1863 22.6203C30.1544 22.6678 30.1182 22.7121 30.0778 22.7524C30.0371 22.7932 29.9932 22.8295 29.9457 22.8613C29.8977 22.8931 29.8475 22.92 29.7947 22.942C29.7418 22.9639 29.6871 22.9805 29.6307 22.9917C29.5747 23.0024 29.5178 23.0083 29.4604 23.0083C29.4031 23.0083 29.3466 23.0024 29.2902 22.9917C29.2342 22.9805 29.1795 22.9639 29.1266 22.942C29.0733 22.92 29.0231 22.8931 28.9757 22.8613C28.9277 22.8295 28.8838 22.7932 28.8435 22.7524C28.8027 22.7121 28.7664 22.6678 28.7346 22.6203C28.7028 22.5728 28.6759 22.5221 28.654 22.4693C28.632 22.4164 28.6154 22.3617 28.6042 22.3057C28.593 22.2493 28.5876 22.1928 28.5876 22.1355C28.5876 22.0781 28.593 22.0212 28.6042 21.9652C28.6154 21.9088 28.632 21.8541 28.654 21.8012C28.6759 21.7484 28.7028 21.6982 28.7346 21.6503C28.7664 21.6028 28.8027 21.5589 28.8435 21.5181C28.8838 21.4778 28.9277 21.4415 28.9757 21.4097C29.0231 21.3778 29.0733 21.351 29.1266 21.329C29.1795 21.3071 29.2342 21.2905 29.2902 21.2793C29.3466 21.2681 29.4031 21.2627 29.4604 21.2627C29.5178 21.2627 29.5747 21.2681 29.6307 21.2793C29.6871 21.2905 29.7418 21.3071 29.7947 21.329C29.8475 21.351 29.8977 21.3778 29.9457 21.4097C29.9932 21.4415 30.0371 21.4778 30.0778 21.5181C30.1182 21.5589 30.1544 21.6028 30.1863 21.6503C30.2181 21.6982 30.245 21.7484 30.2669 21.8012C30.2889 21.8541 30.3054 21.9088 30.3166 21.9652C30.3278 22.0212 30.3332 22.0781 30.3332 22.1355Z" fill="#E08F34"/>
<path d="M7.65737 14.9941L7.55298 15.0833L17.3382 26.4676V37.6467H17.4753V26.417L17.4592 26.3977L7.65737 14.9941Z" fill="#E08F34"/>
<path d="M8.95178 20.1221H6.96875V20.2592H8.89578L16.6321 27.9946V37.6468H16.7692V27.9382L8.95178 20.1221Z" fill="#E08F34"/>
<path d="M9.87459 22.084H8.7854V22.1866H9.83247L15.8766 28.2298V37.6463H15.9796V28.1872L15.9644 28.172L9.87459 22.084Z" fill="#E08F34"/>
<path d="M11.8674 25.3555H10.1218V25.424H11.8387L15.0794 28.6647V37.647H15.148V28.636L11.8674 25.3555Z" fill="#E08F34"/>
<path d="M14.3368 29.3662H13.5876V29.4348H14.3094L15.0895 30.1745L15.1374 30.1252L14.3368 29.3662Z" fill="#E08F34"/>
<path d="M8.74763 18.3584L8.68042 18.4776L9.22165 18.7818L17.3572 27.7256L17.4589 27.6338L9.30813 18.672L8.74763 18.3584Z" fill="#E08F34"/>
<path d="M10.3915 14.6436L10.1218 14.696L10.5479 16.869L10.5699 16.895L18.0531 26.1188L18.2654 25.9458L10.8042 16.7485L10.3915 14.6436Z" fill="#E08F34"/>
<path d="M17.4163 8.26465L16.4705 10.206V15.3845L18.022 17.122L17.9916 37.6463H18.2658L18.2958 17.018L16.7447 15.2805V10.2692L17.6627 8.38383L17.4163 8.26465Z" fill="#E08F34"/>
<path d="M14.5682 11.8574H14.2944V15.4915L18.0378 21.152L18.2668 21.0011L14.5682 15.409V11.8574Z" fill="#E08F34"/>
<path d="M11.6359 10.7158L11.3662 10.7611L12.1664 15.6214L12.1857 15.6474L18.0479 23.8049L18.2696 23.6445L12.4267 15.5148L11.6359 10.7158Z" fill="#E08F34"/>
<path d="M13.5878 29.4C13.5878 29.5035 13.5775 29.6061 13.5573 29.7078C13.5371 29.809 13.5071 29.9076 13.4677 30.003C13.4278 30.0989 13.3794 30.1894 13.3221 30.2755C13.2643 30.3615 13.1993 30.4412 13.1258 30.5143C13.0528 30.5877 12.973 30.6532 12.887 30.7105C12.801 30.7679 12.7105 30.8162 12.6146 30.8561C12.5192 30.8955 12.4206 30.9256 12.3194 30.9457C12.2177 30.9659 12.1151 30.9762 12.0116 30.9762C11.9081 30.9762 11.8059 30.9659 11.7042 30.9457C11.6029 30.9256 11.5044 30.8955 11.4085 30.8561C11.3131 30.8162 11.2221 30.7679 11.1361 30.7105C11.0501 30.6532 10.9708 30.5877 10.8973 30.5143C10.8242 30.4412 10.7588 30.3615 10.7015 30.2755C10.6441 30.1894 10.5953 30.0989 10.5559 30.003C10.5164 29.9076 10.4864 29.809 10.4663 29.7078C10.4461 29.6061 10.4358 29.5035 10.4358 29.4C10.4358 29.2965 10.4461 29.1943 10.4663 29.0926C10.4864 28.9914 10.5164 28.8928 10.5559 28.7969C10.5953 28.7015 10.6441 28.6105 10.7015 28.5245C10.7588 28.4385 10.8242 28.3592 10.8973 28.2857C10.9708 28.2127 11.0501 28.1473 11.1361 28.0899C11.2221 28.0326 11.3131 27.9837 11.4085 27.9443C11.5044 27.9049 11.6029 27.8748 11.7042 27.8547C11.8059 27.8345 11.9081 27.8242 12.0116 27.8242C12.1151 27.8242 12.2177 27.8345 12.3194 27.8547C12.4206 27.8748 12.5192 27.9049 12.6146 27.9443C12.7105 27.9837 12.801 28.0326 12.887 28.0899C12.973 28.1473 13.0528 28.2127 13.1258 28.2857C13.1993 28.3592 13.2643 28.4385 13.3221 28.5245C13.3794 28.6105 13.4278 28.7015 13.4677 28.7969C13.5071 28.8928 13.5371 28.9914 13.5573 29.0926C13.5775 29.1943 13.5878 29.2965 13.5878 29.4Z" fill="#E08F34"/>
<path d="M10.4001 25.8696C10.4001 25.9471 10.3961 26.0246 10.3885 26.1021C10.3808 26.1792 10.3696 26.2558 10.3544 26.332C10.3392 26.4082 10.3204 26.4834 10.298 26.5578C10.2756 26.6322 10.2491 26.7052 10.2195 26.7769C10.19 26.8486 10.1568 26.9185 10.1201 26.987C10.0833 27.0556 10.0435 27.1219 10.0005 27.1864C9.95745 27.2514 9.9113 27.3136 9.86201 27.3737C9.81273 27.4333 9.76076 27.4911 9.70565 27.5457C9.65054 27.6008 9.59319 27.6528 9.53315 27.7021C9.47311 27.7514 9.41083 27.7975 9.34632 27.8405C9.2818 27.884 9.21549 27.9239 9.14694 27.9602C9.07839 27.9969 9.00849 28.0301 8.93636 28.0596C8.86467 28.0897 8.79164 28.1156 8.71771 28.138C8.64334 28.1604 8.56807 28.1793 8.4919 28.1945C8.41573 28.2097 8.33912 28.2214 8.26161 28.2285C8.18455 28.2362 8.10703 28.2402 8.02952 28.2402C7.95156 28.2402 7.8745 28.2362 7.79699 28.2285C7.71993 28.2214 7.64286 28.2097 7.5667 28.1945C7.49098 28.1793 7.41571 28.1604 7.34133 28.138C7.26696 28.1156 7.19393 28.0897 7.12224 28.0596C7.05055 28.0301 6.98021 27.9969 6.91211 27.9602C6.84356 27.9239 6.7768 27.884 6.71228 27.8405C6.64776 27.7975 6.58549 27.7514 6.52545 27.7021C6.46541 27.6528 6.40806 27.6008 6.35295 27.5457C6.29829 27.4911 6.24632 27.4333 6.19703 27.3737C6.14775 27.3136 6.1016 27.2514 6.05814 27.1864C6.01513 27.1219 5.97525 27.0556 5.93851 26.987C5.90222 26.9185 5.86907 26.8486 5.83905 26.7769C5.80948 26.7052 5.78349 26.6322 5.76064 26.5578C5.73824 26.4834 5.71942 26.4082 5.70419 26.332C5.6894 26.2558 5.67775 26.1792 5.67014 26.1021C5.66252 26.0246 5.65894 25.9471 5.65894 25.8696C5.65894 25.7921 5.66252 25.7146 5.67014 25.6371C5.67775 25.56 5.6894 25.4834 5.70419 25.4072C5.71942 25.3311 5.73824 25.2558 5.76064 25.1814C5.78349 25.107 5.80948 25.034 5.83905 24.9623C5.86907 24.8906 5.90222 24.8207 5.93851 24.7522C5.97525 24.6836 6.01513 24.6169 6.05814 24.5524C6.1016 24.4879 6.14775 24.4256 6.19703 24.3655C6.24632 24.3055 6.29829 24.2481 6.35295 24.1935C6.40806 24.1384 6.46541 24.0864 6.52545 24.0371C6.58549 23.9878 6.64776 23.9417 6.71228 23.8987C6.7768 23.8552 6.84356 23.8153 6.91211 23.779C6.98021 23.7423 7.05055 23.7092 7.12224 23.6796C7.19393 23.6496 7.26696 23.6236 7.34133 23.6012C7.41571 23.5783 7.49098 23.5595 7.5667 23.5447C7.64286 23.5295 7.71993 23.5178 7.79699 23.5102C7.8745 23.5026 7.95156 23.499 8.02952 23.499C8.10703 23.499 8.18455 23.5026 8.26161 23.5102C8.33912 23.5178 8.41573 23.5295 8.4919 23.5447C8.56807 23.5595 8.64334 23.5783 8.71771 23.6012C8.79164 23.6236 8.86467 23.6496 8.93636 23.6796C9.00849 23.7092 9.07839 23.7423 9.14694 23.779C9.21549 23.8153 9.2818 23.8552 9.34632 23.8987C9.41083 23.9417 9.47311 23.9878 9.53315 24.0371C9.59319 24.0864 9.65054 24.1384 9.70565 24.1935C9.76076 24.2481 9.81273 24.3055 9.86201 24.3655C9.9113 24.4256 9.95745 24.4879 10.0005 24.5524C10.0435 24.6169 10.0833 24.6836 10.1201 24.7522C10.1568 24.8207 10.19 24.8906 10.2195 24.9623C10.2491 25.034 10.2756 25.107 10.298 25.1814C10.3204 25.2558 10.3392 25.3311 10.3544 25.4072C10.3696 25.4834 10.3808 25.56 10.3885 25.6371C10.3961 25.7146 10.4001 25.7921 10.4001 25.8696Z" fill="#E08F34"/>
<path d="M6.96943 19.9979C6.96943 20.0978 6.96495 20.1973 6.95509 20.2967C6.94524 20.3962 6.93045 20.4952 6.91119 20.5929C6.89147 20.691 6.86728 20.7878 6.83816 20.8837C6.80903 20.9791 6.77543 21.0732 6.73735 21.1655C6.69926 21.2578 6.65625 21.3483 6.60921 21.4361C6.56216 21.5244 6.51109 21.61 6.45553 21.6933C6.39997 21.7762 6.34038 21.8564 6.27676 21.9339C6.21359 22.0109 6.14638 22.0849 6.07604 22.1557C6.00525 22.2265 5.93132 22.2932 5.85381 22.3568C5.77675 22.42 5.69655 22.4796 5.61321 22.5352C5.53032 22.5907 5.44475 22.6418 5.35648 22.6888C5.26822 22.7363 5.17816 22.7789 5.08587 22.817C4.99357 22.8555 4.89948 22.8891 4.80405 22.9178C4.70817 22.9469 4.61139 22.9711 4.51327 22.9908C4.41515 23.0101 4.31658 23.0249 4.21711 23.0347C4.11765 23.0446 4.01773 23.0495 3.91782 23.0495C3.81791 23.0495 3.71844 23.0446 3.61898 23.0347C3.51951 23.0249 3.4205 23.0101 3.32282 22.9908C3.2247 22.9711 3.12792 22.9469 3.03204 22.9178C2.93661 22.8891 2.84252 22.8555 2.75023 22.817C2.65793 22.7789 2.56742 22.7363 2.47961 22.6888C2.39134 22.6418 2.30577 22.5907 2.22243 22.5352C2.13954 22.4796 2.05935 22.42 1.98228 22.3568C1.90477 22.2932 1.83084 22.2265 1.76005 22.1557C1.68971 22.0849 1.6225 22.0109 1.55888 21.9339C1.49571 21.8564 1.43612 21.7762 1.38056 21.6933C1.32501 21.61 1.27393 21.5244 1.22688 21.4361C1.17939 21.3483 1.13683 21.2578 1.09874 21.1655C1.06021 21.0732 1.02661 20.9791 0.997935 20.8837C0.968812 20.7878 0.944618 20.691 0.924904 20.5929C0.905639 20.4952 0.890853 20.3962 0.880996 20.2967C0.871139 20.1973 0.866211 20.0978 0.866211 19.9979C0.866211 19.898 0.871139 19.7981 0.880996 19.6986C0.890853 19.5991 0.905639 19.5006 0.924904 19.4025C0.944618 19.3043 0.968812 19.2076 0.997935 19.1117C1.02661 19.0162 1.06021 18.9222 1.09874 18.8299C1.13683 18.7376 1.17939 18.6475 1.22688 18.5592C1.27393 18.471 1.32501 18.3854 1.38056 18.3025C1.43612 18.2192 1.49571 18.139 1.55888 18.0619C1.6225 17.9844 1.68971 17.9105 1.76005 17.8397C1.83084 17.7693 1.90477 17.7021 1.98228 17.639C2.05935 17.5753 2.13954 17.5157 2.22243 17.4602C2.30577 17.4051 2.39134 17.3536 2.47961 17.3065C2.56742 17.2595 2.65793 17.2165 2.75023 17.1784C2.84252 17.1403 2.93661 17.1067 3.03204 17.0776C3.12792 17.0484 3.2247 17.0242 3.32282 17.0045C3.4205 16.9853 3.51951 16.9705 3.61898 16.9606C3.71844 16.9512 3.81791 16.9463 3.91782 16.9463C4.01773 16.9463 4.11765 16.9512 4.21711 16.9606C4.31658 16.9705 4.41515 16.9853 4.51327 17.0045C4.61139 17.0242 4.70817 17.0484 4.80405 17.0776C4.89948 17.1067 4.99357 17.1403 5.08587 17.1784C5.17816 17.2165 5.26822 17.2595 5.35648 17.3065C5.44475 17.3536 5.53032 17.4051 5.61321 17.4602C5.69655 17.5157 5.77675 17.5753 5.85381 17.639C5.93132 17.7021 6.00525 17.7693 6.07604 17.8397C6.14638 17.9105 6.21359 17.9844 6.27676 18.0619C6.34038 18.139 6.39997 18.2192 6.45553 18.3025C6.51109 18.3854 6.56216 18.471 6.60921 18.5592C6.65625 18.6475 6.69926 18.7376 6.73735 18.8299C6.77543 18.9222 6.80903 19.0162 6.83816 19.1117C6.86728 19.2076 6.89147 19.3043 6.91119 19.4025C6.93045 19.5006 6.94524 19.5991 6.95509 19.6986C6.96495 19.7981 6.96943 19.898 6.96943 19.9979Z" fill="#E08F34"/>
<path d="M8.57776 12.9587C8.57776 13.0541 8.57328 13.1495 8.56387 13.2445C8.55446 13.3395 8.54013 13.434 8.52176 13.5277C8.50294 13.6213 8.48009 13.7141 8.45231 13.8055C8.42453 13.8969 8.39227 13.9865 8.35553 14.0747C8.31924 14.163 8.27847 14.2495 8.23322 14.3337C8.18841 14.4179 8.13913 14.4999 8.08626 14.5792C8.03294 14.6585 7.97604 14.7356 7.91556 14.8091C7.85507 14.883 7.791 14.9538 7.72335 15.0214C7.65569 15.0891 7.5849 15.1532 7.51098 15.2137C7.4375 15.2741 7.36043 15.331 7.28113 15.3844C7.20183 15.4372 7.11984 15.4865 7.0356 15.5313C6.95137 15.5766 6.8649 15.6173 6.77664 15.6536C6.68837 15.6904 6.59876 15.7226 6.50736 15.7504C6.41596 15.7777 6.32322 15.801 6.22958 15.8199C6.13594 15.8382 6.0414 15.8526 5.94642 15.862C5.85143 15.8714 5.756 15.8759 5.66057 15.8759C5.56468 15.8759 5.4697 15.8714 5.37427 15.862C5.27928 15.8526 5.18519 15.8382 5.0911 15.8199C4.99746 15.801 4.90517 15.7777 4.81377 15.7504C4.72192 15.7226 4.63231 15.6904 4.54405 15.6536C4.45578 15.6173 4.36931 15.5766 4.28508 15.5313C4.20085 15.4865 4.11885 15.4372 4.03955 15.3844C3.96025 15.331 3.88363 15.2741 3.80971 15.2137C3.73578 15.1532 3.66499 15.0891 3.59733 15.0214C3.53013 14.9538 3.46606 14.883 3.40513 14.8091C3.34464 14.7356 3.28774 14.6585 3.23487 14.5792C3.18155 14.4999 3.13272 14.4179 3.08746 14.3337C3.04266 14.2495 3.00189 14.163 2.96515 14.0747C2.92841 13.9865 2.8966 13.8969 2.86882 13.8055C2.84104 13.7141 2.81774 13.6213 2.79893 13.5277C2.78056 13.434 2.76667 13.3395 2.75726 13.2445C2.74785 13.1495 2.74292 13.0541 2.74292 12.9587C2.74292 12.8628 2.74785 12.7678 2.75726 12.6724C2.76667 12.5774 2.78056 12.4828 2.79893 12.3892C2.81774 12.2956 2.84104 12.2033 2.86882 12.1114C2.8966 12.02 2.92841 11.9304 2.96515 11.8421C3.00189 11.7539 3.04266 11.6674 3.08746 11.5832C3.13272 11.4989 3.18155 11.417 3.23487 11.3376C3.28774 11.2583 3.34464 11.1817 3.40513 11.1078C3.46606 11.0339 3.53013 10.9631 3.59733 10.8954C3.66499 10.8282 3.73578 10.7642 3.80971 10.7032C3.88363 10.6427 3.96025 10.5858 4.03955 10.533C4.11885 10.4796 4.20085 10.4308 4.28508 10.3856C4.36931 10.3408 4.45578 10.3 4.54405 10.2632C4.63231 10.2265 4.72192 10.1947 4.81377 10.1669C4.90517 10.1391 4.99746 10.1158 5.0911 10.097C5.18519 10.0787 5.27928 10.0648 5.37427 10.0554C5.4697 10.0459 5.56468 10.041 5.66057 10.041C5.756 10.041 5.85143 10.0459 5.94642 10.0554C6.0414 10.0648 6.13594 10.0787 6.22958 10.097C6.32322 10.1158 6.41596 10.1391 6.50736 10.1669C6.59876 10.1947 6.68837 10.2265 6.77664 10.2632C6.8649 10.3 6.95137 10.3408 7.0356 10.3856C7.11984 10.4308 7.20183 10.4796 7.28113 10.533C7.36043 10.5858 7.4375 10.6427 7.51098 10.7032C7.5849 10.7642 7.65569 10.8282 7.72335 10.8954C7.791 10.9631 7.85507 11.0339 7.91556 11.1078C7.97604 11.1817 8.03294 11.2583 8.08626 11.3376C8.13913 11.417 8.18841 11.4989 8.23322 11.5832C8.27847 11.6674 8.31924 11.7539 8.35553 11.8421C8.39227 11.9304 8.42453 12.02 8.45231 12.1114C8.48009 12.2033 8.50294 12.2956 8.52176 12.3892C8.54013 12.4828 8.55446 12.5774 8.56387 12.6724C8.57328 12.7678 8.57776 12.8628 8.57776 12.9587Z" fill="#E08F34"/>
<path d="M14.5138 7.24126C14.5138 7.36492 14.5079 7.48813 14.4958 7.61089C14.4833 7.7341 14.4654 7.85597 14.4412 7.97739C14.417 8.09836 14.3874 8.21799 14.3516 8.33627C14.3153 8.45456 14.2741 8.5706 14.2266 8.68485C14.1795 8.7991 14.1267 8.91066 14.0684 9.01954C14.0102 9.12841 13.9465 9.23415 13.878 9.3372C13.8094 9.4398 13.736 9.53882 13.6576 9.63425C13.5792 9.73013 13.4963 9.82153 13.4089 9.9089C13.3215 9.99627 13.2301 10.0792 13.1347 10.1576C13.0393 10.2355 12.9398 10.3094 12.8372 10.378C12.7346 10.4465 12.6289 10.5102 12.5195 10.5684C12.4107 10.6267 12.2991 10.6791 12.1848 10.7266C12.071 10.7736 11.9546 10.8153 11.8363 10.8511C11.7184 10.887 11.5984 10.917 11.4774 10.9412C11.356 10.9654 11.2341 10.9833 11.1113 10.9954C10.9881 11.0075 10.8649 11.0138 10.7413 11.0138C10.618 11.0138 10.4944 11.0075 10.3716 10.9954C10.2489 10.9833 10.1265 10.9654 10.0056 10.9412C9.88416 10.917 9.76453 10.887 9.64625 10.8511C9.52796 10.8153 9.41192 10.7736 9.29767 10.7266C9.18342 10.6791 9.07186 10.6267 8.96298 10.5684C8.85411 10.5102 8.74837 10.4465 8.64532 10.378C8.54272 10.3094 8.4437 10.2355 8.34827 10.1576C8.25284 10.0792 8.16144 9.99627 8.07407 9.9089C7.9867 9.82153 7.90381 9.73013 7.82541 9.63425C7.747 9.53882 7.67352 9.4398 7.60452 9.3372C7.53597 9.23415 7.4728 9.12841 7.41455 9.01954C7.35631 8.91066 7.30344 8.7991 7.25594 8.68485C7.2089 8.5706 7.16723 8.45456 7.13139 8.33627C7.09555 8.21799 7.06553 8.09836 7.04133 7.97739C7.01714 7.85597 6.99922 7.7341 6.98712 7.61089C6.97502 7.48813 6.96875 7.36492 6.96875 7.24126C6.96875 7.1176 6.97502 6.99439 6.98712 6.87162C6.99922 6.74841 7.01714 6.62655 7.04133 6.50513C7.06553 6.38416 7.09555 6.26453 7.13139 6.14625C7.16723 6.02796 7.2089 5.91192 7.25594 5.79767C7.30344 5.68342 7.35631 5.57186 7.41455 5.46298C7.4728 5.35411 7.53597 5.24792 7.60452 5.14532C7.67352 5.04272 7.747 4.9437 7.82541 4.84782C7.90381 4.75239 7.9867 4.66099 8.07407 4.57362C8.16144 4.48625 8.25284 4.40336 8.34827 4.32496C8.4437 4.24655 8.54272 4.17307 8.64532 4.10452C8.74837 4.03597 8.85411 3.97235 8.96298 3.9141C9.07186 3.85586 9.18342 3.80344 9.29767 3.75594C9.41192 3.7089 9.52796 3.66723 9.64625 3.63139C9.76453 3.59555 9.88416 3.56553 10.0056 3.54133C10.1265 3.51714 10.2489 3.49922 10.3716 3.48712C10.4944 3.47502 10.618 3.46875 10.7413 3.46875C10.8649 3.46875 10.9881 3.47502 11.1113 3.48712C11.2341 3.49922 11.356 3.51714 11.4774 3.54133C11.5984 3.56553 11.7184 3.59555 11.8363 3.63139C11.9546 3.66723 12.071 3.7089 12.1848 3.75594C12.2991 3.80344 12.4107 3.85586 12.5195 3.9141C12.6289 3.97235 12.7346 4.03597 12.8372 4.10452C12.9398 4.17307 13.0393 4.24655 13.1347 4.32496C13.2301 4.40336 13.3215 4.48625 13.4089 4.57362C13.4963 4.66099 13.5792 4.75239 13.6576 4.84782C13.736 4.9437 13.8094 5.04272 13.878 5.14532C13.9465 5.24792 14.0102 5.35411 14.0684 5.46298C14.1267 5.57186 14.1795 5.68342 14.2266 5.79767C14.2741 5.91192 14.3153 6.02796 14.3516 6.14625C14.3874 6.26453 14.417 6.38416 14.4412 6.50513C14.4654 6.62655 14.4833 6.74841 14.4958 6.87162C14.5079 6.99439 14.5138 7.1176 14.5138 7.24126Z" fill="#E08F34"/>
<path d="M15.3891 11.612C15.3891 11.6694 15.3837 11.7263 15.3725 11.7823C15.3613 11.8388 15.3448 11.8934 15.3228 11.9463C15.3009 11.9992 15.274 12.0493 15.2422 12.0973C15.2104 12.1448 15.1741 12.1887 15.1337 12.2294C15.093 12.2698 15.0491 12.3061 15.0011 12.3379C14.9536 12.3697 14.9034 12.3966 14.8506 12.4185C14.7973 12.4405 14.743 12.457 14.6866 12.4682C14.6306 12.4795 14.5737 12.4848 14.5163 12.4848C14.459 12.4848 14.4025 12.4795 14.3461 12.4682C14.2901 12.457 14.2354 12.4405 14.1825 12.4185C14.1292 12.3966 14.0791 12.3697 14.0316 12.3379C13.9836 12.3061 13.9397 12.2698 13.8994 12.2294C13.8586 12.1887 13.8223 12.1448 13.7905 12.0973C13.7587 12.0493 13.7318 11.9992 13.7099 11.9463C13.6879 11.8934 13.6713 11.8388 13.6601 11.7823C13.6489 11.7263 13.6436 11.6694 13.6436 11.612C13.6436 11.5547 13.6489 11.4982 13.6601 11.4418C13.6713 11.3858 13.6879 11.3311 13.7099 11.2783C13.7318 11.2254 13.7587 11.1748 13.7905 11.1273C13.8223 11.0798 13.8586 11.0354 13.8994 10.9951C13.9397 10.9543 13.9836 10.918 14.0316 10.8862C14.0791 10.8544 14.1292 10.8275 14.1825 10.8056C14.2354 10.7836 14.2901 10.767 14.3461 10.7558C14.4025 10.7451 14.459 10.7393 14.5163 10.7393C14.5737 10.7393 14.6306 10.7451 14.6866 10.7558C14.743 10.767 14.7973 10.7836 14.8506 10.8056C14.9034 10.8275 14.9536 10.8544 15.0011 10.8862C15.0491 10.918 15.093 10.9543 15.1337 10.9951C15.1741 11.0354 15.2104 11.0798 15.2422 11.1273C15.274 11.1748 15.3009 11.2254 15.3228 11.2783C15.3448 11.3311 15.3613 11.3858 15.3725 11.4418C15.3837 11.4982 15.3891 11.5547 15.3891 11.612Z" fill="#E08F34"/>
<path d="M11.1303 14.1658C11.1303 14.2231 11.1245 14.28 11.1133 14.336C11.1021 14.3925 11.0855 14.4467 11.064 14.5C11.042 14.5529 11.0151 14.603 10.9829 14.6505C10.9511 14.6985 10.9152 14.7424 10.8745 14.7832C10.8341 14.8235 10.7898 14.8598 10.7423 14.8916C10.6948 14.9234 10.6442 14.9503 10.5913 14.9722C10.5384 14.9942 10.4838 15.0108 10.4278 15.022C10.3713 15.0332 10.3149 15.0385 10.2575 15.0385C10.2002 15.0385 10.1433 15.0332 10.0873 15.022C10.0308 15.0108 9.97614 14.9942 9.92327 14.9722C9.8704 14.9503 9.82022 14.9234 9.77228 14.8916C9.72479 14.8598 9.68043 14.8235 9.64011 14.7832C9.59979 14.7424 9.56349 14.6985 9.53168 14.6505C9.49987 14.603 9.47299 14.5529 9.45104 14.5C9.42908 14.4467 9.4125 14.3925 9.4013 14.336C9.3901 14.28 9.38428 14.2231 9.38428 14.1658C9.38428 14.1084 9.3901 14.0515 9.4013 13.9955C9.4125 13.9395 9.42908 13.8848 9.45104 13.832C9.47299 13.7786 9.49987 13.7285 9.53168 13.681C9.56349 13.633 9.59979 13.5891 9.64011 13.5484C9.68043 13.508 9.72479 13.4717 9.77228 13.4399C9.82022 13.4081 9.8704 13.3812 9.92327 13.3593C9.97614 13.3373 10.0308 13.3207 10.0873 13.3095C10.1433 13.2983 10.2002 13.293 10.2575 13.293C10.3149 13.293 10.3713 13.2983 10.4278 13.3095C10.4838 13.3207 10.5384 13.3373 10.5913 13.3593C10.6442 13.3812 10.6948 13.4081 10.7423 13.4399C10.7898 13.4717 10.8341 13.508 10.8745 13.5484C10.9152 13.5891 10.9511 13.633 10.9829 13.681C11.0151 13.7285 11.042 13.7786 11.064 13.832C11.0855 13.8848 11.1021 13.9395 11.1133 13.9955C11.1245 14.0515 11.1303 14.1084 11.1303 14.1658Z" fill="#E08F34"/>
<path d="M9.0634 18.0076C9.0634 18.0649 9.05758 18.1214 9.04637 18.1778C9.03517 18.2338 9.0186 18.2885 8.99664 18.3413C8.97469 18.3947 8.94781 18.4448 8.91599 18.4923C8.88418 18.5403 8.84834 18.5842 8.80757 18.6245C8.76724 18.6653 8.72289 18.7016 8.6754 18.7334C8.6279 18.7652 8.57728 18.7921 8.52441 18.814C8.47154 18.836 8.41688 18.8526 8.36087 18.8638C8.30442 18.875 8.24752 18.8803 8.19062 18.8803C8.13327 18.8803 8.07636 18.875 8.01991 18.8638C7.96391 18.8526 7.90925 18.836 7.85638 18.814C7.80351 18.7921 7.75333 18.7652 7.70539 18.7334C7.65789 18.7016 7.61354 18.6653 7.57321 18.6245C7.53244 18.5842 7.4966 18.5403 7.46479 18.4923C7.43298 18.4448 7.40609 18.3947 7.38414 18.3413C7.36219 18.2885 7.34561 18.2338 7.33441 18.1778C7.32321 18.1214 7.31738 18.0649 7.31738 18.0076C7.31738 17.9502 7.32321 17.8933 7.33441 17.8373C7.34561 17.7808 7.36219 17.7262 7.38414 17.6733C7.40609 17.6204 7.43298 17.5703 7.46479 17.5223C7.4966 17.4748 7.53244 17.4309 7.57321 17.3901C7.61354 17.3498 7.65789 17.3135 7.70539 17.2817C7.75333 17.2499 7.80351 17.223 7.85638 17.2011C7.90925 17.1791 7.96391 17.1625 8.01991 17.1513C8.07636 17.1401 8.13327 17.1348 8.19062 17.1348C8.24752 17.1348 8.30442 17.1401 8.36087 17.1513C8.41688 17.1625 8.47154 17.1791 8.52441 17.2011C8.57728 17.223 8.6279 17.2499 8.6754 17.2817C8.72289 17.3135 8.76724 17.3498 8.80757 17.3901C8.84834 17.4309 8.88418 17.4748 8.91599 17.5223C8.94781 17.5703 8.97469 17.6204 8.99664 17.6733C9.0186 17.7262 9.03517 17.7808 9.04637 17.8373C9.05758 17.8933 9.0634 17.9502 9.0634 18.0076Z" fill="#E08F34"/>
<path d="M9.0634 22.1355C9.0634 22.1928 9.05758 22.2493 9.04637 22.3057C9.03517 22.3617 9.0186 22.4164 8.99664 22.4693C8.97469 22.5221 8.94781 22.5728 8.91599 22.6203C8.88418 22.6678 8.84834 22.7121 8.80757 22.7524C8.76724 22.7932 8.72289 22.8295 8.6754 22.8613C8.6279 22.8931 8.57728 22.92 8.52441 22.942C8.47154 22.9639 8.41688 22.9805 8.36087 22.9917C8.30442 23.0024 8.24752 23.0083 8.19062 23.0083C8.13327 23.0083 8.07636 23.0024 8.01991 22.9917C7.96391 22.9805 7.90925 22.9639 7.85638 22.942C7.80351 22.92 7.75333 22.8931 7.70539 22.8613C7.65789 22.8295 7.61354 22.7932 7.57321 22.7524C7.53244 22.7121 7.4966 22.6678 7.46479 22.6203C7.43298 22.5728 7.40609 22.5221 7.38414 22.4693C7.36219 22.4164 7.34561 22.3617 7.33441 22.3057C7.32321 22.2493 7.31738 22.1928 7.31738 22.1355C7.31738 22.0781 7.32321 22.0212 7.33441 21.9652C7.34561 21.9088 7.36219 21.8541 7.38414 21.8012C7.40609 21.7484 7.43298 21.6982 7.46479 21.6503C7.4966 21.6028 7.53244 21.5589 7.57321 21.5181C7.61354 21.4778 7.65789 21.4415 7.70539 21.4097C7.75333 21.3778 7.80351 21.351 7.85638 21.329C7.90925 21.3071 7.96391 21.2905 8.01991 21.2793C8.07636 21.2681 8.13327 21.2627 8.19062 21.2627C8.24752 21.2627 8.30442 21.2681 8.36087 21.2793C8.41688 21.2905 8.47154 21.3071 8.52441 21.329C8.57728 21.351 8.6279 21.3778 8.6754 21.4097C8.72289 21.4415 8.76724 21.4778 8.80757 21.5181C8.84834 21.5589 8.88418 21.6028 8.91599 21.6503C8.94781 21.6982 8.97469 21.7484 8.99664 21.8012C9.0186 21.8541 9.03517 21.9088 9.04637 21.9652C9.05758 22.0212 9.0634 22.0781 9.0634 22.1355Z" fill="#E08F34"/>
<mask id="mask0_338_622" style="mask-type:luminance" maskUnits="userSpaceOnUse" x="15" y="1" width="8" height="8">
<path d="M15.0007 1.02148H22.6855V8.66417H15.0007V1.02148Z" fill="white"/>
</mask>
<g mask="url(#mask0_338_622)">
<path d="M22.6002 4.79106C22.6002 4.91427 22.5939 5.03749 22.5818 5.1607C22.5697 5.28346 22.5518 5.40578 22.5276 5.52675C22.5034 5.64817 22.4734 5.76779 22.4376 5.88608C22.4017 6.00436 22.36 6.1204 22.313 6.23465C22.2655 6.34845 22.2126 6.46002 22.1544 6.56934C22.0961 6.67821 22.033 6.78395 21.9644 6.88655C21.8954 6.9896 21.8219 7.08862 21.7435 7.18405C21.6656 7.27949 21.5827 7.37089 21.4953 7.45825C21.408 7.54562 21.3166 7.62851 21.2207 7.70692C21.1252 7.78532 21.0262 7.8588 20.9236 7.92735C20.8206 7.99635 20.7148 8.05953 20.606 8.11777C20.4971 8.17602 20.3855 8.22888 20.2713 8.27593C20.157 8.32342 20.041 8.36509 19.9227 8.40093C19.8044 8.43678 19.6848 8.46679 19.5634 8.49099C19.4424 8.51474 19.3205 8.5331 19.1973 8.5452C19.0746 8.5573 18.9513 8.56312 18.8277 8.56312C18.704 8.56312 18.5808 8.5573 18.4581 8.5452C18.3348 8.5331 18.213 8.51474 18.0916 8.49099C17.9706 8.46679 17.851 8.43678 17.7327 8.40093C17.6144 8.36509 17.4983 8.32342 17.3841 8.27593C17.2698 8.22888 17.1583 8.17602 17.0494 8.11777C16.9405 8.05953 16.8343 7.99635 16.7317 7.92735C16.6291 7.8588 16.5301 7.78532 16.4342 7.70692C16.3388 7.62851 16.2474 7.54562 16.16 7.45825C16.0727 7.37089 15.9898 7.27949 15.9114 7.18405C15.833 7.08862 15.7595 6.9896 15.6909 6.88655C15.6224 6.78395 15.5588 6.67821 15.5005 6.56934C15.4423 6.46002 15.3899 6.34845 15.3424 6.23465C15.2949 6.1204 15.2537 6.00436 15.2178 5.88608C15.182 5.76779 15.152 5.64817 15.1278 5.52675C15.1036 5.40578 15.0856 5.28346 15.0735 5.1607C15.0614 5.03749 15.0552 4.91427 15.0552 4.79106C15.0552 4.6674 15.0614 4.54419 15.0735 4.42098C15.0856 4.29822 15.1036 4.1759 15.1278 4.05493C15.152 3.93351 15.182 3.81388 15.2178 3.6956C15.2537 3.57732 15.2949 3.46128 15.3424 3.34703C15.3899 3.23322 15.4423 3.12166 15.5005 3.01234C15.5588 2.90346 15.6224 2.79773 15.6909 2.69513C15.7595 2.59208 15.833 2.49306 15.9114 2.39763C15.9898 2.30219 16.0727 2.21079 16.16 2.12342C16.2474 2.03606 16.3388 1.95317 16.4342 1.87476C16.5301 1.79635 16.6291 1.72288 16.7317 1.65433C16.8343 1.58578 16.9405 1.52215 17.0494 1.46391C17.1583 1.40566 17.2698 1.35279 17.3841 1.30575C17.4983 1.25826 17.6144 1.21659 17.7327 1.18075C17.851 1.1449 17.9706 1.11488 18.0916 1.09114C18.213 1.06694 18.3348 1.04857 18.4581 1.03648C18.5808 1.02438 18.704 1.01855 18.8277 1.01855C18.9513 1.01855 19.0746 1.02438 19.1973 1.03648C19.3205 1.04857 19.4424 1.06694 19.5634 1.09114C19.6848 1.11488 19.8044 1.1449 19.9227 1.18075C20.041 1.21659 20.157 1.25826 20.2713 1.30575C20.3855 1.35279 20.4971 1.40566 20.606 1.46391C20.7148 1.52215 20.8206 1.58578 20.9236 1.65433C21.0262 1.72288 21.1252 1.79635 21.2207 1.87476C21.3161 1.95317 21.408 2.03606 21.4953 2.12342C21.5827 2.21079 21.6656 2.30219 21.7435 2.39763C21.8219 2.49306 21.8954 2.59208 21.9644 2.69513C22.033 2.79773 22.0961 2.90346 22.1544 3.01234C22.2126 3.12166 22.2655 3.23322 22.313 3.34703C22.36 3.46128 22.4017 3.57732 22.4376 3.6956C22.4734 3.81388 22.5034 3.93351 22.5276 4.05493C22.5518 4.1759 22.5697 4.29822 22.5818 4.42098C22.5939 4.54419 22.6002 4.6674 22.6002 4.79106Z" fill="#E08F34"/>
</g>
<path d="M10.15 4.99219H12.3673C12.4001 4.99219 12.4314 4.99846 12.4614 5.01101C12.4919 5.02355 12.5183 5.04147 12.5416 5.06432C12.5645 5.08762 12.5824 5.11405 12.5949 5.14452C12.6075 5.17454 12.6138 5.20635 12.6138 5.23906V9.24276C12.6138 9.27546 12.6075 9.30683 12.5949 9.33729C12.5824 9.36731 12.5645 9.39419 12.5416 9.41749C12.5183 9.44034 12.4919 9.45826 12.4614 9.47081C12.4314 9.48335 12.4001 9.48963 12.3673 9.48963H10.15C10.1173 9.48963 10.0859 9.48335 10.0555 9.47081C10.0254 9.45826 9.99855 9.44034 9.9757 9.41749C9.9524 9.39419 9.93448 9.36731 9.92193 9.33729C9.90939 9.30683 9.90356 9.27546 9.90356 9.24276V5.23906C9.90356 5.20635 9.90939 5.17454 9.92193 5.14452C9.93448 5.11405 9.9524 5.08762 9.9757 5.06432C9.99855 5.04147 10.0254 5.02355 10.0555 5.01101C10.0859 4.99846 10.1173 4.99219 10.15 4.99219Z" fill="white"/>
<path d="M10.269 5.23242H12.2507C12.2798 5.23242 12.3081 5.23825 12.3349 5.24945C12.3618 5.26065 12.386 5.27633 12.4066 5.29739C12.4272 5.318 12.4434 5.34174 12.4541 5.36863C12.4653 5.39596 12.4711 5.42374 12.4711 5.45331V9.02957C12.4711 9.0587 12.4653 9.08692 12.4541 9.11425C12.4434 9.14114 12.4272 9.16488 12.4066 9.18549C12.386 9.20655 12.3618 9.22223 12.3349 9.23343C12.3081 9.24463 12.2798 9.25046 12.2507 9.25046H10.269C10.2399 9.25046 10.2117 9.24463 10.1848 9.23343C10.1575 9.22223 10.1337 9.20655 10.1131 9.18549C10.0925 9.16488 10.0764 9.14114 10.0652 9.11425C10.054 9.08692 10.0486 9.0587 10.0486 9.02957V5.45331C10.0486 5.42374 10.054 5.39596 10.0652 5.36863C10.0764 5.34174 10.0925 5.318 10.1131 5.29739C10.1337 5.27633 10.1575 5.26065 10.1848 5.24945C10.2117 5.23825 10.2399 5.23242 10.269 5.23242Z" fill="#E08F34"/>
<path d="M10.738 5.07031H11.7811V5.17336H10.738V5.07031Z" fill="#E08F34"/>
<path d="M10.738 9.30859H11.7811V9.4112H10.738V9.30859Z" fill="#E08F34"/>
<path d="M11.3746 7.36168C11.3746 7.45084 11.3643 7.53955 11.3432 7.62737C11.3226 7.71473 11.2917 7.79986 11.2505 7.8823C11.2097 7.96519 11.1595 8.0436 11.0999 8.11752C11.0408 8.1919 10.9731 8.2609 10.8974 8.32407C10.8217 8.38725 10.7397 8.44325 10.6505 8.49298C10.5618 8.54272 10.4677 8.58483 10.3687 8.61888C10.2701 8.65293 10.168 8.67892 10.0632 8.69639C9.95831 8.71387 9.85258 8.72238 9.74549 8.72238C9.63841 8.72238 9.53267 8.71387 9.42738 8.69639C9.32254 8.67892 9.22084 8.65293 9.12182 8.61888C9.02325 8.58483 8.92916 8.54272 8.84045 8.49298C8.75129 8.44325 8.66885 8.38725 8.59313 8.32407C8.51786 8.2609 8.45021 8.1919 8.39062 8.11752C8.33147 8.0436 8.28129 7.96519 8.24007 7.8823C8.1993 7.79986 8.16839 7.71473 8.14733 7.62737C8.12672 7.53955 8.11597 7.45084 8.11597 7.36168C8.11597 7.27252 8.12672 7.18381 8.14733 7.09644C8.16839 7.00862 8.1993 6.92349 8.24007 6.84105C8.28129 6.75861 8.33147 6.68021 8.39062 6.60583C8.45021 6.53146 8.51786 6.46291 8.59313 6.39973C8.66885 6.33656 8.75129 6.28011 8.84045 6.23037C8.92916 6.18064 9.02325 6.13897 9.12182 6.10447C9.22084 6.07042 9.32254 6.04444 9.42738 6.02696C9.53267 6.00994 9.63841 6.00098 9.74549 6.00098C9.85258 6.00098 9.95831 6.00994 10.0632 6.02696C10.168 6.04444 10.2701 6.07042 10.3687 6.10447C10.4677 6.13897 10.5618 6.18064 10.6505 6.23037C10.7397 6.28011 10.8217 6.33656 10.8974 6.39973C10.9731 6.46291 11.0408 6.53146 11.0999 6.60583C11.1595 6.68021 11.2097 6.75861 11.2505 6.84105C11.2917 6.92349 11.3226 7.00862 11.3432 7.09644C11.3643 7.18381 11.3746 7.27252 11.3746 7.36168Z" fill="white"/>
<path d="M11.0766 8.97603L9.43359 8.35235L10.7956 7.24121L11.0766 8.97603Z" fill="white"/>
<path d="M8.90796 6.72559H10.5841V6.86269H8.90796V6.72559Z" fill="#E08F34"/>
<path d="M8.90796 7.2002H10.5841V7.3373H8.90796V7.2002Z" fill="#E08F34"/>
<path d="M8.90796 7.67383H10.5841V7.81093H8.90796V7.67383Z" fill="#E08F34"/>
<path d="M5.66016 13.2447H5.28874C5.28874 13.2447 5.19017 14.1846 4.43477 14.0216C3.67982 13.8571 3.99793 12.129 3.99793 12.129C3.99793 12.129 3.99793 11.8553 4.45672 11.8772C4.91597 11.8987 5.66016 11.8772 5.66016 11.8772V13.246V13.2447Z" fill="white"/>
<path d="M5.65894 13.2447H6.02991C6.02991 13.2447 6.12893 14.1846 6.88388 14.0216C7.63883 13.8571 7.32072 12.129 7.32072 12.129C7.32072 12.129 7.32072 11.8553 6.86193 11.8772C6.40268 11.8987 5.65894 11.8772 5.65894 11.8772V13.246V13.2447Z" fill="white"/>
<path d="M6.49097 12.2549H6.76517V13.077H6.49097V12.2549Z" fill="#E08F34"/>
<path d="M6.21655 12.5469H7.03871V12.8211H6.21655V12.5469Z" fill="#E08F34"/>
<path d="M5.24462 12.7239C5.24462 12.8211 5.16531 12.9004 5.06764 12.9004C4.97042 12.9004 4.89111 12.8211 4.89111 12.7239C4.89111 12.6262 4.97042 12.5469 5.06764 12.5469C5.16531 12.5469 5.24462 12.6262 5.24462 12.7239ZM5.10752 12.7239C5.10752 12.7019 5.0896 12.684 5.06764 12.684C5.04569 12.684 5.02821 12.7019 5.02821 12.7239C5.02821 12.7458 5.04569 12.7633 5.06764 12.7633C5.0896 12.7633 5.10752 12.7458 5.10752 12.7239Z" fill="#E08F34"/>
<path d="M4.8452 12.3811C4.8452 12.4783 4.7659 12.5581 4.66823 12.5581C4.571 12.5581 4.4917 12.4783 4.4917 12.3811C4.4917 12.2839 4.571 12.2041 4.66823 12.2041C4.7659 12.2041 4.8452 12.2839 4.8452 12.3811ZM4.7081 12.3811C4.7081 12.3591 4.69018 12.3412 4.66823 12.3412C4.64627 12.3412 4.6288 12.3591 4.6288 12.3811C4.6288 12.403 4.64627 12.421 4.66823 12.421C4.69018 12.421 4.7081 12.403 4.7081 12.3811Z" fill="#E08F34"/>
<path d="M4.45116 12.7239C4.45116 12.8211 4.37186 12.9004 4.27463 12.9004C4.17741 12.9004 4.09766 12.8211 4.09766 12.7239C4.09766 12.6262 4.17741 12.5469 4.27463 12.5469C4.37186 12.5469 4.45116 12.6262 4.45116 12.7239ZM4.31406 12.7239C4.31406 12.7019 4.29659 12.684 4.27463 12.684C4.25268 12.684 4.23476 12.7019 4.23476 12.7239C4.23476 12.7458 4.25268 12.7633 4.27463 12.7633C4.29659 12.7633 4.31406 12.7458 4.31406 12.7239Z" fill="#E08F34"/>
<path d="M4.86254 13.1223C4.86254 13.2195 4.78279 13.2988 4.68556 13.2988C4.58834 13.2988 4.50903 13.2195 4.50903 13.1223C4.50903 13.0246 4.58834 12.9453 4.68556 12.9453C4.78279 12.9453 4.86254 13.0246 4.86254 13.1223ZM4.72544 13.1223C4.72544 13.1003 4.70752 13.0824 4.68556 13.0824C4.66361 13.0824 4.64569 13.1003 4.64569 13.1223C4.64569 13.1442 4.66361 13.1617 4.68556 13.1617C4.70752 13.1617 4.72544 13.1442 4.72544 13.1223Z" fill="#E08F34"/>
<path d="M5.5399 19.1342C5.5399 19.2032 5.53138 19.2722 5.51525 19.3399C5.49912 19.408 5.47538 19.4739 5.44357 19.5379C5.41176 19.602 5.37278 19.6629 5.32663 19.7203C5.28048 19.7781 5.22806 19.8314 5.16937 19.8802C5.11067 19.9291 5.0466 19.973 4.9776 20.0115C4.90861 20.05 4.83557 20.0823 4.75896 20.1092C4.68234 20.1356 4.60304 20.1553 4.5215 20.1692C4.4404 20.1827 4.35796 20.1894 4.27507 20.1894C4.19174 20.1894 4.10975 20.1827 4.0282 20.1692C3.94666 20.1553 3.86781 20.1356 3.79074 20.1092C3.71413 20.0823 3.6411 20.05 3.5721 20.0115C3.5031 19.973 3.43948 19.9291 3.38078 19.8802C3.32164 19.8314 3.26922 19.7781 3.22307 19.7203C3.17737 19.6629 3.13839 19.602 3.10658 19.5379C3.07477 19.4739 3.05058 19.408 3.03445 19.3399C3.01832 19.2722 3.01025 19.2032 3.01025 19.1342C3.01025 19.0648 3.01832 18.9962 3.03445 18.9281C3.05058 18.8605 3.07477 18.7946 3.10658 18.7306C3.13839 18.6665 3.17737 18.6056 3.22307 18.5478C3.26922 18.4904 3.32164 18.4371 3.38078 18.3883C3.43948 18.339 3.5031 18.2955 3.5721 18.257C3.6411 18.2184 3.71413 18.1857 3.79074 18.1593C3.86781 18.1329 3.94666 18.1127 4.0282 18.0993C4.10975 18.0858 4.19174 18.0791 4.27507 18.0791C4.35796 18.0791 4.4404 18.0858 4.5215 18.0993C4.60304 18.1127 4.68234 18.1329 4.75896 18.1593C4.83557 18.1857 4.90861 18.2184 4.9776 18.257C5.0466 18.2955 5.11067 18.339 5.16937 18.3883C5.22806 18.4371 5.28048 18.4904 5.32663 18.5478C5.37278 18.6056 5.41176 18.6665 5.44357 18.7306C5.47538 18.7942 5.49912 18.8605 5.51525 18.9281C5.53138 18.9962 5.5399 19.0648 5.5399 19.1342Z" fill="white"/>
<path d="M5.52369 20.8216L4.21899 19.8678L4.98514 19.2979L5.52369 20.8216Z" fill="white"/>
<path d="M4.48985 20.1206C4.48985 20.19 4.48178 20.2586 4.46565 20.3262C4.44907 20.3943 4.42533 20.4602 4.39352 20.5243C4.36171 20.5883 4.32273 20.6493 4.27658 20.7066C4.23043 20.7644 4.17801 20.8177 4.11932 20.8666C4.06062 20.9154 3.99655 20.9593 3.92755 20.9978C3.85856 21.0364 3.78553 21.0686 3.70891 21.0955C3.6323 21.1219 3.55299 21.1417 3.4719 21.1555C3.39035 21.169 3.30791 21.1757 3.22503 21.1757C3.14214 21.1757 3.0597 21.169 2.97816 21.1555C2.89661 21.1417 2.81776 21.1219 2.74114 21.0955C2.66408 21.0686 2.5915 21.0364 2.5225 20.9978C2.45305 20.9593 2.38943 20.9154 2.33074 20.8666C2.27204 20.8177 2.21962 20.7644 2.17347 20.7066C2.12732 20.6493 2.08834 20.5883 2.05653 20.5243C2.02472 20.4602 2.00053 20.3943 1.9844 20.3262C1.96827 20.2586 1.96021 20.19 1.96021 20.1206C1.96021 20.0511 1.96827 19.9826 1.9844 19.9145C2.00053 19.8468 2.02472 19.781 2.05653 19.7169C2.08834 19.6528 2.12732 19.5919 2.17347 19.5345C2.21962 19.4767 2.27204 19.4234 2.33074 19.3746C2.38943 19.3253 2.45305 19.2818 2.5225 19.2433C2.5915 19.2048 2.66408 19.1721 2.74114 19.1456C2.81776 19.1192 2.89661 19.099 2.97816 19.0856C3.0597 19.0722 3.14214 19.0654 3.22503 19.0654C3.30791 19.0654 3.39035 19.0722 3.4719 19.0856C3.55299 19.099 3.6323 19.1192 3.70891 19.1456C3.78553 19.1721 3.85856 19.2048 3.92755 19.2433C3.99655 19.2818 4.06062 19.3253 4.11932 19.3746C4.17801 19.4234 4.23043 19.4767 4.27658 19.5345C4.32273 19.5919 4.36171 19.6528 4.39352 19.7169C4.42533 19.781 4.44907 19.8468 4.46565 19.9145C4.48178 19.9826 4.48985 20.0511 4.48985 20.1206Z" fill="#E08F34"/>
<path d="M3.32232 19.2055C3.39311 19.2117 3.46256 19.222 3.53066 19.2373C3.59921 19.2525 3.66552 19.2722 3.72914 19.2964C3.79277 19.3206 3.8528 19.3488 3.90881 19.3806C3.96526 19.4124 4.01723 19.4478 4.06428 19.4868C4.11132 19.5254 4.15254 19.5666 4.18839 19.6105C4.22423 19.6544 4.2538 19.6996 4.2771 19.7471C4.3004 19.7942 4.31697 19.8426 4.32638 19.8914C4.33624 19.9407 4.33938 19.9895 4.3349 20.0384C4.33086 20.0868 4.32011 20.1347 4.30219 20.1813C4.28471 20.2279 4.26052 20.2727 4.22961 20.3157C4.19869 20.3583 4.16195 20.3986 4.11939 20.4358C4.07682 20.473 4.02933 20.507 3.97646 20.537C3.92359 20.5675 3.86669 20.5939 3.80576 20.6159C3.74482 20.6383 3.6812 20.6558 3.61444 20.6692C3.54769 20.6822 3.47914 20.6907 3.40924 20.6947C3.33935 20.6983 3.269 20.6974 3.19821 20.6912C3.12787 20.6853 3.05843 20.675 2.98987 20.6598C2.92132 20.6441 2.85546 20.6244 2.79184 20.6007C2.72822 20.5765 2.66818 20.5482 2.61173 20.5164C2.55527 20.4842 2.50375 20.4492 2.45671 20.4102C2.40966 20.3717 2.36799 20.3305 2.3326 20.2866C2.29675 20.2427 2.26718 20.1974 2.24389 20.1499C2.22059 20.1024 2.20401 20.0545 2.19415 20.0057C2.1843 19.9564 2.18161 19.9075 2.18564 19.8587C2.18967 19.8099 2.20087 19.7624 2.21835 19.7158C2.23627 19.6687 2.26046 19.6244 2.29138 19.5814C2.32185 19.5383 2.35858 19.4985 2.40115 19.4613C2.44371 19.4241 2.49165 19.39 2.54452 19.3596C2.59694 19.3296 2.65384 19.3031 2.71478 19.2812C2.77571 19.2588 2.83978 19.2413 2.90654 19.2279C2.9733 19.2144 3.0414 19.2064 3.11174 19.2023C3.18164 19.1987 3.25198 19.1996 3.32232 19.2055Z" fill="white"/>
<path d="M4.39476 21.5498L3.23657 20.4879L3.7097 20.1357L4.39476 21.5498Z" fill="white"/>
<path d="M8.14367 24.5752L6.48682 26.3073L8.73285 27.2473L8.83948 26.9937L6.9595 26.2083L8.34081 24.7643L8.14367 24.5752Z" fill="white"/>
<path d="M8.59863 24.5973C8.59863 24.6425 8.59011 24.686 8.57264 24.7276C8.55517 24.7693 8.53052 24.8065 8.49871 24.8383C8.46645 24.8706 8.42972 24.8952 8.38805 24.9122C8.34638 24.9297 8.30247 24.9382 8.25722 24.9382C8.21197 24.9382 8.16851 24.9297 8.12684 24.9122C8.08517 24.8952 8.04798 24.8706 8.01617 24.8383C7.98391 24.8065 7.95927 24.7693 7.94225 24.7276C7.92477 24.686 7.91626 24.6425 7.91626 24.5973C7.91626 24.552 7.92477 24.5086 7.94225 24.4664C7.95927 24.4248 7.98391 24.388 8.01617 24.3558C8.04798 24.324 8.08517 24.2993 8.12684 24.2818C8.16851 24.2648 8.21197 24.2559 8.25722 24.2559C8.30247 24.2559 8.34638 24.2648 8.38805 24.2818C8.42972 24.2993 8.46645 24.324 8.49871 24.3558C8.53052 24.388 8.55517 24.4248 8.57264 24.4664C8.59011 24.5086 8.59863 24.552 8.59863 24.5973Z" fill="white"/>
<path d="M9.05395 27.0744C9.05395 27.1196 9.04544 27.1631 9.02796 27.2052C9.01094 27.2469 8.98629 27.2836 8.95404 27.3159C8.92222 27.3477 8.88504 27.3723 8.84337 27.3898C8.8017 27.4073 8.75824 27.4158 8.71299 27.4158C8.66774 27.4158 8.62428 27.4073 8.58216 27.3898C8.54049 27.3723 8.50375 27.3477 8.4715 27.3159C8.43968 27.2836 8.41504 27.2469 8.39757 27.2052C8.38054 27.1631 8.37158 27.1196 8.37158 27.0744C8.37158 27.0291 8.38054 26.9856 8.39757 26.944C8.41504 26.9023 8.43968 26.8651 8.4715 26.8333C8.50375 26.8011 8.54049 26.7764 8.58216 26.7594C8.62428 26.7419 8.66774 26.7334 8.71299 26.7334C8.75824 26.7334 8.8017 26.7419 8.84337 26.7594C8.88504 26.7764 8.92222 26.8011 8.95404 26.8333C8.98629 26.8651 9.01094 26.9023 9.02796 26.944C9.04544 26.9856 9.05395 27.0291 9.05395 27.0744Z" fill="white"/>
<path d="M12.2553 29.2903C12.28 29.1299 12.1003 29.0228 11.9565 29.0313C11.758 29.0434 11.599 29.2464 11.6084 29.4381C11.6169 29.6205 11.7647 29.8176 11.9646 29.767C12.1881 29.7096 12.2249 29.4587 12.2455 29.2656C12.2553 29.1765 12.4538 29.2244 12.4444 29.319C12.4346 29.4135 12.4225 29.8302 12.6281 29.7137C12.7513 29.6451 12.8131 29.4681 12.8199 29.3355C12.8391 28.9941 12.5389 28.7038 12.2114 28.672C12.0017 28.6518 11.7894 28.7105 11.5976 28.7885C11.4466 28.849 11.2907 28.9542 11.2329 29.1133C11.1191 29.4301 11.2629 29.8602 11.5604 30.0246C11.8579 30.189 12.2141 30.1371 12.5237 30.0918C12.6196 30.0779 12.7267 30.2137 12.5936 30.233C12.2114 30.289 11.7768 30.3221 11.4318 30.1151C11.2441 30.0027 11.111 29.8217 11.0452 29.6138C10.9793 29.4054 10.9672 29.1438 11.0877 28.9542C11.2083 28.7652 11.4292 28.6693 11.6344 28.6052C11.8772 28.5282 12.1415 28.4928 12.3893 28.568C12.7813 28.6886 13.1214 29.0887 12.9977 29.5147C12.939 29.7204 12.7648 29.9287 12.5277 29.8696C12.4184 29.8423 12.3293 29.7656 12.28 29.6657C12.2182 29.5425 12.2334 29.3996 12.2468 29.267L12.4458 29.3203C12.4211 29.5573 12.3593 29.797 12.1129 29.8902C11.9086 29.9673 11.6617 29.8929 11.5264 29.7244C11.3906 29.556 11.366 29.2957 11.5031 29.1106C11.6303 28.9368 11.8512 28.8597 12.0604 28.905C12.2701 28.9502 12.491 29.1093 12.4552 29.3449C12.4417 29.4341 12.2428 29.3848 12.2567 29.2916L12.2553 29.2903Z" fill="white"/>
<path d="M16.6881 2.3916H20.9633C21.0037 2.3916 21.0422 2.39922 21.0794 2.4149C21.1161 2.43013 21.1493 2.45209 21.1775 2.48031C21.2057 2.50899 21.2277 2.5417 21.2429 2.57843C21.2586 2.61562 21.2662 2.6546 21.2662 2.69448V5.55164C21.2662 5.59196 21.2586 5.63049 21.2429 5.66768C21.2277 5.70442 21.2057 5.73713 21.1775 5.7658C21.1493 5.79403 21.1161 5.81598 21.0794 5.83122C21.0422 5.8469 21.0037 5.85451 20.9633 5.85451H16.6881C16.6478 5.85451 16.6093 5.8469 16.5721 5.83122C16.5349 5.81598 16.5022 5.79403 16.474 5.7658C16.4453 5.73713 16.4238 5.70442 16.4081 5.66768C16.3929 5.63049 16.3853 5.59196 16.3853 5.55164V2.69448C16.3853 2.6546 16.3929 2.61562 16.4081 2.57843C16.4238 2.5417 16.4453 2.50899 16.474 2.48031C16.5022 2.45209 16.5349 2.43013 16.5721 2.4149C16.6093 2.39922 16.6478 2.3916 16.6881 2.3916Z" fill="white"/>
<path d="M16.8844 2.55078H20.7667C20.803 2.55078 20.8384 2.55795 20.872 2.57184C20.9056 2.58573 20.9356 2.60544 20.9612 2.63143C20.9871 2.65742 21.0069 2.68699 21.0212 2.72104C21.0351 2.75464 21.0418 2.78959 21.0418 2.82633V5.42004C21.0418 5.45678 21.0351 5.49172 21.0212 5.52578C21.0069 5.55938 20.9871 5.58895 20.9612 5.61494C20.9356 5.64092 20.9056 5.66064 20.872 5.67453C20.8384 5.68842 20.803 5.69558 20.7667 5.69558H16.8844C16.8481 5.69558 16.8127 5.68842 16.7791 5.67453C16.7455 5.66064 16.7155 5.64092 16.6895 5.61494C16.664 5.58895 16.6438 5.55938 16.6299 5.52578C16.6161 5.49172 16.6089 5.45678 16.6089 5.42004V2.82633C16.6089 2.78959 16.6161 2.75464 16.6299 2.72104C16.6438 2.68699 16.664 2.65742 16.6895 2.63143C16.7155 2.60544 16.7455 2.58573 16.7791 2.57184C16.8127 2.55795 16.8481 2.55078 16.8844 2.55078Z" fill="#E08F34"/>
<path d="M17.2305 5.92285H20.4192V6.57341H17.2305V5.92285Z" fill="white"/>
<path d="M16.9064 6.49707H20.7461C20.7855 6.49707 20.8232 6.50469 20.8599 6.51992C20.8962 6.53471 20.9285 6.55621 20.9562 6.58444C20.984 6.61222 21.0055 6.64448 21.0207 6.68077C21.036 6.71706 21.0432 6.75514 21.0432 6.79457C21.0432 6.834 21.036 6.87208 21.0207 6.90837C21.0055 6.94466 20.984 6.97692 20.9562 7.0047C20.9285 7.03248 20.8962 7.05399 20.8599 7.06922C20.8232 7.08445 20.7855 7.09207 20.7461 7.09207H16.9064C16.867 7.09207 16.8289 7.08445 16.7926 7.06922C16.7563 7.05399 16.724 7.03248 16.6963 7.0047C16.6685 6.97692 16.647 6.94466 16.6317 6.90837C16.6165 6.87208 16.6089 6.834 16.6089 6.79457C16.6089 6.75514 16.6165 6.71706 16.6317 6.68077C16.647 6.64448 16.6685 6.61222 16.6963 6.58444C16.724 6.55621 16.7563 6.53471 16.7926 6.51992C16.8289 6.50469 16.867 6.49707 16.9064 6.49707Z" fill="white"/>
<path d="M31.9593 13.5846C31.9593 13.6227 31.9553 13.6607 31.9481 13.6979C31.9405 13.7356 31.9298 13.7718 31.915 13.8072C31.9002 13.8422 31.8823 13.8758 31.8612 13.9076C31.8402 13.9394 31.816 13.9685 31.7891 13.9954C31.7622 14.0223 31.7326 14.0465 31.7008 14.068C31.6695 14.0891 31.6359 14.107 31.6005 14.1213C31.5651 14.1361 31.5288 14.1473 31.4916 14.1545C31.4539 14.1621 31.4163 14.1657 31.3782 14.1657C31.3401 14.1657 31.3021 14.1621 31.2649 14.1545C31.2272 14.1473 31.1909 14.1361 31.156 14.1213C31.1206 14.107 31.087 14.0891 31.0552 14.068C31.0238 14.0465 30.9943 14.0223 30.9674 13.9954C30.9405 13.9685 30.9163 13.9394 30.8952 13.9076C30.8737 13.8758 30.8558 13.8422 30.8415 13.8072C30.8267 13.7718 30.8159 13.7356 30.8083 13.6979C30.8007 13.6607 30.7971 13.6227 30.7971 13.5846C30.7971 13.5465 30.8007 13.5088 30.8083 13.4712C30.8159 13.434 30.8267 13.3977 30.8415 13.3623C30.8558 13.3269 30.8737 13.2938 30.8952 13.262C30.9163 13.2302 30.9405 13.201 30.9674 13.1737C30.9943 13.1468 31.0238 13.1226 31.0552 13.1016C31.087 13.0805 31.1206 13.0626 31.156 13.0478C31.1909 13.0335 31.2272 13.0223 31.2649 13.0147C31.3021 13.0075 31.3401 13.0039 31.3782 13.0039C31.4163 13.0039 31.4539 13.0075 31.4916 13.0147C31.5288 13.0223 31.5651 13.0335 31.6005 13.0478C31.6359 13.0626 31.6695 13.0805 31.7008 13.1016C31.7326 13.1226 31.7622 13.1468 31.7891 13.1737C31.816 13.201 31.8402 13.2302 31.8612 13.262C31.8823 13.2938 31.9002 13.3269 31.915 13.3623C31.9298 13.3977 31.9405 13.434 31.9481 13.4712C31.9553 13.5088 31.9593 13.5465 31.9593 13.5846Z" fill="white"/>
<path d="M30.998 11.3184V11.6212C32.3355 11.6212 33.4233 12.7091 33.4233 14.0465H33.7262C33.7262 12.542 32.5026 11.3184 30.998 11.3184Z" fill="white"/>
<path d="M30.9994 11.8099V12.1128C32.0653 12.1128 32.9327 12.9802 32.9327 14.0461H33.2356C33.2356 12.8127 32.2324 11.8086 30.998 11.8086L30.9994 11.8099Z" fill="white"/>
<path d="M30.998 12.3398V12.6427C31.7723 12.6427 32.4013 13.2718 32.4013 14.046H32.7037C32.7037 13.1047 31.9394 12.3398 30.998 12.3398Z" fill="white"/>
<path d="M32.2069 18.5674H35.3821C35.439 18.5674 35.4941 18.5781 35.547 18.6001C35.5999 18.622 35.6465 18.6534 35.6872 18.6937C35.7276 18.7341 35.7589 18.7807 35.7809 18.8335C35.8028 18.8864 35.8136 18.9415 35.8136 18.9988V20.998C35.8136 21.0554 35.8028 21.1105 35.7809 21.1633C35.7589 21.2162 35.7276 21.2628 35.6872 21.3036C35.6465 21.3439 35.5999 21.3748 35.547 21.3968C35.4941 21.4187 35.439 21.4299 35.3821 21.4299H32.2069C32.1495 21.4299 32.0948 21.4187 32.042 21.3968C31.9887 21.3748 31.9421 21.3439 31.9017 21.3036C31.8614 21.2628 31.8301 21.2162 31.8081 21.1633C31.7861 21.1105 31.7754 21.0554 31.7754 20.998V18.9988C31.7754 18.9415 31.7861 18.8864 31.8081 18.8335C31.8301 18.7807 31.8614 18.7341 31.9017 18.6937C31.9421 18.6534 31.9887 18.622 32.042 18.6001C32.0948 18.5781 32.1495 18.5674 32.2069 18.5674Z" fill="white"/>
<path d="M34.2791 18.9805H35.5407V19.5437H34.2791V18.9805Z" fill="#E08F34"/>
<path d="M34.1864 20.1906C34.1864 20.2627 34.1792 20.3344 34.1649 20.4057C34.151 20.4765 34.1299 20.5454 34.1021 20.6122C34.0748 20.679 34.0408 20.7426 34.0004 20.8026C33.9601 20.8627 33.9149 20.9182 33.8633 20.9697C33.8123 21.0208 33.7567 21.0665 33.6967 21.1064C33.6362 21.1467 33.573 21.1808 33.5063 21.2086C33.439 21.2359 33.3705 21.2569 33.2993 21.2713C33.2285 21.2852 33.1568 21.2923 33.0846 21.2923C33.0121 21.2923 32.9404 21.2852 32.8696 21.2713C32.7988 21.2569 32.7298 21.2359 32.663 21.2086C32.5958 21.1808 32.5327 21.1467 32.4722 21.1064C32.4121 21.0665 32.3566 21.0208 32.3055 20.9697C32.2544 20.9182 32.2087 20.8627 32.1684 20.8026C32.1281 20.7426 32.0945 20.679 32.0667 20.6122C32.0389 20.5454 32.0179 20.4765 32.004 20.4057C31.9896 20.3344 31.9829 20.2627 31.9829 20.1906C31.9829 20.118 31.9896 20.0468 32.004 19.9755C32.0179 19.9048 32.0389 19.8358 32.0667 19.769C32.0945 19.7022 32.1281 19.6386 32.1684 19.5786C32.2087 19.5185 32.2544 19.4625 32.3055 19.4115C32.3566 19.3604 32.4121 19.3147 32.4722 19.2744C32.5327 19.2345 32.5958 19.2004 32.663 19.1727C32.7298 19.1449 32.7988 19.1243 32.8696 19.1099C32.9404 19.096 33.0121 19.0889 33.0846 19.0889C33.1568 19.0889 33.2285 19.096 33.2993 19.1099C33.3705 19.1243 33.439 19.1449 33.5063 19.1727C33.573 19.2004 33.6362 19.2345 33.6967 19.2744C33.7567 19.3147 33.8123 19.3604 33.8633 19.4115C33.9149 19.4625 33.9601 19.5185 34.0004 19.5786C34.0408 19.6386 34.0748 19.7022 34.1021 19.769C34.1299 19.8358 34.151 19.9048 34.1649 19.9755C34.1792 20.0468 34.1864 20.118 34.1864 20.1906Z" fill="#E08F34"/>
<path d="M32.6405 18.1914H33.4461C33.4891 18.1914 33.5308 18.1995 33.5702 18.216C33.6101 18.2326 33.6455 18.2559 33.6759 18.2864C33.7064 18.3169 33.7297 18.3518 33.7463 18.3917C33.7624 18.4316 33.7709 18.4728 33.7709 18.5162C33.7709 18.5592 33.7624 18.6005 33.7463 18.6403C33.7297 18.6802 33.7064 18.7152 33.6759 18.7456C33.6455 18.7761 33.6101 18.7994 33.5702 18.816C33.5308 18.8326 33.4891 18.8406 33.4461 18.8406H32.6405C32.5975 18.8406 32.5558 18.8326 32.5159 18.816C32.4761 18.7994 32.4411 18.7761 32.4107 18.7456C32.3802 18.7152 32.3569 18.6802 32.3403 18.6403C32.3237 18.6005 32.3157 18.5592 32.3157 18.5162C32.3157 18.4728 32.3237 18.4316 32.3403 18.3917C32.3569 18.3518 32.3802 18.3169 32.4107 18.2864C32.4411 18.2559 32.4761 18.2326 32.5159 18.216C32.5558 18.1995 32.5975 18.1914 32.6405 18.1914Z" fill="white"/>
<path d="M28.2016 24.8291H31.0422C31.0623 24.8291 31.0798 24.8363 31.0941 24.8506C31.1089 24.8649 31.1161 24.8824 31.1161 24.903V26.809C31.1161 26.8296 31.1089 26.8471 31.0941 26.8614C31.0798 26.8758 31.0623 26.8829 31.0422 26.8829H28.2016C28.181 26.8829 28.1635 26.8758 28.1492 26.8614C28.1344 26.8471 28.1272 26.8296 28.1272 26.809V24.903C28.1272 24.8824 28.1344 24.8649 28.1492 24.8506C28.1635 24.8363 28.181 24.8291 28.2016 24.8291Z" fill="white"/>
<path d="M28.6208 26.4436L31.3109 24.6689L31.3866 24.7832L28.6961 26.5579L28.6208 26.4436Z" fill="#E08F34"/>
<path d="M27.8596 24.7803L27.9349 24.666L30.6254 26.4407L30.5497 26.555L27.8596 24.7803Z" fill="#E08F34"/>
<path d="M25.0806 28.6758H26.3499V28.885H25.0806V28.6758Z" fill="white"/>
<path d="M25.0806 28.8848H25.2123V30.1581H25.0806V28.8848Z" fill="white"/>
<path d="M26.2173 28.8848H26.349V29.7056H26.2173V28.8848Z" fill="white"/>
<path d="M25.2113 30.1191C25.1907 30.0313 25.0756 29.9986 24.9551 30.0465C24.8345 30.0945 24.7521 30.2056 24.7741 30.2947C24.796 30.3834 24.9098 30.4152 25.0303 30.3673C25.1509 30.3194 25.2333 30.2083 25.2113 30.1191Z" fill="white"/>
<path d="M26.3462 29.665C26.326 29.5772 26.2109 29.5445 26.0899 29.5924C25.9694 29.6403 25.8874 29.751 25.9093 29.8402C25.9313 29.9293 26.0451 29.9607 26.1656 29.9128C26.2861 29.8648 26.3681 29.7542 26.3462 29.665Z" fill="white"/>
<path d="M24.8656 5.4082H29.1413C29.1812 5.4082 29.2197 5.41582 29.2569 5.43105C29.2941 5.44673 29.3268 5.46824 29.355 5.49692C29.3837 5.52514 29.4056 5.55785 29.4209 5.59504C29.4361 5.63222 29.4437 5.67076 29.4437 5.71108V8.56779C29.4437 8.60811 29.4361 8.64665 29.4209 8.68383C29.4056 8.72102 29.3837 8.75373 29.355 8.78195C29.3268 8.81063 29.2941 8.83258 29.2569 8.84782C29.2197 8.86305 29.1812 8.87067 29.1413 8.87067H24.8656C24.8257 8.87067 24.7868 8.86305 24.75 8.84782C24.7128 8.83258 24.6801 8.81063 24.6515 8.78195C24.6232 8.75373 24.6013 8.72102 24.586 8.68383C24.5708 8.64665 24.5627 8.60811 24.5627 8.56779V5.71108C24.5627 5.67076 24.5708 5.63222 24.586 5.59504C24.6013 5.55785 24.6232 5.52514 24.6515 5.49692C24.6801 5.46824 24.7128 5.44673 24.75 5.43105C24.7868 5.41582 24.8257 5.4082 24.8656 5.4082Z" fill="white"/>
<path d="M25.0322 5.60645H28.9745C29.0085 5.60645 29.0412 5.61317 29.0726 5.62616C29.104 5.63915 29.1317 5.65752 29.1559 5.68172C29.1797 5.70546 29.1985 5.73324 29.2115 5.7646C29.2245 5.79597 29.2308 5.82867 29.2308 5.86272V8.06888C29.2308 8.10293 29.2245 8.13564 29.2115 8.167C29.1985 8.19836 29.1797 8.22614 29.1559 8.25034C29.1317 8.27408 29.104 8.2929 29.0726 8.30589C29.0412 8.31889 29.0085 8.32516 28.9745 8.32516H25.0322C24.9986 8.32516 24.9658 8.31889 24.9345 8.30589C24.9027 8.2929 24.8753 8.27408 24.8511 8.25034C24.827 8.22614 24.8086 8.19836 24.7956 8.167C24.7826 8.13564 24.7759 8.10293 24.7759 8.06888V5.86272C24.7759 5.82867 24.7826 5.79597 24.7956 5.7646C24.8086 5.73324 24.827 5.70546 24.8511 5.68172C24.8753 5.65752 24.9027 5.63915 24.9345 5.62616C24.9658 5.61317 24.9986 5.60645 25.0322 5.60645Z" fill="#E08F34"/>
<path d="M26.1667 8.49609H27.8424V8.63319H26.1667V8.49609Z" fill="#E08F34"/>
<path d="M27.9553 8.33161V7.98662C27.9553 7.98662 27.6923 7.83294 27.9553 7.24511V6.21327C27.9553 6.21327 28.0623 5.96819 28.1184 6.43102C28.1511 6.70791 28.199 7.02064 28.199 7.02064C28.199 7.02064 28.3814 6.91894 28.4333 7.00003C28.4857 7.08068 28.6269 6.88757 28.6677 7.06007C28.6677 7.06007 28.8814 7.01885 28.8706 7.16178C28.8706 7.16178 29.0722 7.86475 28.6981 8.08653V8.41136L27.9566 8.33027L27.9553 8.33161Z" fill="white"/>
<path d="M27.3746 5.96228C27.28 5.93764 27.1842 5.99141 27.1255 6.06265C27.0623 6.13926 27.0309 6.24186 27.035 6.34088C27.043 6.52861 27.1707 6.6917 27.3553 6.72843C27.3719 6.73112 27.4033 6.7477 27.3979 6.76965C27.3925 6.79161 27.3567 6.78623 27.3405 6.7831C27.1129 6.7365 26.9319 6.54071 26.9346 6.30235C26.9377 6.06399 27.1362 5.84042 27.3885 5.90762C27.4046 5.91166 27.4364 5.92689 27.431 5.94884C27.4252 5.9708 27.3885 5.96676 27.3732 5.96228H27.3746Z" fill="white"/>
<path d="M26.7147 5.85022C26.5996 5.89413 26.4697 5.97075 26.3805 6.05677C26.2967 6.13787 26.2761 6.28169 26.2694 6.39415C26.2613 6.52721 26.3299 6.64326 26.4078 6.74631C26.4858 6.84891 26.5817 6.94344 26.6874 7.0232C26.7407 7.06397 26.6587 7.08861 26.6229 7.06128C26.5064 6.97212 26.4011 6.87086 26.3133 6.75303C26.234 6.64639 26.1641 6.52721 26.1695 6.39011C26.1735 6.26511 26.1968 6.10785 26.2887 6.016C26.3859 5.91877 26.527 5.83768 26.6547 5.78839C26.6928 5.7745 26.7712 5.82827 26.7134 5.85022H26.7147Z" fill="white"/>
<path d="M28.497 5.85453C28.7453 5.78867 28.9617 6.01045 28.9724 6.24791C28.9836 6.48492 28.8192 6.68475 28.5902 6.73135C28.5669 6.73538 28.5369 6.73135 28.5203 6.71208C28.5069 6.69729 28.5082 6.67803 28.5315 6.674C28.7148 6.63681 28.8546 6.48224 28.8725 6.29585C28.8904 6.12156 28.7726 5.85319 28.5575 5.91053C28.5356 5.91591 28.5038 5.90919 28.4876 5.89127C28.4724 5.87648 28.4764 5.85856 28.4984 5.85319L28.497 5.85453Z" fill="white"/>
<mask id="mask1_338_622" style="mask-type:luminance" maskUnits="userSpaceOnUse" x="0" y="36" width="38" height="3">
<path d="M0.547852 36.6504H37.1367V38.1836H0.547852V36.6504Z" fill="white"/>
</mask>
<g mask="url(#mask1_338_622)">
<path d="M0.563965 36.6768H37.0905V38.1813H0.563965V36.6768Z" fill="#E08F34"/>
</g>
</g>
<defs>
<clipPath id="clip0_338_622">
<rect width="36.2161" height="37.1623" fill="white" transform="translate(0.891846 0.979492)"/>
</clipPath>
</defs>
</svg>
