<svg width="68" height="67" viewBox="0 0 68 67" fill="none" xmlns="http://www.w3.org/2000/svg">
<g id="Group 2611325">
<path id="Vector" d="M64.5473 47.1723L63.1905 46.5624C63.449 45.9846 63.69 45.3992 63.9139 44.8068C64.1379 44.2144 64.3438 43.6162 64.5321 43.0115C64.7204 42.4068 64.8905 41.7975 65.0426 41.1828C65.1946 40.5676 65.3286 39.9495 65.4438 39.3267C65.5595 38.7039 65.6566 38.0788 65.735 37.4501C65.8133 36.822 65.873 36.1916 65.9139 35.5595C65.9549 34.9279 65.9771 34.2951 65.9806 33.6618C65.9841 33.029 65.9689 32.3963 65.935 31.7635C65.9011 31.1314 65.8484 30.5004 65.7771 29.8711C65.7057 29.2425 65.6157 28.6156 65.5075 27.9916C65.3987 27.3682 65.2718 26.7478 65.1268 26.1314C64.9812 25.515 64.818 24.9039 64.6362 24.2969C64.4549 23.6904 64.2555 23.0899 64.0385 22.4945C63.8215 21.8998 63.5864 21.3121 63.335 20.7314C63.0829 20.1501 62.8139 19.5776 62.528 19.0121C62.242 18.4472 61.9397 17.8916 61.6204 17.3442L62.9046 16.5928C63.2379 17.1653 63.5549 17.7472 63.8543 18.3384C64.1531 18.9296 64.435 19.5296 64.6987 20.1372C64.9625 20.7454 65.2081 21.3606 65.435 21.9834C65.6625 22.6056 65.8712 23.2343 66.0613 23.8694C66.2514 24.5045 66.4221 25.1442 66.5742 25.7893C66.7262 26.4343 66.859 27.0834 66.973 27.7366C67.0864 28.3893 67.1806 29.0454 67.2549 29.7039C67.3297 30.3624 67.3847 31.0226 67.4204 31.684C67.456 32.346 67.4718 33.008 67.4683 33.6711C67.4648 34.3337 67.4414 34.9957 67.3981 35.6571C67.3555 36.3185 67.2929 36.9782 67.211 37.6355C67.1286 38.2934 67.0274 38.9478 66.9063 39.5998C66.7853 40.2513 66.6455 40.8986 66.4859 41.5419C66.3268 42.1852 66.1484 42.8232 65.9514 43.4559C65.7543 44.0887 65.5385 44.715 65.3046 45.3349C65.0701 45.9554 64.818 46.5676 64.5473 47.1723Z" fill="#E08F34"/>
<path id="Vector_2" d="M59.2548 13.8485C59.2086 13.7895 59.1677 13.7362 59.1209 13.6854C58.8455 13.3362 58.5636 12.993 58.2741 12.6555C57.9846 12.3181 57.6887 11.9865 57.3852 11.662C57.0823 11.3368 56.7724 11.0181 56.456 10.7058C56.1396 10.3935 55.8168 10.0883 55.4876 9.78945C55.1583 9.49121 54.8232 9.1994 54.4817 8.9146C54.1408 8.6298 53.7934 8.35261 53.4408 8.08244C53.0876 7.81226 52.7297 7.5491 52.3653 7.29413C52.0016 7.03858 51.6326 6.79121 51.2589 6.55086C50.8846 6.31109 50.5057 6.07893 50.1221 5.85495C49.7379 5.63097 49.3496 5.4146 48.9572 5.207C48.5642 4.99881 48.1671 4.79881 47.7659 4.60758C47.3653 4.41635 46.9601 4.23331 46.5513 4.05846C46.1425 3.88419 45.7308 3.7181 45.315 3.56079C44.8993 3.40348 44.4805 3.25495 44.0589 3.1146C43.6367 2.97483 43.2121 2.84384 42.7852 2.72161C42.3577 2.59939 41.9279 2.48594 41.4963 2.38185C41.0642 2.27717 40.6302 2.18185 40.194 2.09588C39.7583 2.00933 39.3203 1.93272 38.8811 1.8643C38.4419 1.79647 38.0016 1.7374 37.5601 1.68769C37.1185 1.63799 36.6759 1.59764 36.2326 1.56664C35.7893 1.53565 35.3454 1.51342 34.9016 1.50056C34.4571 1.48769 34.0127 1.48419 33.5683 1.49003C33.1238 1.49588 32.6799 1.51109 32.2361 1.53506C31.7922 1.55962 31.3495 1.59296 30.9068 1.63565C30.4647 1.67834 30.0232 1.73038 29.5835 1.79179C29.1431 1.85261 28.7045 1.92337 28.2671 2.00231C27.8297 2.08185 27.3946 2.17015 26.9606 2.26781C26.5273 2.36547 26.0957 2.47191 25.6665 2.58769C25.2373 2.7029 24.8109 2.82746 24.387 2.96079C23.963 3.09413 23.5419 3.23623 23.1238 3.38711C22.7057 3.53799 22.2911 3.69764 21.8799 3.86547C21.4682 4.03389 21.0606 4.2105 20.6565 4.3953L20.0349 3.04325C20.4571 2.84968 20.8835 2.66489 21.3139 2.48886C21.7437 2.31343 22.177 2.14617 22.6144 1.98886C23.0513 1.83097 23.4916 1.68243 23.9349 1.54266C24.3776 1.40348 24.8238 1.27307 25.2723 1.15261C25.7209 1.03155 26.1718 0.919857 26.625 0.818103C27.0788 0.715764 27.5337 0.623366 27.9911 0.540325C28.4478 0.457284 28.9068 0.3836 29.3665 0.319272C29.8267 0.25553 30.2881 0.201144 30.7507 0.156114C31.2133 0.111085 31.6764 0.0759972 32.1402 0.0502662C32.6039 0.0245352 33.0683 0.00874561 33.5332 0.00289773C33.9975 -0.00353506 34.4618 -2.61751e-05 34.9267 0.0128393C35.3911 0.0257047 35.8548 0.0485118 36.3185 0.0812604C36.7817 0.113424 37.2443 0.155529 37.7063 0.206991C38.1683 0.259038 38.6285 0.319857 39.0876 0.391202C39.5466 0.461962 40.0045 0.542079 40.4601 0.632138C40.9162 0.721612 41.37 0.821027 41.8215 0.929799C42.2735 1.03857 42.7226 1.1567 43.1694 1.28419C43.6162 1.41167 44.0601 1.54851 44.501 1.69471C44.9425 1.84033 45.38 1.9953 45.815 2.15962C46.2495 2.32395 46.6805 2.49705 47.108 2.67892C47.5355 2.86138 47.9589 3.05202 48.3788 3.25202C48.7981 3.45144 49.2133 3.66021 49.6238 3.87717C50.0349 4.09413 50.4408 4.31927 50.8425 4.55319C51.2437 4.78711 51.6402 5.0298 52.032 5.28009C52.4232 5.53039 52.8092 5.78887 53.1899 6.05553C53.5706 6.32162 53.9455 6.59647 54.3145 6.87834C54.6835 7.16021 55.0472 7.45027 55.4039 7.74735C55.7613 8.04442 56.1121 8.3491 56.4566 8.6608C56.801 8.9725 57.139 9.29179 57.47 9.61752C57.8016 9.94326 58.1256 10.276 58.4431 10.6152C58.7607 10.955 59.0706 11.3006 59.3735 11.6532C59.6765 12.0052 59.9724 12.3637 60.2601 12.7286C60.2999 12.7707 60.3601 12.8479 60.4209 12.9245L59.2548 13.8485Z" fill="#E08F34"/>
<path id="Vector_3" d="M3.57409 47.4464C3.3969 47.0593 3.22731 46.6698 3.06532 46.2768C2.90275 45.8838 2.74836 45.4874 2.60099 45.0885C2.45421 44.6897 2.31444 44.2879 2.18286 43.8838C2.0507 43.4792 1.92672 43.0727 1.81035 42.664C1.69398 42.2546 1.5852 41.8435 1.48462 41.4306C1.38403 41.0172 1.29105 40.6026 1.20626 40.1856C1.12146 39.7692 1.04427 39.3511 0.975262 38.9312C0.906256 38.5119 0.845437 38.0909 0.792221 37.6692C0.739589 37.247 0.69456 36.8242 0.657718 36.4008C0.620876 35.9768 0.59222 35.5528 0.571168 35.1283C0.5507 34.7031 0.537834 34.2786 0.533156 33.8534C0.528478 33.4283 0.532571 33.0031 0.543682 32.578C0.555378 32.1528 0.575261 31.7277 0.602747 31.3037C0.630817 30.8792 0.666489 30.4558 0.710349 30.033C0.754794 29.6096 0.806256 29.1879 0.86649 28.7669C0.926724 28.3458 0.99456 27.9259 1.07058 27.5078C1.14661 27.0891 1.23023 26.6727 1.32205 26.2575C1.41386 25.8423 1.51386 25.4289 1.62088 25.0172C1.72848 24.606 1.84427 24.1967 1.96708 23.7897C2.09047 23.3827 2.22088 22.978 2.35947 22.5762C2.49807 22.1739 2.64427 21.7751 2.79807 21.3786C2.95187 20.9821 3.11328 20.5885 3.2817 20.1979C3.4507 19.8078 3.62673 19.4207 3.80977 19.037C3.99339 18.6534 4.18404 18.2739 4.38228 17.8973C4.57994 17.5207 4.78521 17.1481 4.9969 16.7797C5.20918 16.4113 5.4279 16.047 5.65421 15.6867C5.87994 15.3265 6.11269 14.971 6.35246 14.6195C6.59164 14.268 6.83784 13.9212 7.09047 13.5791C7.3431 13.2376 7.60217 12.9002 7.86766 12.568C8.13316 12.2364 8.40509 11.909 8.68346 11.5873C8.96123 11.2657 9.24486 10.9493 9.53492 10.6382C9.82498 10.3277 10.1209 10.0224 10.4226 9.72241L11.4642 10.7791C11.1759 11.0651 10.8928 11.3569 10.6162 11.654C10.339 11.9511 10.0677 12.2534 9.80217 12.561C9.53667 12.8686 9.27702 13.1809 9.02322 13.4984C8.76942 13.8154 8.52205 14.1376 8.28053 14.4645C8.03901 14.7908 7.80392 15.1224 7.57527 15.4581C7.34603 15.7938 7.12381 16.1335 6.90802 16.478C6.69223 16.8224 6.48287 17.1704 6.27994 17.5224C6.07761 17.8745 5.8817 18.2306 5.69281 18.5903C5.50334 18.9499 5.32146 19.3131 5.14603 19.6791C4.97059 20.0458 4.80275 20.4154 4.64135 20.7885C4.47994 21.1616 4.32614 21.5376 4.17936 21.9166C4.03257 22.2949 3.89281 22.6768 3.76006 23.061C3.6279 23.4446 3.50275 23.8312 3.38521 24.2201C3.26766 24.609 3.15713 25.0002 3.0548 25.3932C2.95187 25.7862 2.85655 26.1815 2.76883 26.578C2.68111 26.9751 2.60099 27.3733 2.52848 27.7727C2.45596 28.1727 2.39047 28.5733 2.33316 28.9756C2.27585 29.378 2.22614 29.7815 2.18462 30.1856C2.14251 30.5897 2.10801 30.9944 2.0817 31.3996C2.05479 31.8055 2.03608 32.2113 2.02497 32.6172C2.01386 33.0236 2.01035 33.4294 2.01503 33.8359C2.01912 34.2423 2.0314 34.6482 2.05129 35.054C2.07058 35.4599 2.09807 35.8651 2.13374 36.2698C2.16883 36.6751 2.21152 37.0786 2.2624 37.4821C2.31269 37.885 2.37117 38.2873 2.43667 38.6879C2.50275 39.0891 2.57643 39.4885 2.65713 39.8868C2.73842 40.285 2.82731 40.6815 2.92322 41.0762C3.01971 41.471 3.12322 41.8634 3.23433 42.2546C3.34544 42.6452 3.46415 43.0336 3.58988 43.4201C3.71561 43.8066 3.84895 44.1903 3.9893 44.5716C4.13023 44.9529 4.2776 45.3312 4.43257 45.7066C4.58754 46.0821 4.74953 46.4546 4.91854 46.8242L3.57409 47.4464Z" fill="#E08F34"/>
<g id="Clip path group">
<mask id="mask0_308_4902" style="mask-type:luminance" maskUnits="userSpaceOnUse" x="3" y="26" width="62" height="42">
<g id="566c0fb8d5">
<path id="Vector_4" d="M3.44116 26.6775H64.5219V67.0003H3.44116V26.6775Z" fill="white"/>
</g>
</mask>
<g mask="url(#mask0_308_4902)">
<g id="Group">
<path id="Vector_5" d="M62.2614 66.9546H5.73441C5.58821 66.9546 5.44319 66.94 5.29933 66.9114C5.15547 66.8827 5.01628 66.8406 4.88061 66.7845C4.74552 66.7283 4.61687 66.6599 4.49523 66.578C4.37301 66.4967 4.26014 66.4043 4.15663 66.3008C4.05313 66.1973 3.96073 66.0844 3.87944 65.9622C3.79815 65.8406 3.72915 65.7119 3.67301 65.5768C3.61687 65.4412 3.57476 65.3014 3.54611 65.1581C3.51745 65.0143 3.50342 64.8692 3.50342 64.7225V29.0137C3.50342 28.8669 3.51745 28.7218 3.54611 28.578C3.57476 28.4341 3.61687 28.2949 3.67301 28.1593C3.72915 28.0242 3.79815 27.8955 3.87944 27.7733C3.96073 27.6517 4.05313 27.5388 4.15663 27.4353C4.26014 27.3318 4.37301 27.2394 4.49523 27.1575C4.61687 27.0762 4.74552 27.0078 4.88061 26.9517C5.01628 26.8955 5.15547 26.8528 5.29933 26.8248C5.44319 26.7961 5.58821 26.7815 5.73441 26.7815H45.1543V28.2692H5.73441C5.68588 28.2692 5.63734 28.2745 5.58938 28.2838C5.54143 28.2932 5.49523 28.3072 5.4502 28.3259C5.40459 28.3447 5.3619 28.3675 5.32155 28.3949C5.28061 28.4218 5.24319 28.4528 5.20868 28.4873C5.17418 28.5218 5.14319 28.5593 5.11628 28.6002C5.0888 28.6406 5.06599 28.6838 5.04728 28.7289C5.02857 28.7739 5.01453 28.8207 5.00517 28.868C4.99582 28.916 4.99055 28.9645 4.99055 29.0137V64.7225C4.99055 64.7716 4.99582 64.8195 5.00517 64.8675C5.01453 64.9154 5.02857 64.9622 5.04728 65.0073C5.06599 65.0523 5.0888 65.095 5.11628 65.1359C5.14319 65.1763 5.17418 65.2143 5.20868 65.2488C5.24319 65.2833 5.28061 65.3137 5.32155 65.3412C5.3619 65.3681 5.40459 65.3909 5.4502 65.4096C5.49523 65.4283 5.54143 65.4429 5.58938 65.4523C5.63734 65.4616 5.68588 65.4663 5.73441 65.4663H62.2614C62.3099 65.4663 62.3584 65.4616 62.4064 65.4523C62.4543 65.4429 62.5005 65.4283 62.5462 65.4096C62.5912 65.3909 62.6339 65.3681 62.6748 65.3412C62.7152 65.3137 62.7526 65.2833 62.7871 65.2488C62.8216 65.2143 62.8526 65.1763 62.8795 65.1359C62.907 65.095 62.9298 65.0523 62.9485 65.0073C62.9672 64.9622 62.9812 64.9154 62.9906 64.8675C63.0005 64.8195 63.0052 64.7716 63.0052 64.7225V29.0137C63.0052 28.9645 63.0005 28.916 62.9906 28.868C62.9812 28.8207 62.9672 28.7739 62.9485 28.7289C62.9298 28.6838 62.907 28.6406 62.8795 28.6002C62.8526 28.5593 62.8216 28.5218 62.7871 28.4873C62.7526 28.4528 62.7152 28.4218 62.6748 28.3949C62.6339 28.3675 62.5912 28.3447 62.5462 28.3259C62.5005 28.3072 62.4543 28.2932 62.4064 28.2838C62.3584 28.2745 62.3099 28.2692 62.2614 28.2692H51.8485V26.7815H62.2614C62.4076 26.7815 62.5532 26.7961 62.6964 26.8248C62.8403 26.8528 62.9801 26.8955 63.1152 26.9517C63.2508 27.0078 63.3789 27.0762 63.5011 27.1575C63.6228 27.2394 63.7356 27.3318 63.8391 27.4353C63.9426 27.5388 64.035 27.6517 64.1163 27.7733C64.1982 27.8955 64.2666 28.0242 64.3228 28.1593C64.3789 28.2949 64.421 28.4341 64.4497 28.578C64.4783 28.7218 64.4923 28.8669 64.4923 29.0137V64.7225C64.4923 64.8692 64.4783 65.0143 64.4497 65.1581C64.421 65.3014 64.3789 65.4412 64.3228 65.5768C64.2666 65.7119 64.1982 65.8406 64.1163 65.9622C64.035 66.0844 63.9426 66.1973 63.8391 66.3008C63.7356 66.4043 63.6228 66.4967 63.5011 66.578C63.3789 66.6599 63.2508 66.7283 63.1152 66.7845C62.9801 66.8406 62.8403 66.8827 62.6964 66.9114C62.5532 66.94 62.4076 66.9546 62.2614 66.9546Z" fill="#E08F34"/>
</g>
</g>
</g>
<path id="Vector_6" d="M60.7757 63.9784H11.6867C11.6382 63.9784 11.5897 63.9737 11.5417 63.9644C11.4937 63.9544 11.4475 63.9404 11.4019 63.9217C11.3569 63.903 11.3142 63.8802 11.2739 63.8533C11.2329 63.8258 11.1955 63.7948 11.161 63.7603C11.1265 63.7258 11.0955 63.6883 11.0686 63.648C11.0411 63.6071 11.0183 63.5644 10.9996 63.5193C10.9809 63.4743 10.9668 63.4275 10.9575 63.3796C10.9475 63.3316 10.9429 63.2831 10.9429 63.2345V30.5012C10.9429 30.4521 10.9475 30.4041 10.9575 30.3562C10.9668 30.3082 10.9809 30.2614 10.9996 30.2164C11.0183 30.1714 11.0411 30.1287 11.0686 30.0877C11.0955 30.0474 11.1265 30.0094 11.161 29.9749C11.1955 29.9404 11.2329 29.91 11.2739 29.8825C11.3142 29.8556 11.3569 29.8328 11.4019 29.814C11.4475 29.7953 11.4937 29.7807 11.5417 29.7714C11.5897 29.762 11.6382 29.7573 11.6867 29.7573H42.1815V31.245H12.4306V62.4907H60.0318V31.245H48.8756V29.7573H60.7757C60.8248 29.7573 60.8727 29.762 60.9207 29.7714C60.9686 29.7807 61.0154 29.7953 61.0604 29.814C61.1055 29.8328 61.1482 29.8556 61.1891 29.8825C61.2295 29.91 61.2675 29.9404 61.302 29.9749C61.3365 30.0094 61.3669 30.0474 61.3944 30.0877C61.4213 30.1287 61.4441 30.1714 61.4628 30.2164C61.4815 30.2614 61.4955 30.3082 61.5055 30.3562C61.5148 30.4041 61.5195 30.4521 61.5195 30.5012V63.2345C61.5195 63.2831 61.5148 63.3316 61.5055 63.3796C61.4955 63.4275 61.4815 63.4743 61.4628 63.5193C61.4441 63.5644 61.4213 63.6071 61.3944 63.648C61.3669 63.6883 61.3365 63.7258 61.302 63.7603C61.2675 63.7948 61.2295 63.8258 61.1891 63.8533C61.1482 63.8802 61.1055 63.903 61.0604 63.9217C61.0154 63.9404 60.9686 63.9544 60.9207 63.9644C60.8727 63.9737 60.8248 63.9784 60.7757 63.9784Z" fill="#E08F34"/>
<path id="Vector_7" d="M7.96722 51.3318C7.82102 51.3318 7.6754 51.3242 7.52979 51.3102C7.38417 51.2955 7.23973 51.2745 7.09645 51.2458C6.95318 51.2172 6.81166 51.1821 6.67189 51.1394C6.53213 51.0967 6.3947 51.0476 6.25961 50.992C6.12452 50.9359 5.99236 50.8733 5.8637 50.8043C5.73447 50.7359 5.60932 50.6604 5.48768 50.5792C5.36604 50.4979 5.24908 50.4113 5.13622 50.3183C5.02335 50.2259 4.91517 50.1277 4.81166 50.0242C4.70815 49.9207 4.61049 49.8125 4.5175 49.6996C4.42452 49.5868 4.33797 49.4692 4.25669 49.3476C4.1754 49.2265 4.10055 49.1008 4.03154 48.9721C3.96253 48.8429 3.89996 48.7113 3.84441 48.5762C3.78826 48.4411 3.73914 48.3037 3.69645 48.164C3.65435 48.0236 3.61867 47.8821 3.59002 47.7388C3.56195 47.5955 3.54031 47.4511 3.52628 47.3055C3.51166 47.1599 3.50464 47.0142 3.50464 46.868C3.50464 46.7218 3.51166 46.5762 3.52628 46.4306C3.54031 46.285 3.56195 46.1406 3.59002 45.9973C3.61867 45.854 3.65435 45.7119 3.69645 45.5721C3.73914 45.4324 3.78826 45.2949 3.84441 45.1599C3.89996 45.0248 3.96253 44.8926 4.03154 44.7639C4.10055 44.6347 4.1754 44.5096 4.25669 44.3879C4.33797 44.2663 4.42452 44.1493 4.5175 44.0365C4.61049 43.923 4.70815 43.8148 4.81166 43.7119C4.91517 43.6084 5.02335 43.5101 5.13622 43.4177C5.24908 43.3248 5.36604 43.2376 5.48768 43.1563C5.60932 43.0756 5.73447 43.0002 5.8637 42.9312C5.99236 42.8622 6.12452 42.8002 6.25961 42.7441C6.3947 42.6879 6.53213 42.6388 6.67189 42.5967C6.81166 42.554 6.95318 42.5183 7.09645 42.4903C7.23973 42.4616 7.38417 42.44 7.52979 42.4259C7.6754 42.4113 7.82102 42.4043 7.96722 42.4043C8.11341 42.4043 8.25903 42.4113 8.40464 42.4259C8.55026 42.44 8.6947 42.4616 8.83798 42.4903C8.98125 42.5183 9.12277 42.554 9.26254 42.5967C9.4023 42.6388 9.53973 42.6879 9.67482 42.7441C9.80991 42.8002 9.94207 42.8622 10.0707 42.9312C10.2 43.0002 10.3251 43.0756 10.4467 43.1563C10.5678 43.2376 10.6853 43.3248 10.7982 43.4177C10.9111 43.5101 11.0193 43.6084 11.1228 43.7119C11.2263 43.8148 11.3239 43.923 11.4169 44.0365C11.5093 44.1493 11.5965 44.2663 11.6777 44.3879C11.759 44.5096 11.8339 44.6347 11.9029 44.7639C11.9719 44.8926 12.0339 45.0248 12.09 45.1599C12.1462 45.2949 12.1953 45.4324 12.2374 45.5721C12.2801 45.7119 12.3158 45.854 12.3438 45.9973C12.3725 46.1406 12.3941 46.285 12.4082 46.4306C12.4228 46.5762 12.4298 46.7218 12.4298 46.868C12.4298 47.0142 12.4222 47.1599 12.4082 47.3055C12.3935 47.4505 12.3719 47.5949 12.3432 47.7382C12.3146 47.8821 12.2789 48.0236 12.2368 48.1634C12.1941 48.3031 12.145 48.4406 12.0889 48.5756C12.0327 48.7101 11.9707 48.8423 11.9017 48.971C11.8327 49.1002 11.7573 49.2254 11.6766 49.347C11.5953 49.468 11.5082 49.5856 11.4152 49.6985C11.3228 49.8113 11.2245 49.9195 11.1216 50.023C11.0181 50.1265 10.9099 50.2242 10.797 50.3172C10.6842 50.4096 10.5666 50.4967 10.4456 50.578C10.3239 50.6593 10.1988 50.7341 10.0701 50.8031C9.9409 50.8721 9.80932 50.9347 9.67423 50.9909C9.53915 51.0464 9.40172 51.0961 9.26195 51.1382C9.12219 51.1809 8.98067 51.2166 8.83739 51.2452C8.69412 51.2739 8.54967 51.2955 8.40464 51.3096C8.25903 51.3242 8.11341 51.3312 7.96722 51.3318ZM7.96722 43.892C7.86955 43.892 7.77248 43.8973 7.6754 43.9066C7.57833 43.916 7.48242 43.9306 7.38651 43.9493C7.29119 43.9686 7.19704 43.992 7.10347 44.0201C7.01049 44.0487 6.91868 44.0815 6.82862 44.1189C6.73856 44.1558 6.65084 44.1979 6.56487 44.2435C6.47891 44.2897 6.39528 44.3394 6.314 44.3938C6.2333 44.4476 6.15493 44.5061 6.07949 44.5675C6.00464 44.6294 5.93213 44.6949 5.8637 44.7639C5.7947 44.833 5.7292 44.9049 5.66721 44.9803C5.60581 45.0558 5.54733 45.1335 5.49353 45.2148C5.43914 45.2955 5.38944 45.3792 5.34324 45.4651C5.29762 45.5511 5.2561 45.6394 5.21868 45.7294C5.18125 45.8195 5.1485 45.9107 5.12043 46.0043C5.09177 46.0973 5.06838 46.192 5.04908 46.2873C5.03037 46.3832 5.01575 46.4792 5.00639 46.5762C4.99704 46.6733 4.99177 46.7704 4.99177 46.868C4.99177 46.9657 4.99704 47.0628 5.00639 47.1599C5.01575 47.2563 5.03037 47.3528 5.04908 47.4487C5.06838 47.5441 5.09177 47.6388 5.12043 47.7318C5.1485 47.8248 5.18125 47.9166 5.21868 48.0066C5.2561 48.0967 5.29762 48.185 5.34324 48.271C5.38944 48.3569 5.43914 48.44 5.49353 48.5213C5.54733 48.602 5.60581 48.6803 5.66721 48.7558C5.7292 48.8312 5.7947 48.9031 5.8637 48.9721C5.93213 49.0411 6.00464 49.1066 6.07949 49.168C6.15493 49.23 6.2333 49.2879 6.314 49.3423C6.39528 49.3961 6.47891 49.4464 6.56487 49.4926C6.65084 49.5382 6.73856 49.5797 6.82862 49.6172C6.91868 49.6546 7.01049 49.6873 7.10347 49.7154C7.19704 49.7441 7.29119 49.7675 7.38651 49.7868C7.48242 49.8055 7.57833 49.8201 7.6754 49.8294C7.77248 49.8388 7.86955 49.8435 7.96722 49.8435C8.06488 49.8435 8.16195 49.8388 8.25903 49.8294C8.35552 49.8201 8.45201 49.8055 8.54733 49.7868C8.64324 49.7675 8.73739 49.7441 8.83096 49.7154C8.92394 49.6873 9.01575 49.6546 9.10581 49.6172C9.19587 49.5797 9.28359 49.5382 9.36956 49.4926C9.45552 49.4464 9.53915 49.3961 9.61985 49.3423C9.70113 49.2879 9.7795 49.23 9.85435 49.168C9.92979 49.1066 10.0017 49.0411 10.0707 48.9721C10.1397 48.9031 10.2052 48.8312 10.2672 48.7558C10.3286 48.6803 10.3865 48.602 10.4409 48.5213C10.4947 48.44 10.545 48.3569 10.5912 48.271C10.6368 48.185 10.6783 48.0967 10.7158 48.0066C10.7532 47.9166 10.7859 47.8248 10.814 47.7318C10.8427 47.6388 10.866 47.5441 10.8853 47.4487C10.9041 47.3528 10.9181 47.2563 10.928 47.1599C10.9374 47.0628 10.9421 46.9657 10.9421 46.868C10.9421 46.7704 10.9374 46.6733 10.928 46.5762C10.9181 46.4792 10.9041 46.3832 10.8853 46.2873C10.866 46.192 10.8427 46.0973 10.814 46.0043C10.7859 45.9107 10.7532 45.8195 10.7158 45.7294C10.6783 45.6394 10.6368 45.5511 10.5912 45.4651C10.545 45.3792 10.4947 45.2955 10.4409 45.2148C10.3865 45.1335 10.3286 45.0558 10.2672 44.9803C10.2052 44.9049 10.1397 44.833 10.0707 44.7639C10.0017 44.6949 9.92979 44.6294 9.85435 44.5675C9.7795 44.5061 9.70113 44.4476 9.61985 44.3938C9.53915 44.3394 9.45552 44.2897 9.36956 44.2435C9.28359 44.1979 9.19587 44.1558 9.10581 44.1189C9.01575 44.0815 8.92394 44.0487 8.83096 44.0201C8.73739 43.992 8.64324 43.9686 8.54733 43.9493C8.45201 43.9306 8.35552 43.916 8.25903 43.9066C8.16195 43.8973 8.06488 43.892 7.96722 43.892Z" fill="#E08F34"/>
<path id="Vector_8" d="M4.24805 31.9885H11.6855V33.4762H4.24805V31.9885Z" fill="#E08F34"/>
<path id="Vector_9" d="M4.24805 39.4285H11.6855V40.9162H4.24805V39.4285Z" fill="#E08F34"/>
<path id="Vector_10" d="M4.24805 52.8191H11.6855V54.3068H4.24805V52.8191Z" fill="#E08F34"/>
<path id="Vector_11" d="M4.24805 60.2585H11.6855V61.7469H4.24805V60.2585Z" fill="#E08F34"/>
<path id="Vector_12" d="M4.24805 35.709H11.6855V37.1967H4.24805V35.709Z" fill="#E08F34"/>
<path id="Vector_13" d="M4.24805 56.5393H11.6855V58.027H4.24805V56.5393Z" fill="#E08F34"/>
<path id="Vector_14" d="M7.22607 32.7327H8.71379V40.1724H7.22607V32.7327Z" fill="#E08F34"/>
<path id="Vector_15" d="M7.22607 53.5632H8.71379V61.0024H7.22607V53.5632Z" fill="#E08F34"/>
<path id="Vector_16" d="M38.9293 41.0053C38.8714 41.0053 38.8146 40.9989 38.7579 40.9855C38.6334 40.9562 38.5228 40.8977 38.4281 40.8112C38.3328 40.7246 38.2649 40.62 38.224 40.4983L37.7521 39.0849L36.9427 38.2761L35.5293 37.803C35.4994 37.7931 35.4702 37.7808 35.4421 37.7673C35.4135 37.7533 35.3866 37.7381 35.3597 37.7205C35.3334 37.7036 35.3082 37.6849 35.2842 37.6644C35.2603 37.6439 35.2374 37.6217 35.2164 37.5989C35.1953 37.5755 35.1755 37.551 35.1573 37.5252C35.1392 37.4989 35.1228 37.4726 35.1082 37.4445C35.0936 37.4165 35.0807 37.3878 35.0696 37.358C35.0585 37.3287 35.0491 37.2983 35.0421 37.2679C35.0351 37.2369 35.0298 37.2059 35.0263 37.1749C35.0234 37.1434 35.0217 37.1118 35.0228 37.0802C35.0234 37.0492 35.0263 37.0176 35.031 36.9866C35.0357 36.955 35.0421 36.9246 35.0509 36.8942C35.0597 36.8638 35.0702 36.834 35.0825 36.8053C35.0948 36.7761 35.1088 36.748 35.1252 36.7205C35.141 36.6936 35.1585 36.6673 35.1778 36.6428C35.1971 36.6176 35.2181 36.5942 35.2404 36.572L60.4837 11.3223C60.5182 11.2878 60.5562 11.2568 60.5965 11.2299C60.6369 11.203 60.6802 11.1802 60.7252 11.1615C60.7702 11.1427 60.8164 11.1281 60.8644 11.1188C60.9123 11.1094 60.9609 11.1047 61.0094 11.1047C61.0585 11.1047 61.1071 11.1094 61.1544 11.1188C61.2024 11.1281 61.2492 11.1427 61.2942 11.1615C61.3392 11.1802 61.3819 11.203 61.4228 11.2299C61.4632 11.2568 61.5012 11.2878 61.5357 11.3223L64.6965 14.4843C64.731 14.5188 64.762 14.5562 64.7889 14.5971C64.8158 14.6375 64.8392 14.6802 64.8579 14.7252C64.8767 14.7708 64.8907 14.817 64.9 14.865C64.9094 14.9129 64.9141 14.9615 64.9141 15.01C64.9141 15.0591 64.9094 15.1071 64.9 15.155C64.8907 15.203 64.8767 15.2498 64.8579 15.2948C64.8392 15.3398 64.8158 15.3825 64.7889 15.4235C64.762 15.4638 64.731 15.5018 64.6965 15.5363L39.455 40.7884C39.3854 40.858 39.3047 40.9118 39.2141 40.9492C39.1228 40.9866 39.0281 41.0059 38.9293 41.0053ZM37.1445 36.7761L37.5807 36.9252C37.6918 36.9621 37.7883 37.0217 37.8708 37.1042L38.9269 38.1609C39.0094 38.2434 39.069 38.3398 39.1065 38.451L39.255 38.8884L63.1211 15.0123L61.0117 12.9024L37.1445 36.7761Z" fill="#E08F34"/>
<path id="Vector_17" d="M33.6665 43.1111C33.6057 43.1111 33.546 43.1035 33.487 43.0889C33.4279 43.0743 33.3718 43.0526 33.318 43.024C33.2642 42.9959 33.215 42.9614 33.1694 42.9205C33.1244 42.8801 33.0846 42.8345 33.0507 42.7842C33.0168 42.7339 32.9893 42.6801 32.9683 42.6234C32.9472 42.5661 32.9338 42.5076 32.9267 42.4468C32.9203 42.3866 32.9215 42.3263 32.9297 42.2661C32.9378 42.2059 32.9531 42.1474 32.9759 42.0906L35.0805 36.824L36.4624 37.376L35.001 41.0322L38.6566 39.5702L39.208 40.9526L33.9419 43.0579C33.8536 43.093 33.7618 43.1111 33.6665 43.1111Z" fill="#E08F34"/>
<path id="Vector_18" d="M57.3369 15.5389L58.3884 14.4868L61.5422 17.6406L60.4901 18.6927L57.3369 15.5389Z" fill="#E08F34"/>
<path id="Vector_19" d="M55.7573 17.1155L56.8094 16.0635L59.9632 19.2179L58.9111 20.2699L55.7573 17.1155Z" fill="#E08F34"/>
<path id="Vector_20" d="M24.3316 17.8545H10.9433C10.8948 17.8545 10.8462 17.8493 10.7983 17.8399C10.7503 17.8306 10.7041 17.8165 10.6591 17.7978C10.6135 17.7791 10.5708 17.7563 10.5305 17.7288C10.4895 17.7019 10.4521 17.6709 10.4176 17.6364C10.3831 17.6019 10.3521 17.5645 10.3252 17.5236C10.2977 17.4832 10.2749 17.4399 10.2562 17.3949C10.2375 17.3499 10.2234 17.3037 10.2141 17.2557C10.2047 17.2078 10.1995 17.1592 10.1995 17.1101V3.71945C10.1995 3.67032 10.2047 3.62237 10.2141 3.57442C10.2234 3.52646 10.2375 3.47968 10.2562 3.43465C10.2749 3.38962 10.2977 3.34693 10.3252 3.306C10.3521 3.26564 10.3831 3.22822 10.4176 3.19313C10.4521 3.15863 10.4895 3.12822 10.5305 3.10073C10.5708 3.07383 10.6135 3.05102 10.6591 3.03231C10.7041 3.0136 10.7503 2.99956 10.7983 2.98962C10.8462 2.98026 10.8948 2.97559 10.9433 2.97559H24.3316C24.3802 2.97559 24.4287 2.98026 24.4767 2.98962C24.5246 2.99956 24.5708 3.0136 24.6158 3.03231C24.6609 3.05102 24.7042 3.07383 24.7445 3.10073C24.7854 3.12822 24.8229 3.15863 24.8574 3.19313C24.8919 3.22822 24.9229 3.26564 24.9498 3.306C24.9767 3.34693 25.0001 3.38962 25.0188 3.43465C25.0375 3.47968 25.0515 3.52646 25.0609 3.57442C25.0702 3.62237 25.0749 3.67032 25.0749 3.71945V17.1101C25.0749 17.1592 25.0702 17.2078 25.0609 17.2557C25.0515 17.3037 25.0375 17.3499 25.0188 17.3949C25.0001 17.4399 24.9767 17.4832 24.9498 17.5236C24.9229 17.5645 24.8919 17.6019 24.8574 17.6364C24.8229 17.6709 24.7854 17.7019 24.7445 17.7288C24.7042 17.7563 24.6609 17.7791 24.6158 17.7978C24.5708 17.8165 24.5246 17.8306 24.4767 17.8399C24.4287 17.8493 24.3802 17.8545 24.3316 17.8545ZM11.6872 16.3662H23.5878V4.46331H11.6872V16.3662Z" fill="#E08F34"/>
<path id="Vector_21" d="M24.3323 24.5499C24.0884 24.5493 23.8458 24.537 23.6031 24.513C23.361 24.489 23.1206 24.4534 22.8814 24.4054C22.6428 24.3575 22.4072 24.2984 22.1738 24.2276C21.9411 24.1569 21.7118 24.0744 21.4873 23.9814C21.2621 23.8879 21.0422 23.7838 20.8276 23.6692C20.613 23.554 20.4042 23.4288 20.2019 23.2937C19.9996 23.158 19.8042 23.013 19.6159 22.8586C19.4276 22.7042 19.2475 22.5405 19.075 22.3686C18.9031 22.1961 18.7399 22.0159 18.5849 21.8276C18.4305 21.6393 18.2855 21.444 18.1504 21.2417C18.0148 21.0387 17.8896 20.8306 17.775 20.6154C17.6604 20.4007 17.5563 20.1808 17.4627 19.9563C17.3691 19.7311 17.2873 19.5019 17.2165 19.2692C17.1457 19.0358 17.0861 18.8001 17.0387 18.561C16.9908 18.3224 16.9551 18.0814 16.9311 17.8393C16.9066 17.5966 16.8949 17.3539 16.8943 17.1101H18.382C18.382 17.3054 18.3914 17.4996 18.4107 17.6937C18.4294 17.8879 18.458 18.0803 18.496 18.2715C18.5341 18.4627 18.5814 18.6516 18.6381 18.8382C18.6949 19.0247 18.7604 19.2077 18.8346 19.3879C18.9095 19.568 18.9925 19.744 19.0843 19.9159C19.1762 20.0879 19.2762 20.2545 19.3849 20.4171C19.4931 20.5791 19.6089 20.7352 19.7323 20.8861C19.8563 21.0364 19.9867 21.1808 20.1247 21.3189C20.2627 21.4563 20.4066 21.5873 20.5574 21.7107C20.7077 21.8347 20.8645 21.9504 21.0265 22.0586C21.1884 22.1674 21.3551 22.2674 21.527 22.3592C21.699 22.451 21.875 22.5341 22.0551 22.6089C22.2352 22.6832 22.4183 22.7493 22.6048 22.8054C22.7914 22.8621 22.9803 22.9095 23.1715 22.9475C23.3621 22.9855 23.5551 23.0142 23.7487 23.0335C23.9428 23.0522 24.137 23.0621 24.3323 23.0621C24.527 23.0621 24.7212 23.0522 24.9153 23.0335C25.1095 23.0142 25.3019 22.9855 25.4931 22.9475C25.6838 22.9095 25.8727 22.8621 26.0592 22.8054C26.2458 22.7493 26.4288 22.6832 26.6089 22.6089C26.789 22.5341 26.9651 22.451 27.137 22.3592C27.3089 22.2674 27.4756 22.1674 27.6376 22.0586C27.7996 21.9504 27.9563 21.8347 28.1066 21.7107C28.2575 21.5873 28.4019 21.4563 28.5393 21.3189C28.6773 21.1808 28.8077 21.0364 28.9317 20.8861C29.0551 20.7352 29.1709 20.5791 29.2797 20.4171C29.3879 20.2545 29.4879 20.0879 29.5797 19.9159C29.6715 19.744 29.7545 19.568 29.8294 19.3879C29.9037 19.2077 29.9697 19.0247 30.0259 18.8382C30.0826 18.6516 30.13 18.4627 30.168 18.2715C30.206 18.0803 30.2346 17.8879 30.2534 17.6937C30.2727 17.4996 30.282 17.3054 30.282 17.1101C30.282 16.9153 30.2727 16.7212 30.2534 16.527C30.2346 16.3329 30.206 16.1405 30.168 15.9493C30.13 15.758 30.0826 15.5691 30.0259 15.3826C29.9697 15.196 29.9037 15.013 29.8294 14.8329C29.7545 14.6528 29.6715 14.4767 29.5797 14.3048C29.4879 14.1329 29.3879 13.9656 29.2797 13.8037C29.1709 13.6417 29.0551 13.4855 28.9317 13.3346C28.8077 13.1844 28.6773 13.0399 28.5393 12.9019C28.4019 12.7639 28.2575 12.6335 28.1066 12.5095C27.9563 12.3861 27.7996 12.2703 27.6376 12.1621C27.4756 12.0534 27.3089 11.9534 27.137 11.8615C26.9651 11.7697 26.789 11.6867 26.6089 11.6118C26.4288 11.537 26.2458 11.4715 26.0592 11.4153C25.8727 11.3586 25.6838 11.3113 25.4931 11.2732C25.3019 11.2352 25.1095 11.2066 24.9153 11.1873C24.7212 11.1686 24.527 11.1586 24.3323 11.1586V9.6709C24.5756 9.6709 24.8183 9.68318 25.061 9.70716C25.3031 9.73113 25.544 9.7668 25.7826 9.81417C26.0218 9.86213 26.2575 9.92119 26.4908 9.99195C26.7235 10.0627 26.9528 10.1446 27.1773 10.2382C27.4025 10.3311 27.6224 10.4352 27.837 10.5504C28.0522 10.6651 28.2604 10.7902 28.4633 10.9259C28.6656 11.061 28.861 11.206 29.0493 11.3604C29.2376 11.5153 29.4177 11.6785 29.5896 11.851C29.7621 12.0229 29.9253 12.2036 30.0797 12.392C30.2341 12.5803 30.3791 12.7756 30.5142 12.9779C30.6493 13.1808 30.7744 13.389 30.8896 13.6042C31.0042 13.8189 31.1083 14.0387 31.2013 14.2639C31.2943 14.489 31.3762 14.7183 31.4469 14.951C31.5177 15.1844 31.5768 15.4206 31.6241 15.6592C31.6721 15.8984 31.7077 16.1387 31.7311 16.3814C31.7551 16.6235 31.7674 16.8668 31.7674 17.1101C31.7674 17.3539 31.7551 17.5972 31.7311 17.8393C31.7077 18.082 31.6721 18.3224 31.6241 18.5615C31.5768 18.8001 31.5177 19.0364 31.4469 19.2692C31.3762 19.5025 31.2943 19.7317 31.2013 19.9569C31.1083 20.182 31.0042 20.4019 30.8896 20.6165C30.7744 20.8311 30.6493 21.0399 30.5142 21.2428C30.3791 21.4452 30.2341 21.6405 30.0797 21.8288C29.9253 22.0171 29.7621 22.1978 29.5896 22.3697C29.4177 22.5423 29.2376 22.7054 29.0493 22.8604C28.861 23.0148 28.6656 23.1598 28.4633 23.2949C28.2604 23.4306 28.0522 23.5557 27.837 23.6703C27.6224 23.7855 27.4025 23.8896 27.1773 23.9826C26.9528 24.0762 26.7235 24.158 26.4908 24.2288C26.2575 24.2996 26.0218 24.3586 25.7826 24.4066C25.544 24.454 25.3031 24.4896 25.061 24.5136C24.8183 24.5376 24.5756 24.5499 24.3323 24.5499Z" fill="#E08F34"/>
<path id="Vector_22" d="M10.4177 4.24467L11.4698 3.19263L24.8575 16.5839L23.8055 17.6359L10.4177 4.24467Z" fill="#E08F34"/>
<path id="Vector_23" d="M14.8779 4.24541L15.93 3.19336L24.8557 12.1209L23.8037 13.1729L14.8779 4.24541Z" fill="#E08F34"/>
<path id="Vector_24" d="M10.4177 8.70952L11.4698 7.65747L20.3949 16.585L19.3435 17.637L10.4177 8.70952Z" fill="#E08F34"/>
<path id="Vector_25" d="M19.3425 4.24467L20.3946 3.19263L24.8566 7.65637L23.8051 8.70842L19.3425 4.24467Z" fill="#E08F34"/>
<path id="Vector_26" d="M10.4177 13.1724L11.4692 12.1204L15.9318 16.5835L14.8797 17.6356L10.4177 13.1724Z" fill="#E08F34"/>
<path id="Vector_27" d="M40.6935 24.5494H36.2309C36.1824 24.5494 36.1338 24.5447 36.0859 24.5347C36.0379 24.5254 35.9917 24.5114 35.9461 24.4926C35.9011 24.4739 35.8584 24.4511 35.8181 24.4236C35.7771 24.3967 35.7397 24.3657 35.7052 24.3312C35.6707 24.2967 35.6397 24.2593 35.6128 24.2184C35.5853 24.178 35.5625 24.1353 35.5438 24.0897C35.5251 24.0447 35.511 23.9985 35.5017 23.9505C35.4917 23.9026 35.4871 23.854 35.4871 23.8055V19.3418C35.4871 19.2926 35.4917 19.2447 35.5017 19.1967C35.511 19.1488 35.5251 19.102 35.5438 19.057C35.5625 19.0119 35.5853 18.9692 35.6128 18.9283C35.6397 18.888 35.6707 18.8499 35.7052 18.8154C35.7397 18.7809 35.7771 18.7505 35.8181 18.723C35.8584 18.6961 35.9011 18.6733 35.9461 18.6546C35.9917 18.6359 36.0379 18.6213 36.0859 18.6119C36.1338 18.6026 36.1824 18.5979 36.2309 18.5979H40.6935C40.7426 18.5979 40.7906 18.6026 40.8385 18.6119C40.8865 18.6213 40.9333 18.6359 40.9783 18.6546C41.0233 18.6733 41.066 18.6961 41.1069 18.723C41.1473 18.7505 41.1853 18.7809 41.2198 18.8154C41.2543 18.8499 41.2847 18.888 41.3122 18.9283C41.3391 18.9692 41.3619 19.0119 41.3806 19.057C41.3993 19.102 41.4134 19.1488 41.4233 19.1967C41.4327 19.2447 41.4374 19.2926 41.4374 19.3418V23.8055C41.4374 23.854 41.4327 23.9026 41.4233 23.9505C41.4134 23.9985 41.3993 24.0447 41.3806 24.0897C41.3619 24.1353 41.3391 24.178 41.3122 24.2184C41.2847 24.2593 41.2543 24.2967 41.2198 24.3312C41.1853 24.3657 41.1473 24.3967 41.1069 24.4236C41.066 24.4511 41.0233 24.4739 40.9783 24.4926C40.9333 24.5114 40.8865 24.5254 40.8385 24.5347C40.7906 24.5447 40.7426 24.5494 40.6935 24.5494ZM36.9748 23.0616H39.9496V20.0856H36.9748V23.0616Z" fill="#E08F34"/>
<path id="Vector_28" d="M45.5287 19.3418C45.4193 19.3418 45.31 19.3365 45.2006 19.3254C45.0918 19.3149 44.9836 19.2985 44.876 19.2775C44.7684 19.2558 44.662 19.2295 44.5573 19.1974C44.4526 19.1658 44.3491 19.1289 44.248 19.0868C44.1468 19.0447 44.048 18.998 43.9509 18.9465C43.8544 18.895 43.7602 18.8383 43.6696 18.7775C43.5784 18.7167 43.4901 18.6512 43.4053 18.5816C43.3211 18.512 43.2398 18.4389 43.162 18.3611C43.0848 18.2839 43.0111 18.2026 42.9415 18.1178C42.8719 18.033 42.807 17.9453 42.7462 17.8541C42.6848 17.7629 42.6287 17.6687 42.5772 17.5722C42.5252 17.4751 42.4784 17.3763 42.4369 17.2751C42.3948 17.174 42.3579 17.0705 42.3257 16.9658C42.2942 16.8611 42.2678 16.7547 42.2462 16.6471C42.2246 16.5395 42.2088 16.4313 42.1983 16.3219C42.1871 16.2132 42.1819 16.1038 42.1819 15.9939C42.1819 15.8845 42.1871 15.7751 42.1983 15.6658C42.2088 15.557 42.2246 15.4482 42.2462 15.3406C42.2678 15.2336 42.2942 15.1272 42.3257 15.0219C42.3579 14.9172 42.3948 14.8143 42.4369 14.7132C42.4784 14.6114 42.5252 14.5126 42.5772 14.4161C42.6287 14.319 42.6848 14.2254 42.7462 14.1342C42.807 14.043 42.8719 13.9553 42.9415 13.8705C43.0111 13.7857 43.0848 13.7044 43.162 13.6266C43.2398 13.5494 43.3211 13.4757 43.4053 13.4061C43.4901 13.3365 43.5784 13.2716 43.6696 13.2102C43.7602 13.1494 43.8544 13.0933 43.9509 13.0418C44.048 12.9898 44.1468 12.943 44.248 12.9009C44.3491 12.8593 44.4526 12.8225 44.5573 12.7903C44.662 12.7588 44.7684 12.7319 44.876 12.7108C44.9836 12.6892 45.0918 12.6734 45.2006 12.6623C45.31 12.6517 45.4193 12.6465 45.5287 12.6465C45.6386 12.6465 45.748 12.6517 45.8567 12.6623C45.9661 12.6734 46.0743 12.6892 46.1819 12.7108C46.2895 12.7319 46.3953 12.7588 46.5006 12.7903C46.6053 12.8225 46.7082 12.8593 46.81 12.9009C46.9111 12.943 47.01 12.9898 47.1065 13.0418C47.2035 13.0933 47.2971 13.1494 47.3883 13.2102C47.4795 13.2716 47.5673 13.3365 47.6521 13.4061C47.7369 13.4757 47.8181 13.5494 47.8953 13.6266C47.9731 13.7044 48.0468 13.7857 48.1164 13.8705C48.1854 13.9553 48.2509 14.043 48.3117 14.1342C48.3725 14.2254 48.4287 14.319 48.4807 14.4161C48.5322 14.5126 48.579 14.6114 48.6211 14.7132C48.6632 14.8143 48.7 14.9172 48.7316 15.0219C48.7638 15.1272 48.7901 15.2336 48.8117 15.3406C48.8328 15.4482 48.8491 15.557 48.8597 15.6658C48.8702 15.7751 48.876 15.8845 48.876 15.9939C48.8755 16.1038 48.8702 16.2132 48.8591 16.3219C48.8486 16.4313 48.8322 16.5395 48.8111 16.6471C48.7895 16.7541 48.7626 16.8605 48.731 16.9652C48.6988 17.0705 48.662 17.1734 48.6199 17.2746C48.5778 17.3757 48.531 17.4746 48.4796 17.5716C48.4281 17.6681 48.3714 17.7617 48.3105 17.8529C48.2497 17.9441 48.1842 18.0319 48.1152 18.1167C48.0456 18.2015 47.9719 18.2827 47.8942 18.3599C47.817 18.4377 47.7357 18.5114 47.6509 18.5804C47.5667 18.65 47.4784 18.7155 47.3877 18.7763C47.2965 18.8371 47.2024 18.8939 47.1059 18.9453C47.0094 18.9968 46.9105 19.0442 46.8094 19.0857C46.7076 19.1278 46.6047 19.1646 46.5 19.1968C46.3953 19.2284 46.2889 19.2553 46.1813 19.2769C46.0743 19.2985 45.9661 19.3143 45.8567 19.3254C45.748 19.336 45.6386 19.3418 45.5287 19.3418ZM45.5287 14.1342C45.407 14.1342 45.286 14.1459 45.1661 14.1699C45.0462 14.1939 44.9298 14.2289 44.8176 14.2757C44.7047 14.3225 44.5971 14.3798 44.4959 14.4477C44.3942 14.5155 44.3006 14.5927 44.2141 14.6786C44.1275 14.7652 44.0509 14.8594 43.9831 14.9605C43.9152 15.0623 43.8579 15.1693 43.8111 15.2822C43.7643 15.395 43.7293 15.5114 43.7053 15.6313C43.6813 15.7512 43.6696 15.8716 43.6696 15.9939C43.6696 16.1161 43.6813 16.2371 43.7053 16.357C43.7293 16.4769 43.7643 16.5927 43.8111 16.7056C43.8579 16.8184 43.9152 16.926 43.9831 17.0272C44.0509 17.1289 44.1275 17.2225 44.2141 17.3091C44.3006 17.3956 44.3942 17.4728 44.4959 17.5406C44.5971 17.6085 44.7047 17.6658 44.8176 17.712C44.9298 17.7588 45.0462 17.7944 45.1661 17.8178C45.286 17.8418 45.407 17.8541 45.5287 17.8541C45.6509 17.8541 45.7719 17.8418 45.8918 17.8178C46.0111 17.7944 46.1275 17.7588 46.2404 17.712C46.3532 17.6658 46.4603 17.6085 46.562 17.5406C46.6632 17.4728 46.7573 17.3956 46.8439 17.3091C46.9298 17.2225 47.007 17.1289 47.0749 17.0272C47.1427 16.926 47.2 16.8184 47.2468 16.7056C47.2936 16.5927 47.3287 16.4769 47.3526 16.357C47.3766 16.2371 47.3883 16.1161 47.3883 15.9939C47.3883 15.8716 47.3766 15.7512 47.3526 15.6313C47.3287 15.5114 47.2936 15.395 47.2468 15.2822C47.2 15.1693 47.1427 15.0623 47.0749 14.9605C47.007 14.8594 46.9298 14.7652 46.8439 14.6786C46.7573 14.5927 46.6632 14.5155 46.562 14.4477C46.4603 14.3798 46.3532 14.3225 46.2404 14.2757C46.1275 14.2289 46.0111 14.1939 45.8918 14.1699C45.7719 14.1459 45.6509 14.1342 45.5287 14.1342Z" fill="#E08F34"/>
<path id="Vector_29" d="M41.4379 11.9026H35.4876C35.3508 11.9032 35.2233 11.8675 35.1057 11.7973C34.9876 11.7266 34.8964 11.6307 34.8321 11.5102C34.7671 11.3891 34.7379 11.2599 34.7449 11.123C34.7513 10.9856 34.7929 10.8605 34.8689 10.7459L37.8443 6.28269C37.88 6.23416 37.9209 6.19088 37.9671 6.15229C38.0133 6.11369 38.063 6.08094 38.1168 6.05404C38.1706 6.02714 38.2268 6.00726 38.2853 5.99322C38.3437 5.97919 38.4028 5.97217 38.463 5.97217C38.5227 5.97217 38.5823 5.97919 38.6408 5.99322C38.6993 6.00726 38.7554 6.02714 38.8087 6.05404C38.8625 6.08094 38.9128 6.11369 38.9584 6.15229C39.0046 6.19088 39.0455 6.23416 39.0818 6.28269L42.0566 10.7459C42.1332 10.8605 42.1742 10.9856 42.1812 11.123C42.1876 11.2599 42.1584 11.3891 42.094 11.5102C42.0291 11.6307 41.9379 11.7266 41.8204 11.7973C41.7028 11.8675 41.5753 11.9032 41.4379 11.9026ZM36.8771 10.4149H40.0484L38.463 8.03416L36.8771 10.4149Z" fill="#E08F34"/>
<path id="Vector_30" d="M26.7808 36.2347L27.8328 35.1826L32.2954 39.6464L31.2433 40.6984L26.7808 36.2347Z" fill="#E08F34"/>
<path id="Vector_31" d="M35.7056 45.1619L36.757 44.1099L42.7073 50.0613L41.6559 51.1134L35.7056 45.1619Z" fill="#E08F34"/>
<path id="Vector_32" d="M22.3159 36.2352L23.3674 35.1826L38.2428 50.0616L37.1908 51.1136L22.3159 36.2352Z" fill="#E08F34"/>
<path id="Vector_33" d="M23.0593 41.4422L24.1108 40.3901L38.9862 55.2691L37.9342 56.3211L23.0593 41.4422Z" fill="#E08F34"/>
<path id="Vector_34" d="M23.0593 45.9058L24.1114 44.8538L30.8055 51.5491L29.7535 52.6011L23.0593 45.9058Z" fill="#E08F34"/>
</g>
</svg>
