<svg width="86" height="53" viewBox="0 0 86 53" fill="none" xmlns="http://www.w3.org/2000/svg">
<g id="Group 2611324">
<path id="Vector" d="M31.0799 39.7498C30.3514 39.7498 29.7559 40.346 29.7559 41.0752C29.7559 41.8036 30.3514 42.3999 31.0799 42.3999H41.6769C42.4053 42.3999 43.0016 41.8036 43.0016 41.0752C43.0016 40.346 42.4053 39.7498 41.6769 39.7498H31.0799Z" fill="#E08F34"/>
<path id="Vector_2" d="M12.6018 40.6779C12.6018 40.7517 12.5941 40.8247 12.5795 40.8971C12.5656 40.9702 12.544 41.0404 12.5155 41.1086C12.4877 41.1768 12.4529 41.2422 12.4118 41.3034C12.3708 41.3646 12.3242 41.4217 12.272 41.4739C12.2191 41.5261 12.1627 41.5727 12.1008 41.6137C12.0396 41.6555 11.9749 41.6896 11.9067 41.7181C11.8378 41.7466 11.7676 41.7675 11.6952 41.7821C11.6228 41.7967 11.5498 41.8037 11.4753 41.8037C11.4016 41.8037 11.3285 41.7967 11.2562 41.7821C11.1831 41.7675 11.1128 41.7466 11.0447 41.7181C10.9765 41.6896 10.9118 41.6555 10.8499 41.6137C10.7886 41.5727 10.7316 41.5261 10.6794 41.4739C10.6272 41.4217 10.5806 41.3646 10.5395 41.3034C10.4985 41.2422 10.4637 41.1768 10.4352 41.1086C10.4074 41.0404 10.3858 40.9702 10.3712 40.8971C10.3566 40.8247 10.3496 40.7517 10.3496 40.6779C10.3496 40.6035 10.3566 40.5304 10.3712 40.4581C10.3858 40.3857 10.4074 40.3148 10.4352 40.2466C10.4637 40.1784 10.4985 40.1137 10.5395 40.0518C10.5806 39.9905 10.6272 39.9335 10.6794 39.8813C10.7316 39.8291 10.7886 39.7825 10.8499 39.7415C10.9118 39.7004 10.9765 39.6656 11.0447 39.6371C11.1128 39.6086 11.1831 39.5877 11.2562 39.5731C11.3285 39.5585 11.4016 39.5515 11.4753 39.5515C11.5498 39.5515 11.6228 39.5585 11.6952 39.5731C11.7676 39.5877 11.8378 39.6086 11.9067 39.6371C11.9749 39.6656 12.0396 39.7004 12.1008 39.7415C12.1627 39.7825 12.2191 39.8291 12.272 39.8813C12.3242 39.9335 12.3708 39.9905 12.4118 40.0518C12.4529 40.1137 12.4877 40.1784 12.5155 40.2466C12.544 40.3148 12.5656 40.3857 12.5795 40.4581C12.5941 40.5304 12.6018 40.6035 12.6018 40.6779Z" fill="#E08F34"/>
<path id="Vector_3" d="M8.16035 40.6779C8.16035 40.7517 8.1527 40.8247 8.13879 40.8971C8.12417 40.9702 8.10261 41.0404 8.07478 41.1086C8.04625 41.1768 8.01146 41.2422 7.97041 41.3034C7.92936 41.3646 7.88275 41.4217 7.83057 41.4739C7.77839 41.5261 7.72133 41.5727 7.66011 41.6137C7.59819 41.6555 7.53348 41.6896 7.4653 41.7181C7.39711 41.7466 7.32615 41.7675 7.25379 41.7821C7.18143 41.7967 7.10838 41.8037 7.03463 41.8037C6.96018 41.8037 6.88713 41.7967 6.81477 41.7821C6.74241 41.7675 6.67144 41.7466 6.60326 41.7181C6.53508 41.6896 6.47037 41.6555 6.40914 41.6137C6.34722 41.5727 6.29017 41.5261 6.23799 41.4739C6.18581 41.4217 6.13919 41.3646 6.09814 41.3034C6.05709 41.2422 6.02231 41.1768 5.99448 41.1086C5.96595 41.0404 5.94438 40.9702 5.92977 40.8971C5.91586 40.8247 5.9082 40.7517 5.9082 40.6779C5.9082 40.6035 5.91586 40.5304 5.92977 40.4581C5.94438 40.3857 5.96595 40.3148 5.99448 40.2466C6.02231 40.1784 6.05709 40.1137 6.09814 40.0518C6.13919 39.9905 6.18581 39.9335 6.23799 39.8813C6.29017 39.8291 6.34722 39.7825 6.40914 39.7415C6.47037 39.7004 6.53508 39.6656 6.60326 39.6371C6.67144 39.6086 6.74241 39.5877 6.81477 39.5731C6.88713 39.5585 6.96018 39.5515 7.03463 39.5515C7.10838 39.5515 7.18143 39.5585 7.25379 39.5731C7.32615 39.5877 7.39711 39.6086 7.4653 39.6371C7.53348 39.6656 7.59819 39.7004 7.66011 39.7415C7.72133 39.7825 7.77839 39.8291 7.83057 39.8813C7.88275 39.9335 7.92936 39.9905 7.97041 40.0518C8.01146 40.1137 8.04625 40.1784 8.07478 40.2466C8.10261 40.3148 8.12417 40.3857 8.13879 40.4581C8.1527 40.5304 8.16035 40.6035 8.16035 40.6779Z" fill="#E08F34"/>
<path id="Vector_4" d="M30.2172 10.534C29.8199 9.93772 28.9585 9.73943 28.363 10.1367L16.442 18.0871C16.044 18.3515 15.8457 18.7494 15.8457 19.2128C15.8457 19.6769 16.044 20.0741 16.442 20.3392L28.363 28.2889C28.9585 28.6869 29.8199 28.554 30.2172 27.8916C30.6144 27.2954 30.4822 26.434 29.8199 26.0367L19.5541 19.2128L29.8199 12.3895C30.4155 11.9916 30.6144 11.1302 30.2172 10.534Z" fill="#E08F34"/>
<path id="Vector_5" d="M42.5341 27.8913C42.9313 28.4875 43.7927 28.6865 44.3883 28.2886L56.31 20.3389C56.7072 20.0738 56.9055 19.6765 56.9055 19.2125C56.9055 18.7491 56.7072 18.3511 56.31 18.0867L44.3883 10.1364C43.7927 9.7391 42.9313 9.87129 42.5341 10.5336C42.1368 11.1299 42.269 11.9912 42.9313 12.3892L53.1972 19.2125L42.9313 26.0364C42.3358 26.4337 42.1368 27.295 42.5341 27.8913Z" fill="#E08F34"/>
<path id="Vector_6" d="M37.765 8.94407L32.4662 28.8189C32.2679 29.5481 32.7313 30.2765 33.3936 30.4087C33.5258 30.4087 33.5926 30.4755 33.7248 30.4755C34.3211 30.4755 34.8505 30.0776 34.9834 29.4813L40.2816 9.60643C40.4799 8.87797 40.0165 8.14952 39.3541 8.01663C38.6918 7.81765 37.9633 8.21562 37.765 8.94407Z" fill="#E08F34"/>
<g id="Clip path group">
<mask id="mask0_308_4857" style="mask-type:luminance" maskUnits="userSpaceOnUse" x="0" y="0" width="73" height="53">
<g id="4604c1fd8f">
<path id="Vector_7" d="M0.611328 0.000244141H72.2391V52.9999H0.611328V0.000244141Z" fill="white"/>
</g>
</mask>
<g mask="url(#mask0_308_4857)">
<g id="Group">
<path id="Vector_8" d="M31.0762 50.3505H27.1028C26.3743 50.3505 25.7781 50.9467 25.7781 51.6752C25.7781 52.4043 26.3743 52.9999 27.1028 52.9999H45.6467C46.3751 52.9999 46.9714 52.4043 46.9714 51.6752C46.9714 50.9467 46.3751 50.3505 45.6467 50.3505H41.6732V46.3749H68.1647C69.886 46.3749 71.3436 45.2492 71.8731 43.7255H70.4823C69.886 43.7255 69.3565 43.6587 68.8264 43.4604C68.6281 43.5926 68.363 43.7255 68.0979 43.7255H4.58547C3.85632 43.7255 3.26075 43.1292 3.26075 42.4001V38.4253H59.2897L59.0914 38.2263C58.4291 37.5639 57.8989 36.7026 57.6338 35.7751H3.26075V3.97577C3.26075 3.24663 3.85632 2.65037 4.58547 2.65037H68.1647C68.8932 2.65037 69.4887 3.24663 69.4887 3.97577V10.7329C69.8199 10.6668 70.1511 10.6007 70.5484 10.6007H72.1382V3.97577C72.1382 1.78902 70.3501 0.000244141 68.1647 0.000244141H4.58547C2.39941 0.000244141 0.611328 1.78902 0.611328 3.97577V42.4001C0.611328 44.5868 2.39941 46.3749 4.58547 46.3749H31.0762V50.3505ZM33.7257 46.3749H39.0238V50.3505H33.7257V46.3749Z" fill="#E08F34"/>
</g>
</g>
</g>
<g id="Clip path group_2">
<mask id="mask1_308_4857" style="mask-type:luminance" maskUnits="userSpaceOnUse" x="57" y="13" width="29" height="29">
<g id="c211b606d8">
<path id="Vector_9" d="M57.6387 13.2449H85.3888V41.0304H57.6387V13.2449Z" fill="white"/>
</g>
</mask>
<g mask="url(#mask1_308_4857)">
<g id="Group_2">
<path id="Vector_10" d="M82.805 22.9889C82.6728 22.6577 82.5407 22.3926 82.4078 22.0615C83.2691 20.8028 83.1362 19.0802 82.0105 17.9537L80.6858 16.629C80.0902 16.0328 79.2289 15.7016 78.3682 15.7016C77.7059 15.7016 77.1096 15.8999 76.5801 16.2311C76.3151 16.0989 75.9839 15.9667 75.6527 15.8338C75.3215 14.3101 73.9968 13.2498 72.4738 13.2498H70.6196C69.0298 13.2498 67.7051 14.3762 67.44 15.8338C67.1089 15.9667 66.8445 16.0989 66.5133 16.2311C65.9831 15.8999 65.3876 15.7016 64.7252 15.7016C63.8639 15.7016 63.0032 16.0328 62.407 16.629L61.0823 17.9537C59.9565 19.0802 59.8243 20.8028 60.685 22.0615C60.5528 22.3265 60.4199 22.6577 60.2877 22.9889C58.7647 23.3201 57.7051 24.6448 57.7051 26.1685V28.0241C57.7051 29.6139 58.8308 30.9386 60.2877 31.2036C60.4199 31.5348 60.5528 31.7999 60.685 32.1311C60.3538 32.6613 60.1555 33.2575 60.1555 33.9199C60.1555 34.7812 60.4867 35.6425 61.0823 36.2388L62.407 37.5635C63.0032 38.1598 63.8639 38.491 64.7252 38.491C65.3876 38.491 65.9831 38.2927 66.5133 37.9615C66.7784 38.0937 67.1089 38.2259 67.44 38.3588C67.7712 39.8825 69.0959 40.9421 70.6196 40.9421H72.4738C74.0629 40.9421 75.3876 39.8164 75.6527 38.3588C75.9839 38.2259 76.249 38.0937 76.5801 37.9615C77.1096 38.2927 77.7059 38.491 78.3682 38.491C79.2289 38.491 80.0902 38.1598 80.6858 37.5635L82.0105 36.2388C82.6068 35.6425 82.9379 34.7812 82.9379 33.9199C82.9379 33.2575 82.7389 32.6613 82.4078 32.1311C82.5407 31.866 82.6728 31.5348 82.805 31.2036C84.3287 30.8725 85.3884 29.5478 85.3884 28.0241V26.1685C85.3884 24.6448 84.2626 23.3201 82.805 22.9889ZM82.7389 28.0902C82.7389 28.4213 82.4739 28.6864 82.1434 28.6864H80.7526C80.4875 30.144 79.9573 31.4026 79.1628 32.5291L80.1563 33.5226C80.4214 33.7877 80.4214 34.1849 80.1563 34.3839L78.8316 35.7086C78.6994 35.8415 78.5665 35.9076 78.3682 35.9076C78.1692 35.9076 78.0371 35.8415 77.9042 35.7086L76.9113 34.7151C75.7849 35.5097 74.4609 36.1059 73.0701 36.3049V37.6964C73.0701 38.0276 72.805 38.2927 72.4738 38.2927H70.6196C70.2885 38.2927 70.0234 38.0276 70.0234 37.6964V36.4371C68.5665 36.1727 67.3079 35.6425 66.1821 34.8473L65.0564 35.7747C64.9235 35.9076 64.7913 35.9737 64.5923 35.9737C64.394 35.9737 64.3279 35.9076 64.1951 35.7747L62.8703 34.45C62.606 34.1849 62.606 33.7877 62.8703 33.5887L63.8639 32.5952C63.0693 31.4687 62.4731 30.144 62.2748 28.7525H60.884C60.5528 28.7525 60.2877 28.4874 60.2877 28.1563V26.3014C60.2877 25.9702 60.5528 25.7051 60.884 25.7051H62.208C62.4731 24.2475 63.0032 22.9889 63.7978 21.8625L62.8703 20.7361C62.606 20.471 62.606 20.0737 62.8703 19.8747L64.1951 18.55C64.3279 18.4178 64.4601 18.351 64.6584 18.351C64.8574 18.351 64.9896 18.4178 65.1225 18.55L66.116 19.5435C67.2418 18.749 68.5665 18.1527 69.9573 17.9537V16.5622C69.9573 16.2311 70.2217 15.9667 70.5528 15.9667H72.4077C72.7389 15.9667 73.0033 16.2311 73.0033 16.5622V17.8876C74.4609 18.1527 75.7188 18.6829 76.8445 19.4774L77.8381 18.4839C77.971 18.351 78.1031 18.2849 78.3021 18.2849C78.5004 18.2849 78.6326 18.351 78.7655 18.4839L80.0902 19.8086C80.3546 20.0737 80.3546 20.471 80.0902 20.67L79.0967 21.6635C79.8912 22.7899 80.4875 24.1153 80.6858 25.5061H82.0766C82.4078 25.5061 82.6728 25.7712 82.6728 26.1024V28.0902H82.7389Z" fill="#E08F34"/>
</g>
</g>
</g>
<path id="Vector_11" d="M71.4759 21.8625C68.5621 21.8625 66.1777 24.2476 66.1777 27.1628C66.1777 30.0773 68.5621 32.4623 71.4759 32.4623C74.3897 32.4623 76.774 30.0773 76.774 27.1628C76.774 24.2476 74.3897 21.8625 71.4759 21.8625ZM71.4759 29.8122C70.019 29.8122 68.8265 28.6204 68.8265 27.1628C68.8265 25.7052 70.019 24.5127 71.4759 24.5127C72.9328 24.5127 74.1253 25.7052 74.1253 27.1628C74.1253 28.6204 72.9328 29.8122 71.4759 29.8122Z" fill="#E08F34"/>
</g>
</svg>
