<svg width="34" height="69" viewBox="0 0 34 69" fill="none" xmlns="http://www.w3.org/2000/svg">
<g id="Group 2611323">
<path id="Vector" d="M16.9982 60.094C15.689 60.094 14.6248 61.1586 14.6248 62.4682C14.6248 63.7769 15.689 64.8408 16.9982 64.8408C18.3065 64.8408 19.372 63.7769 19.372 62.4682C19.372 61.1586 18.3065 60.094 16.9982 60.094Z" fill="#E08F34"/>
<g id="Clip path group">
<mask id="mask0_308_4885" style="mask-type:luminance" maskUnits="userSpaceOnUse" x="0" y="0" width="34" height="69">
<g id="fc23d7df0a">
<path id="Vector_2" d="M0.00146484 0.591553H33.9984V68.4083H0.00146484V0.591553Z" fill="white"/>
</g>
</mask>
<g mask="url(#mask0_308_4885)">
<g id="Group">
<path id="Vector_3" d="M31.9884 55.9458C31.9884 56.2604 31.7305 56.5194 31.4144 56.5194H2.58275C2.26777 56.5194 2.00949 56.2604 2.00949 55.9458V13.045C2.00949 12.7293 2.26777 12.4706 2.58275 12.4706H31.4144C31.7305 12.4706 31.9884 12.7293 31.9884 13.045V55.9458ZM16.9988 66.117C14.9872 66.117 13.3501 64.4791 13.3501 62.4671C13.3501 60.4552 14.9872 58.8176 16.9988 58.8176C19.0111 58.8176 20.6478 60.4552 20.6478 62.4671C20.6478 64.4791 19.0111 66.117 16.9988 66.117ZM12.9823 5.35746C12.9823 5.04129 13.241 4.783 13.556 4.783H20.4411C20.7565 4.783 21.0152 5.04129 21.0152 5.35746V6.12247C21.0152 6.43824 20.7565 6.69614 20.4411 6.69614H13.556C13.241 6.69614 12.9823 6.43824 12.9823 6.12247V5.35746ZM28.8327 0.634277H5.16483C2.32486 0.634277 0.00146484 2.95886 0.00146484 5.79961V63.19C0.00146484 66.0319 2.32486 68.3553 5.16483 68.3553H28.8327C31.6735 68.3553 33.9965 66.0319 33.9965 63.19V5.79961C33.9965 2.95886 31.6735 0.634277 28.8327 0.634277Z" fill="#E08F34"/>
</g>
</g>
</g>
</g>
</svg>
