<svg width="635" height="450" viewBox="0 0 635 450" fill="none" xmlns="http://www.w3.org/2000/svg">
<g clip-path="url(#clip0_164_210)">
<path d="M399.009 356.975C320.883 389.527 242.327 406.266 178.49 407.03C146.571 407.412 118.358 403.8 95.7269 396.192C73.0993 388.585 56.0858 376.997 46.4872 361.436C36.8886 345.876 35.5718 327.748 41.4809 308.251C47.3908 288.752 60.5217 267.914 79.7633 246.979C118.246 205.112 181.106 162.929 259.233 130.378C337.36 97.8261 415.915 81.0874 479.752 80.3234C511.671 79.9414 539.885 83.5536 562.515 91.1614C585.143 98.7681 602.157 110.356 611.755 125.917C621.354 141.477 622.67 159.605 616.761 179.102C610.852 198.601 597.721 219.44 578.479 240.374C539.997 282.241 477.136 324.424 399.009 356.975Z" stroke="#1FD372"/>
<path d="M384.829 361.961C302.117 386.064 221.002 394.595 156.733 388.92C124.597 386.083 96.6997 379.696 74.9273 369.947C53.1574 360.199 37.5486 347.11 29.9011 330.872C22.2535 314.634 23.2535 296.705 31.6955 278.153C40.1385 259.599 56.0123 240.457 78.0416 221.835C122.098 184.593 190.701 149.495 273.413 125.392C356.125 101.289 437.24 92.7578 501.509 98.4328C533.645 101.27 561.543 107.658 583.315 117.406C605.085 127.154 620.694 140.243 628.341 156.481C635.989 172.719 634.989 190.649 626.547 209.2C618.104 227.754 602.23 246.896 580.201 265.518C536.144 302.76 467.541 337.858 384.829 361.961Z" stroke="#1FD372"/>
<path d="M27.3042 340.5C32.2274 337.784 36.2845 333.727 39 328.804C41.7155 333.727 45.7726 337.784 50.6957 340.5C45.7726 343.216 41.7155 347.273 39 352.196C36.2845 347.273 32.2274 343.216 27.3042 340.5Z" fill="#1FD372" stroke="white" stroke-width="4"/>
<path d="M606.304 143.5C611.227 140.784 615.284 136.727 618 131.804C620.716 136.727 624.773 140.784 629.696 143.5C624.773 146.216 620.716 150.273 618 155.196C615.284 150.273 611.227 146.216 606.304 143.5Z" fill="#1FD372" stroke="white" stroke-width="4"/>
</g>
<defs>
<clipPath id="clip0_164_210">
<rect width="634" height="450" fill="white" transform="translate(0.5)"/>
</clipPath>
</defs>
</svg>
