<svg width="592" height="174" viewBox="0 0 592 174" fill="none" xmlns="http://www.w3.org/2000/svg">
<path d="M288.131 76.9536C296.879 76.8308 306.492 76.4809 314.426 80.9261C321.762 85.0356 326.884 93.3067 329.22 101.38C333.733 116.976 330.308 135.576 322.931 149.658C317.783 159.483 309.483 169.119 298.822 172.39C297.717 173.19 295.312 173.168 293.985 173.32C287.596 174.046 282.718 171.391 277.888 167.387C265.229 156.89 259.272 139.369 257.585 123.172C256.327 111.087 258.21 98.3651 265.819 88.6373C271.532 81.3342 279.25 77.9323 288.131 76.9536Z" fill="url(#paint0_linear_2810_8618)"/>
<path d="M556.894 76.9537C558.268 77.0257 559.614 77.0022 560.715 77.9871C562.306 79.4124 587.998 138.932 590.166 144.272C590.682 145.545 591.379 147.006 591.421 148.401C591.46 149.687 591.251 150.786 590.331 151.735C589.492 152.6 588.203 153.389 586.995 153.381C580.057 153.331 579.423 139.8 575.494 135.582C575.475 135.562 575.456 135.542 575.436 135.522C572.015 133.467 560.806 134.792 557.012 135.388C550.758 137.558 545.113 139.742 539.681 143.757C536.151 146.366 531.832 151.873 527.894 153.296C526.807 153.69 525.615 153.688 524.58 153.13C523.762 152.689 523.148 151.985 522.904 151.06C522.57 149.786 522.797 148.403 523.206 147.178C524.942 141.958 527.573 136.827 529.802 131.809L541.379 105.819C545.212 97.4022 548.821 87.6356 553.255 79.6344C554.137 78.0418 555.219 77.428 556.894 76.9537ZM538.04 133.484C539.714 132.906 548.879 129.133 549.748 128.294C556.184 126.511 564.374 124.443 571.059 125.857C571.377 124.241 559.21 97.6301 557.69 94.6111C557.33 94.4223 557.198 94.2916 556.79 94.3443C556.705 96.2739 541.011 130.846 539.47 132.305C539.02 132.731 538.532 133.114 538.04 133.484Z" fill="white"/>
<path d="M350.26 0.0835066C350.861 -0.0425178 351.252 -0.0259201 351.846 0.13344C350.461 19.9081 342.47 45.5362 328.645 59.7033C320.901 67.6387 310.026 73.1089 298.982 73.0644C298.866 72.9529 298.756 72.8382 298.653 72.7134C296.743 70.3749 297.217 60.5304 297.404 57.4862C298.566 38.6826 312.356 23.8667 326.577 13.6796C328.965 11.9684 331.365 10.075 333.918 8.63878C336.953 6.93067 348.599 1.6682 350.156 0.185016C350.191 0.151778 350.225 0.117343 350.26 0.0835066ZM301.92 70.6238C308.851 69.4082 322.57 52.6285 326.785 46.4902C330.02 41.7813 338.345 26.9276 339.035 21.1583L338.718 20.605C331.92 34.6812 324.521 47.8775 313.821 59.261C311.421 61.8133 308.99 64.3602 306.28 66.565C305.271 67.3859 302.862 68.6222 302.193 69.5718C302.04 69.7881 301.889 70.3655 301.92 70.6238Z" fill="white"/>
<path d="M347.71 76.9534C352.964 76.5509 358.379 76.792 363.657 76.7814C368.89 76.7711 374.364 76.4112 379.552 77.0658C381.94 77.3709 384.245 78.0008 386.467 78.9554C391.754 81.2112 395.425 85.3361 397.592 90.7627C400.253 97.4282 400.548 106.069 397.844 112.755C395.753 117.924 392.114 121.789 387.117 123.915C391.545 126.472 394.76 133.03 396.488 137.758C397.832 141.429 400.142 147.021 398.422 150.863C397.933 151.952 397.101 152.948 395.968 153.336C394.758 153.749 393.489 153.414 392.39 152.835C389.775 151.461 388.837 145.459 387.959 142.693C385.69 135.548 381.367 128.847 373.553 127.952C371.148 127.676 368.266 127.836 366.075 126.664C365.135 126.16 364.327 125.298 364.029 124.231C363.672 122.949 363.927 121.234 364.558 120.079C366.485 116.559 372.894 118.127 376.184 117.16L376.29 117.128C379.995 116.38 383.862 115.056 386.652 112.319C389.219 109.799 390.311 106.362 390.379 102.764C390.457 98.5399 389.321 93.9646 386.397 90.8757C384.93 89.3259 383.115 88.0511 381.096 87.4249C375.215 85.6016 359.702 86.5168 352.909 86.4564C353.006 86.6327 353.097 86.812 353.173 87.0002C353.638 88.1631 353.632 141.612 353.477 146.122C353.427 147.594 353.277 149.091 352.73 150.466C352.235 151.71 351.417 152.849 350.159 153.343C349.142 153.744 347.855 153.701 346.873 153.219C345.659 152.623 344.922 151.455 344.48 150.186C343.133 146.309 343.932 102.038 343.958 94.9824C343.971 91.0577 343.617 87.0951 343.769 83.1783C343.82 81.8953 343.984 80.4988 344.542 79.3339C345.247 77.8595 346.304 77.461 347.71 76.9534Z" fill="white"/>
<path d="M20.7266 75.5416C22.3727 75.4328 24.0205 75.3712 25.6699 75.3567C33.088 75.3249 41.6568 76.7177 47.1423 82.3983C48.6711 83.9814 50.3777 86.3039 50.3478 88.6572C50.3422 88.9765 50.306 89.2921 50.2392 89.604C50.1725 89.9159 50.0764 90.2179 49.9512 90.5098C49.8258 90.8018 49.6737 91.0781 49.4948 91.3387C49.3159 91.5992 49.1138 91.8389 48.8884 92.0577C45.6804 95.1791 38.9368 88.5143 35.8975 87.0643C33.1964 85.7755 30.2648 85.208 27.305 85.1105C22.1758 84.9416 16.7407 85.7915 12.8674 89.5985C10.9453 91.4879 9.90549 93.8846 9.84797 96.6267C9.59872 108.52 30.3058 110.267 38.5821 113.401C42.5695 114.911 46.2299 116.929 49.1854 120.145C52.7025 123.972 53.985 128.436 53.8366 133.634C53.6789 139.158 52.0646 144.074 48.0809 147.926C43.305 152.543 35.0915 155.557 28.5628 155.35C26.6857 154.963 24.5458 154.985 22.6269 154.776C16.5833 154.12 9.97892 152.375 5.10294 148.4C3.26097 146.899 0.270469 143.857 0.0268849 141.391C-0.114038 139.963 0.30213 138.363 1.20277 137.258C1.95804 136.332 3.01321 135.742 4.18451 135.657C6.77016 135.468 9.68549 139.632 11.6176 141.311C15.7216 144.877 25.7431 145.772 30.9419 145.267C35.1622 144.856 40.0106 143.284 42.7773 139.786C44.5562 137.538 45.3202 134.52 45.0318 131.647C43.963 120.998 26.0165 119.463 18.245 116.978C14.2279 115.693 10.2264 113.917 6.95811 111.131C3.29667 108.009 1.17987 103.733 0.732308 98.8631C0.214962 93.2346 1.49512 88.0133 5.03989 83.6399C8.98923 78.7674 14.6781 76.1 20.7266 75.5416Z" fill="white"/>
<path d="M64.2992 77.2085C64.4713 77.1868 64.6436 77.166 64.8161 77.1462C66.3133 76.9759 68.1206 76.7789 69.3624 77.8602C70.3134 78.6885 70.7571 80.2913 70.9317 81.5199C71.4558 85.2084 71.0942 89.3538 71.0803 93.0979C71.0414 103.556 70.3959 114.818 71.0944 125.192C71.4488 130.452 73.3124 136.143 77.2771 139.671C82.1608 144.016 89.2102 145.229 95.4422 144.732C115.335 143.146 114.601 126.903 114.427 111.212L114.303 89.1766C114.291 85.9344 113.726 80.9527 115.976 78.3568C116.802 77.4033 117.791 77.0858 118.992 77.0327C120.376 76.9715 121.507 76.9797 122.57 78.0354C124.665 80.1168 124.126 84.703 124.149 87.4755L124.234 110.021C124.236 116.877 124.436 123.943 123.268 130.714C121.988 138.129 118.425 144.68 112.372 149.012C104.423 154.701 93.7414 155.599 84.4292 153.822C77.2787 152.458 70.7226 148.386 66.5964 142.154C64.3188 138.715 62.9612 134.73 62.2796 130.64C60.6723 120.994 61.6579 108.93 61.6276 99.044C61.61 93.3165 60.7672 86.3476 61.824 80.7753C62.162 78.9933 62.8649 78.1969 64.2992 77.2085Z" fill="white"/>
<path d="M199.144 76.954L199.466 76.9428C204.889 76.775 210.35 76.9021 215.777 76.8943C221.274 76.8865 227.645 76.2736 233.012 77.5819C236.81 78.5076 240.456 80.4062 243.291 83.1883C248.28 88.0827 250.438 95.1382 250.577 102.11C250.702 108.419 248.889 114.823 244.573 119.438C239.23 125.151 232.523 126.591 225.237 127.446C223.416 127.66 221.387 128.08 219.564 128.054C216.744 128.015 215.432 124.551 213.794 122.842C214.816 122.015 215.175 120.676 215.974 119.641C217.392 117.803 222.049 117.858 224.23 117.613C228.937 117.084 235.266 115.83 238.354 111.803C240.945 108.426 241.343 103.585 240.849 99.4345C240.666 97.8938 240.293 95.7053 239.047 94.6942C239.083 94.5853 239.111 94.4829 239.117 94.366C239.179 93.2282 237.852 91.4413 237.108 90.6821C235.161 88.693 232.192 87.5013 229.549 86.9623C224.619 85.9571 212.464 86.3667 206.978 86.4329C206.197 86.4424 204.968 86.3906 204.413 86.9691L204.554 88.0083C203.594 90.1018 204.222 97.5492 204.236 100.175L204.216 132.325C204.212 137.264 204.647 142.441 204.232 147.358C204.102 148.912 203.784 150.629 202.928 151.945C202.407 152.746 201.671 153.36 200.731 153.527C199.528 153.741 198.009 153.391 197.031 152.649C195.7 151.64 195.179 150.124 194.939 148.49C194.449 145.142 194.784 141.446 194.823 138.057C194.882 132.98 194.899 127.902 194.874 122.824L194.891 97.295C194.861 92.6251 194.512 87.7949 194.78 83.1426C194.866 81.655 195.089 79.6368 196.005 78.4244C196.858 77.2969 197.861 77.1404 199.144 76.954Z" fill="white"/>
<path d="M136.43 76.9574C143.479 76.679 163.71 76.2289 169.65 77.637C173.244 78.4894 176.773 80.2283 179.563 82.7239C184.526 87.1636 186.527 93.0923 186.989 99.6601C187.473 106.524 186.771 112.979 182.21 118.396C176.806 124.816 168.459 127.071 160.515 127.643C158.054 127.82 154.449 128.187 152.474 126.334C151.715 125.621 151.353 124.638 151.316 123.595C151.276 122.455 151.587 120.463 152.398 119.639C156.028 115.945 168.371 119.368 174.513 112.482C177.188 109.484 177.864 105.329 177.685 101.388C177.573 98.9435 177.271 95.3781 175.434 93.6464C175.438 93.6024 175.443 93.5584 175.443 93.5143C175.471 92.5133 174.171 91.0285 173.522 90.3664C171.659 88.4663 168.682 87.4075 166.164 86.9212C159.902 85.7124 147.614 86.4924 140.794 86.5123C141.153 89.3241 140.928 92.3481 140.924 95.1908L140.898 111.295L140.817 135.166C140.812 139.315 141.033 143.529 140.804 147.671C140.732 148.952 140.591 150.689 139.908 151.809C139.355 152.717 138.212 153.208 137.221 153.406C135.924 153.665 134.48 153.478 133.391 152.668C132.408 151.937 132.01 150.947 131.808 149.759C131.095 145.57 131.462 140.936 131.479 136.692L131.485 117.603L131.466 95.5746C131.447 91.3321 131.241 86.9906 131.498 82.7605C131.58 81.4105 131.77 79.7159 132.579 78.6C133.533 77.2842 134.973 77.1331 136.43 76.9574Z" fill="white"/>
<path d="M477.219 76.9537L511.047 76.953C515.838 76.9616 520.977 76.4486 525.722 76.9638C527.014 77.1039 528.424 77.4611 529.404 78.394C530.265 79.2133 530.55 80.223 530.595 81.3926C530.645 82.673 530.31 83.9345 529.43 84.8738C528.562 85.8014 527.268 86.2523 526.063 86.4655C521.493 87.274 510.016 86.4649 504.7 86.4438C504.925 86.8081 505.065 87.2577 505.142 87.681C505.741 90.9546 505.174 98.21 505.175 101.949C505.181 111.957 505.752 123.456 505.116 133.3C505.073 133.969 504.928 134.474 504.568 135.041C504.615 135.112 504.663 135.181 504.707 135.254C505.523 136.664 505.394 148.056 504.957 149.982C504.673 151.234 504.072 152.311 502.971 152.986C501.978 153.594 500.647 153.726 499.537 153.434C497.92 153.008 496.643 151.804 496.121 150.167C495.082 146.91 495.742 141.538 495.718 138.072L495.665 102.582C495.661 97.9313 496.06 93.1586 495.78 88.5242C495.734 87.7752 495.613 87.1646 495.233 86.5124C487.529 86.5367 479.249 87.1608 471.638 86.0026C471.7 84.6939 470.52 83.1256 470.504 81.5301C470.493 80.4098 470.459 79.2688 471.293 78.4321C472.68 77.0412 475.413 76.9485 477.219 76.9537Z" fill="white"/>
<path d="M406.966 76.9536C407.205 76.9468 407.444 76.9416 407.683 76.938C418.063 76.7903 428.465 76.9087 438.849 76.9023C445.097 76.8984 451.621 76.5105 457.844 77.0862C459.028 77.1957 460.781 77.2891 461.647 78.2274C462.415 79.0589 462.683 80.5035 462.688 81.6127C462.694 82.6886 462.473 84.1483 461.698 84.9236C458.859 87.7636 441.429 86.5333 436.94 86.506C437.127 86.8288 437.297 87.1658 437.384 87.5339C438.02 90.2118 437.454 98.107 437.453 101.298C437.449 111.059 437.937 121.085 437.404 130.812C437.367 131.511 437.229 132.034 436.866 132.632C436.888 132.667 436.913 132.702 436.934 132.737C438.023 134.509 437.702 146.455 437.239 148.737C436.902 150.394 436.205 152.314 434.738 153.246C433.965 153.738 433.105 153.83 432.227 153.63C430.877 153.321 429.243 152.403 428.703 151.038C427.412 147.774 428.088 139.718 428.09 136.002L428.096 103.022C428.084 98.1655 428.447 93.074 428.049 88.2467C427.997 87.5947 427.844 87.0755 427.502 86.5181C424.289 86.7936 406.803 86.9821 404.374 85.5778C403.498 85.0717 402.855 84.3019 402.608 83.2849C402.272 81.9182 402.651 79.8794 403.386 78.6986C404.165 77.4464 405.667 77.2223 406.966 76.9536Z" fill="white"/>
<path d="M266.354 17.8214C266.395 17.8234 266.435 17.8232 266.474 17.8273C268.75 18.0581 279.148 29.8181 280.928 32.0641C288.122 41.1472 293.357 51.7777 292.168 63.816C291.889 66.6408 291.424 71.608 289.211 73.4758C289.329 73.9788 289.136 74.3038 288.929 74.7418L288.191 74.9729C282.457 73.5323 275.989 66.7188 272.614 61.9132C264.893 50.924 264.391 30.7141 266.354 17.8214Z" fill="white"/>
<defs>
<linearGradient id="paint0_linear_2810_8618" x1="258.268" y1="126.739" x2="330.748" y2="123.251" gradientUnits="userSpaceOnUse">
<stop stop-color="white"/>
<stop offset="1" stop-color="#D5D4D3"/>
</linearGradient>
</defs>
</svg>
