<svg width="67" height="66" viewBox="0 0 67 66" fill="none" xmlns="http://www.w3.org/2000/svg">
<mask id="mask0_308_4065" style="mask-type:luminance" maskUnits="userSpaceOnUse" x="0" y="0" width="67" height="66">
<path d="M0.242432 0H66.2576V66H0.242432V0Z" fill="white"/>
</mask>
<g mask="url(#mask0_308_4065)">
<path d="M66.1778 8.03532C66.0345 7.57767 65.6485 7.23728 65.1767 7.15204L60.0193 6.22262L59.0899 1.06518C59.0046 0.592872 58.6642 0.207422 58.2066 0.0635566C57.7489 -0.0797658 57.2489 0.0429269 56.9096 0.382232L50.5209 6.77094C45.2017 3.21122 39.0215 1.33446 32.5747 1.33446C23.9389 1.33446 15.819 4.69765 9.71257 10.8041C3.60562 16.9115 0.242432 25.0304 0.242432 33.6672C0.242432 42.3035 3.60562 50.4224 9.71257 56.5293C15.819 62.6363 23.9384 65.9995 32.5747 65.9995C41.2115 65.9995 49.3309 62.6363 55.4373 56.5293C61.5442 50.4229 64.9074 42.3035 64.9074 33.6672C64.9074 27.2215 63.0307 21.0407 59.4704 15.721L65.8591 9.33228C66.1984 8.99298 66.3211 8.49352 66.1778 8.03532ZM31.6637 34.5787C31.9151 34.8301 32.2451 34.9561 32.5747 34.9561C32.9047 34.9561 33.2348 34.8301 33.4862 34.5787L40.4807 27.5842C41.781 29.2693 42.5567 31.379 42.5567 33.6672C42.5567 39.171 38.079 43.6488 32.5752 43.6488C27.0709 43.6488 22.5937 39.171 22.5937 33.6672C22.5937 28.1629 27.0709 23.6852 32.5752 23.6852C34.8635 23.6852 36.9726 24.4609 38.6583 25.7612L31.6637 32.7557C31.1604 33.259 31.1604 34.0749 31.6637 34.5787ZM40.4932 23.9257C38.3309 22.1651 35.5741 21.1075 32.5747 21.1075C25.6496 21.1075 20.0155 26.7416 20.0155 33.6672C20.0155 40.5923 25.6496 46.2264 32.5747 46.2264C39.5003 46.2264 45.1344 40.5923 45.1344 33.6672C45.1344 30.6678 44.0768 27.911 42.3162 25.7487L47.5269 20.5386C50.6099 24.0456 52.4829 28.6412 52.4829 33.6672C52.4829 44.6439 43.5524 53.5749 32.5747 53.5749C21.5975 53.5749 12.667 44.6439 12.667 33.6672C12.667 22.69 21.598 13.759 32.5747 13.759C37.6007 13.759 42.1968 15.632 45.7039 18.7156L40.4932 23.9257ZM62.3293 33.6672C62.3293 50.0739 48.9818 63.4213 32.5747 63.4213C16.168 63.4213 2.82061 50.0739 2.82061 33.6672C2.82061 17.2601 16.168 3.91263 32.5747 3.91263C38.3352 3.91263 43.8635 5.54021 48.6599 8.63304L48.1479 9.14444C47.8494 9.44303 47.7164 9.86866 47.7913 10.2845L48.7598 15.6596L47.5291 16.8904C43.5524 13.3421 38.3114 11.1814 32.5752 11.1814C20.1762 11.1814 10.0893 21.2688 10.0893 33.6672C10.0893 46.0657 20.1762 56.1526 32.5752 56.1526C44.9737 56.1526 55.0611 46.0657 55.0611 33.6672C55.0611 27.9305 52.9004 22.69 49.3521 18.7134L50.5828 17.4827L55.9574 18.4512C56.0339 18.4653 56.1105 18.4718 56.1865 18.4718C56.5247 18.4718 56.8537 18.3383 57.0975 18.094L57.6094 17.5826C60.7017 22.379 62.3293 27.9077 62.3293 33.6672ZM55.7511 15.7943L51.2576 14.9848L50.4476 10.4908L56.99 3.94846L57.6409 7.56084C57.7364 8.0907 58.1512 8.50546 58.6805 8.60101L62.2934 9.25194L55.7511 15.7943Z" fill="#E08F34"/>
</g>
</svg>
