<svg width="24" height="44" viewBox="0 0 24 44" fill="none" xmlns="http://www.w3.org/2000/svg">
<path d="M8.07448 19.6194C10.2184 19.5893 12.5743 19.5036 14.5188 20.593C16.3167 21.6002 17.572 23.6273 18.1446 25.6059C19.2507 29.4283 18.4114 33.9868 16.6033 37.438C15.3416 39.846 13.3073 42.2077 10.6945 43.0093C10.4238 43.2054 9.83439 43.1999 9.50915 43.2371C7.94339 43.4151 6.74778 42.7645 5.56405 41.7831C2.46159 39.2104 1.00149 34.9164 0.588093 30.9468C0.279696 27.985 0.741301 24.867 2.60621 22.4829C4.00621 20.693 5.89787 19.8593 8.07448 19.6194Z" fill="url(#paint0_linear_962_2905)"/>
<path d="M23.1113 0.753864C23.2586 0.722978 23.3543 0.727046 23.4999 0.766102C23.1605 5.61253 21.2021 11.8935 17.8137 15.3657C15.9158 17.3105 13.2505 18.6512 10.544 18.6402C10.5156 18.6129 10.4885 18.5848 10.4634 18.5542C9.99518 17.9811 10.1114 15.5684 10.1573 14.8223C10.4419 10.2139 13.8217 6.58273 17.3069 4.08604C17.8923 3.66666 18.4804 3.20262 19.1061 2.85062C19.85 2.43199 22.7042 1.14225 23.0859 0.778743C23.0945 0.770597 23.1027 0.762157 23.1113 0.753864ZM11.2641 18.0421C12.9626 17.7442 16.3249 13.6318 17.3581 12.1274C18.1509 10.9733 20.1911 7.3329 20.3602 5.91894L20.2826 5.78333C18.6164 9.23318 16.803 12.4674 14.1807 15.2573C13.5926 15.8828 12.9966 16.507 12.3326 17.0474C12.0853 17.2485 11.4949 17.5515 11.3308 17.7843C11.2935 17.8373 11.2565 17.9788 11.2641 18.0421Z" fill="#31B452"/>
<path d="M2.5475 5.10059C2.5574 5.10106 2.56731 5.10103 2.57689 5.10202C3.13458 5.15859 5.68298 8.04077 6.11916 8.59122C7.88237 10.8173 9.16549 13.4227 8.87393 16.3731C8.80558 17.0654 8.69166 18.2828 8.14916 18.7405C8.17822 18.8638 8.131 18.9435 8.08015 19.0508L7.89921 19.1074C6.49392 18.7544 4.90868 17.0845 4.08156 15.9068C2.18924 13.2135 2.06641 8.26036 2.5475 5.10059Z" fill="#31B452"/>
<defs>
<linearGradient id="paint0_linear_962_2905" x1="0.755565" y1="31.8209" x2="18.519" y2="30.9662" gradientUnits="userSpaceOnUse">
<stop stop-color="#BC8121"/>
<stop offset="1" stop-color="#955E27"/>
</linearGradient>
</defs>
</svg>
